<svg version="1.1" id="Layer_1" xmlns="http://www.w3.org/2000/svg" xmlns:xlink="http://www.w3.org/1999/xlink" x="0px" y="0px"
	 width="100%" viewBox="0 0 846 847" enable-background="new 0 0 846 847" xml:space="preserve">
<path fill="#FFFFFF" opacity="1.000000" stroke="none" 
	d="
M1.000000,418.463196 
	C29.791969,418.000000 58.583939,418.000000 87.986389,418.000000 
	C89.293221,382.189240 94.852104,347.382843 106.657219,313.711090 
	C118.377663,280.280823 134.890320,249.421127 156.113434,221.365555 
	C144.505600,209.785889 133.208481,198.516205 122.044960,187.379807 
	C124.351143,185.123856 126.182930,183.331955 128.039719,181.515610 
	C138.621552,192.293625 149.627869,203.503967 160.794800,214.877914 
	C228.400177,134.323685 313.350128,91.996193 418.000000,88.324203 
	C418.000000,59.769527 418.000000,30.853420 418.000000,1.468657 
	C421.692902,1.000000 425.385834,1.000000 429.539368,1.000000 
	C430.000000,30.126076 430.000000,59.252151 430.000000,88.500633 
	C515.990906,90.600891 590.194641,121.130890 653.608032,178.729889 
	C665.119324,167.181580 676.738159,155.525330 688.846130,143.378433 
	C690.593872,145.958084 692.156128,148.264023 693.908203,150.850006 
	C683.359680,161.376190 671.696106,173.015030 659.816833,184.869156 
	C723.736450,249.256653 756.875366,326.934052 759.900330,418.000000 
	C788.860229,418.000000 817.461487,418.000000 846.531372,418.000000 
	C847.000000,422.024536 847.000000,426.049103 847.000000,430.536804 
	C818.206360,431.000000 789.412720,431.000000 759.852905,431.000000 
	C756.992432,521.621033 723.368103,598.951111 660.074829,663.615540 
	C671.651733,675.105835 683.233337,686.600769 694.728394,698.009766 
	C692.727478,699.989258 690.896912,701.800110 688.753235,703.920837 
	C688.015076,703.268188 686.887390,702.370056 685.872681,701.358582 
	C676.081360,691.597961 666.252258,681.874023 656.573486,672.002747 
	C654.318420,669.702820 652.891724,669.628296 650.488037,671.924561 
	C630.629333,690.895691 608.559570,706.954285 584.044861,719.254028 
	C566.792175,727.910339 549.201782,736.239929 531.021606,742.598083 
	C514.864136,748.248840 497.824127,751.740906 480.922302,754.794373 
	C464.348724,757.788513 447.458191,759.028076 430.000000,761.122437 
	C430.000000,789.225464 430.000000,818.144043 430.000000,847.531372 
	C426.307098,848.000000 422.614166,848.000000 418.460632,848.000000 
	C418.000000,818.875549 418.000000,789.751038 418.000000,760.165710 
	C330.813354,757.454041 255.354477,726.639771 191.746521,667.198059 
	C179.336624,679.619629 167.021530,691.946228 154.295166,704.684570 
	C152.386566,701.994812 150.769821,699.716309 149.405563,697.793701 
	C160.884598,686.367004 173.330597,673.977722 185.822983,661.542297 
	C123.340538,596.570740 91.136742,520.184570 88.017105,431.000000 
	C59.122204,431.000000 30.529760,431.000000 1.468657,431.000000 
	C1.000000,426.975464 1.000000,422.950897 1.000000,418.463196 
M430.108856,746.520752 
	C430.398743,746.624939 430.688599,746.729187 431.886688,746.974060 
	C436.314667,746.649353 440.744812,746.351501 445.170166,745.994202 
	C453.364532,745.332764 461.643066,745.170044 469.732056,743.851746 
	C491.246124,740.345642 512.450684,735.486572 532.996582,727.983215 
	C556.496460,719.401001 579.060669,708.850952 599.652405,694.646545 
	C615.066956,684.013428 629.702209,672.250671 645.681396,660.241638 
	C634.104370,648.692749 623.566406,638.180481 613.416931,628.055786 
	C615.285828,626.151306 617.083191,624.319702 619.146240,622.217346 
	C629.224731,632.409119 639.412231,642.711121 650.361328,653.783264 
	C675.255127,629.742676 695.228638,602.264465 710.954041,571.756042 
	C733.620056,527.782654 745.526733,480.944519 746.622253,430.904419 
	C718.464722,430.904419 690.395996,430.904419 662.354980,430.904419 
	C662.354980,426.336060 662.354980,422.281433 662.354980,417.905273 
	C690.656250,417.905273 718.604309,417.905273 746.855530,417.905273 
	C743.631042,330.641449 711.796082,256.290863 650.108765,194.224060 
	C639.192444,205.208649 628.891907,215.573639 619.068604,225.458359 
	C616.807007,223.622299 614.763367,221.963150 612.120117,219.817215 
	C617.800354,214.334442 623.073914,209.286484 628.299011,204.188828 
	C633.545532,199.070282 638.743713,193.902191 644.341248,188.382904 
	C583.341675,133.254196 512.501953,103.827446 429.775146,101.562927 
	C429.775146,130.372391 429.775146,158.098679 429.775146,185.751160 
	C425.645782,185.751160 422.037354,185.751160 417.919281,185.751160 
	C417.919281,157.782898 417.919281,130.058014 417.919281,101.353981 
	C316.899353,105.298149 235.225403,146.468292 171.018234,223.653717 
	C180.675323,233.266022 190.244476,242.782516 199.803757,252.308899 
	C205.395370,257.881287 205.388321,257.888367 198.218567,263.552521 
	C187.461044,252.748718 176.610138,241.851166 165.644730,230.838608 
	C124.690231,286.529785 103.185860,348.621735 101.181641,418.019104 
	C129.465683,418.019104 157.531616,418.019104 185.681976,418.019104 
	C185.681976,422.590332 185.681976,426.644287 185.681976,431.191406 
	C157.294754,431.191406 129.222549,431.191406 101.054337,431.191406 
	C104.369690,516.196289 135.058502,589.028503 194.358643,651.058655 
	C199.447433,645.998657 204.243912,641.277893 208.984589,636.501831 
	C213.884018,631.565735 218.729263,626.575867 223.572510,621.635742 
	C226.008423,624.058777 227.965927,626.005981 230.372604,628.399963 
	C225.514023,633.167542 220.674240,637.932312 215.816605,642.678833 
	C210.843872,647.537781 205.853622,652.378906 200.741318,657.354004 
	C262.266632,714.529114 334.327271,744.346375 418.163574,747.088623 
	C418.163574,718.628601 418.163574,691.024841 418.163574,663.307983 
	C422.237518,663.307983 425.958649,663.307983 430.166656,663.307983 
	C430.166656,691.080200 430.166656,718.546021 430.108856,746.520752 
z"/>

<path fill="#FFFFFF" opacity="1.000000" stroke="none" 
	d="
M254.693054,416.679077 
	C251.192780,428.892334 247.915497,440.755981 244.533157,452.999878 
	C243.129837,452.999878 241.644577,452.866638 240.191833,453.027313 
	C237.040863,453.375763 235.602310,452.314606 234.891525,448.945404 
	C232.855057,439.292419 230.317978,429.745056 226.951920,420.104156 
	C225.315796,425.790222 223.612549,431.458130 222.065720,437.168396 
	C220.920364,441.396576 220.104202,445.715363 218.914368,449.929718 
	C217.396317,455.306671 212.918549,452.063263 209.340240,453.234833 
	C205.077911,436.226746 200.877441,419.465485 196.573349,402.290680 
	C199.915436,402.290680 202.670502,402.290680 205.671051,402.290680 
	C208.160233,412.957916 210.659256,423.667328 213.158264,434.376770 
	C213.578461,434.496552 213.998657,434.616364 214.418854,434.736145 
	C218.402908,424.290680 220.411209,413.218842 223.520370,402.000214 
	C224.976608,402.000214 226.624725,402.150146 228.235352,401.968262 
	C231.345764,401.616974 232.460037,403.016632 233.078659,405.989227 
	C234.862656,414.561676 236.994843,423.062317 239.048004,431.577240 
	C239.310684,432.666626 239.915466,433.673523 240.828903,435.812561 
	C242.728043,428.873718 244.400040,422.901642 245.987900,416.907257 
	C246.819046,413.769592 247.712875,410.624969 248.201294,407.425873 
	C248.866837,403.066620 250.913834,401.009003 255.469421,401.971344 
	C256.415680,402.171234 257.440277,402.000397 258.689606,402.000397 
	C257.380066,406.972931 256.148041,411.651184 254.693054,416.679077 
z"/>
<path fill="#FFFFFF" opacity="1.000000" stroke="none" 
	d="
M417.729034,206.217499 
	C423.536743,215.205566 429.084137,223.926071 434.631500,232.646591 
	C434.967499,232.605377 435.303528,232.564163 435.639526,232.522949 
	C435.639526,221.858673 435.639526,211.194397 435.639526,200.273087 
	C438.766663,200.273087 441.150879,200.273087 443.745667,200.273087 
	C443.745667,217.174911 443.745667,233.890610 443.745667,250.533386 
	C438.040863,252.158691 434.646729,250.512405 431.856903,245.183914 
	C427.420746,236.711014 421.988770,228.755157 416.860382,220.655060 
	C416.285126,219.746414 414.948914,219.319565 413.153076,218.131989 
	C413.153076,229.592819 413.153076,239.977661 413.153076,250.676788 
	C410.327209,250.676788 407.941895,250.676788 405.274017,250.676788 
	C405.274017,233.927307 405.274017,217.211853 405.274017,200.493454 
	C411.019287,198.822906 415.327423,199.993927 417.729034,206.217499 
z"/>
<path fill="#FFFFFF" opacity="1.000000" stroke="none" 
	d="
M634.890747,423.000000 
	C630.446472,423.000000 626.484680,423.000000 622.267822,423.000000 
	C622.267822,428.332825 622.267822,433.269867 622.267822,439.000000 
	C625.543823,439.000000 628.955200,439.000000 632.366638,439.000000 
	C635.679321,439.000000 638.992004,439.000000 642.650757,439.000000 
	C642.650757,441.300873 642.650757,443.352325 642.650757,445.705139 
	C633.313354,445.705139 623.919922,445.705139 614.262146,445.705139 
	C614.262146,428.989868 614.262146,412.394470 614.262146,395.399017 
	C623.181335,395.399017 632.233582,395.399017 641.644531,395.399017 
	C641.644531,397.290405 641.644531,399.341919 641.644531,401.906006 
	C635.326660,401.906006 628.923035,401.906006 622.264648,401.906006 
	C622.264648,406.671173 622.264648,410.943329 622.264648,415.741577 
	C628.185242,415.741577 634.253418,415.741577 640.654419,415.741577 
	C640.654419,418.307007 640.654419,420.358398 640.654419,423.000000 
	C638.926392,423.000000 637.149841,423.000000 634.890747,423.000000 
z"/>
<path fill="#FFFFFF" opacity="1.000000" stroke="none" 
	d="
M437.283997,643.221924 
	C432.608704,649.836304 417.084961,648.761902 412.045715,645.954285 
	C407.381897,643.355774 411.581818,640.390869 411.674225,637.512268 
	C415.349487,638.573547 418.667694,639.597534 422.022247,640.484009 
	C426.309509,641.616943 431.265686,639.072693 432.586639,634.838135 
	C433.947968,630.474243 431.233826,628.112610 427.767883,626.348877 
	C424.449127,624.660034 420.951111,623.266785 417.807709,621.302307 
	C411.893341,617.606201 409.671051,612.056824 411.132812,605.745789 
	C412.272858,600.823669 417.786072,595.603210 423.372986,595.132324 
	C429.040314,594.654663 434.942047,594.200195 440.033203,598.502014 
	C439.185944,600.591492 438.351593,602.649170 437.957825,603.620300 
	C432.888763,603.458801 428.162262,602.690002 423.637512,603.335327 
	C418.972717,604.000732 417.734680,610.344788 421.618286,613.046143 
	C423.855713,614.602417 426.271088,616.104187 428.830414,616.962830 
	C443.059845,621.737061 443.847839,635.554932 437.283997,643.221924 
z"/>
</svg>