<svg version="1.1" id="Layer_1" xmlns="http://www.w3.org/2000/svg" xmlns:xlink="http://www.w3.org/1999/xlink" x="0px" y="0px"
	 width="100%" viewBox="0 0 2546 1581" xml:space="preserve">

<path fill="#FAFAFA" opacity="1.000000" stroke="none" 
	d="
M2326.741455,1440.929321 
	C2328.048828,1430.325073 2330.158203,1419.784546 2331.490723,1409.146851 
	C2334.549316,1384.730957 2337.501953,1360.295044 2339.960938,1335.813232 
	C2341.455811,1320.926758 2341.967285,1305.941040 2342.877197,1290.997192 
	C2343.007324,1288.860352 2342.895020,1286.708740 2342.895020,1284.020508 
	C2303.375244,1284.020508 2263.979492,1284.020508 2224.408203,1284.020508 
	C2224.408203,1281.242676 2224.408203,1279.014893 2224.408203,1276.371338 
	C2263.991211,1276.371338 2303.256104,1276.371338 2343.972168,1276.371338 
	C2343.104492,1247.098755 2342.250732,1218.283081 2341.387695,1189.162476 
	C2324.621338,1190.624268 2308.724121,1192.003052 2292.828613,1193.398438 
	C2277.247559,1194.766113 2261.670166,1196.175537 2246.082764,1197.464600 
	C2245.181641,1197.539185 2244.204346,1196.696411 2243.262451,1196.280518 
	C2244.190186,1195.387329 2245.045898,1193.813965 2246.057129,1193.706665 
	C2255.650391,1192.689453 2265.269043,1191.911865 2274.882080,1191.082886 
	C2295.268799,1189.324585 2315.657471,1187.585693 2336.042236,1185.803345 
	C2337.327637,1185.691040 2338.586182,1185.274048 2340.929932,1184.766602 
	C2337.568359,1156.144043 2334.223633,1127.665161 2330.802490,1098.534546 
	C2290.269287,1105.707031 2250.760986,1112.698242 2210.833252,1119.763550 
	C2210.239990,1117.466187 2209.686768,1115.324951 2208.878662,1112.195801 
	C2249.052979,1105.054688 2288.983398,1097.956909 2329.551270,1090.745850 
	C2323.573486,1062.154175 2317.673340,1033.933472 2311.666504,1005.202576 
	C2298.243164,1008.775024 2285.930664,1012.042664 2273.623291,1015.329224 
	C2255.335938,1020.212646 2237.061035,1025.145508 2218.748047,1029.930298 
	C2217.336426,1030.299194 2215.663330,1029.667725 2214.111816,1029.501221 
	C2215.390381,1028.395142 2216.501465,1026.673706 2217.972412,1026.273682 
	C2247.930176,1018.125854 2277.928955,1010.129517 2307.918945,1002.099487 
	C2308.544922,1001.931946 2309.160156,1001.725525 2310.666016,1001.268738 
	C2302.284180,973.374512 2293.946045,945.626648 2285.444336,917.333679 
	C2245.946533,931.732239 2207.358154,945.799133 2168.528564,959.954163 
	C2167.563721,957.568115 2166.712402,955.463135 2165.589844,952.686829 
	C2204.467041,938.493835 2243.035645,924.413635 2282.797852,909.897583 
	C2271.950195,882.868958 2261.176514,856.024597 2250.249756,828.799194 
	C2218.811279,843.452576 2188.169922,857.734497 2157.493164,872.032959 
	C2154.221191,868.479065 2157.307373,867.853516 2159.491211,866.833862 
	C2180.411865,857.065430 2201.331543,847.294983 2222.250732,837.523438 
	C2230.672852,833.589294 2239.093018,829.651306 2248.570312,825.221375 
	C2235.402344,799.192932 2222.321045,773.335999 2209.054932,747.113220 
	C2172.112793,768.370361 2135.963623,789.171204 2099.366943,810.229492 
	C2098.055664,808.025391 2096.827637,805.961060 2095.347656,803.472839 
	C2131.812988,782.476440 2167.945801,761.671631 2205.125977,740.263733 
	C2189.626221,715.440063 2174.273438,690.851257 2158.599121,665.747803 
	C2149.148682,672.338440 2140.464844,678.377380 2131.798828,684.441589 
	C2113.250977,697.420471 2094.699463,710.394287 2076.187012,723.423340 
	C2074.070312,724.913147 2072.291504,726.151855 2070.911377,722.253479 
	C2099.130371,702.489502 2127.310791,682.752625 2156.293457,662.453735 
	C2138.588623,638.928528 2121.125000,615.723877 2103.398193,592.169434 
	C2070.298340,619.989075 2037.966064,647.163452 2005.291016,674.626038 
	C2003.550415,672.581299 2001.978271,670.734741 2000.179077,668.621155 
	C2032.848511,641.146851 2065.202881,613.937683 2098.343018,586.067505 
	C2078.801514,564.371277 2059.369873,542.796936 2039.931152,521.214600 
	C2014.591553,546.575134 1989.895508,571.291748 1965.401611,595.805847 
	C1960.279297,593.421448 1963.186157,591.704346 1964.825073,590.062378 
	C1982.840210,572.016418 2000.869385,553.984436 2018.911499,535.965332 
	C2024.678345,530.205811 2030.494629,524.495789 2036.873047,518.184326 
	C2015.475952,498.064331 1994.398071,478.244537 1973.047852,458.168762 
	C1944.664429,491.559998 1916.881714,524.244629 1888.735474,557.356873 
	C1886.719604,555.652832 1884.890991,554.106995 1882.713623,552.266357 
	C1910.718750,519.301697 1938.501465,486.598846 1967.018311,453.031799 
	C1943.845703,434.841644 1920.861450,416.799377 1897.324463,398.323273 
	C1876.528809,428.015198 1856.128784,457.142303 1835.733887,486.261993 
	C1831.875244,484.961823 1831.859863,484.951080 1834.416748,481.298462 
	C1853.031250,454.706757 1871.653442,428.120361 1890.268555,401.529205 
	C1891.391724,399.924774 1892.476562,398.293488 1894.050781,395.982452 
	C1869.405762,379.875153 1845.084473,363.979492 1820.297607,347.779572 
	C1797.924072,386.390198 1776.045898,424.145905 1753.977661,462.229736 
	C1751.612671,460.848999 1749.655518,459.706390 1747.199707,458.272614 
	C1769.212524,420.244171 1791.083374,382.460663 1813.491211,343.749756 
	C1787.332764,329.861267 1761.297119,316.037903 1735.522949,302.353363 
	C1719.754883,336.178284 1704.430176,369.052246 1689.137085,401.858490 
	C1684.529663,401.029968 1686.271118,398.676605 1687.199951,396.679718 
	C1695.886230,378.005280 1704.592896,359.340332 1713.312134,340.681274 
	C1719.428345,327.592468 1725.573242,314.517151 1732.053467,300.692627 
	C1705.124390,289.264679 1677.996460,277.752319 1650.521362,266.092682 
	C1635.065552,308.437714 1619.936890,349.886902 1604.632080,391.818298 
	C1602.161377,390.926605 1599.933838,390.122650 1597.253662,389.155334 
	C1612.518433,347.290222 1627.616089,305.883514 1643.118408,263.367188 
	C1614.783936,254.297241 1586.711670,245.311218 1558.971558,236.431519 
	C1553.057495,258.706940 1547.388794,280.145630 1541.668579,301.570587 
	C1538.200806,314.559113 1534.701050,327.539795 1531.064087,340.481415 
	C1530.723389,341.694183 1529.291260,342.600220 1528.365723,343.648743 
	C1528.041504,342.235901 1527.146729,340.671417 1527.476074,339.432373 
	C1536.133179,306.862732 1544.906006,274.323853 1553.710083,241.793549 
	C1554.162231,240.122559 1555.068359,238.574432 1556.301758,235.724518 
	C1527.403320,229.134811 1498.593506,222.565308 1469.284058,215.881882 
	C1461.222290,260.399292 1453.328613,303.988373 1445.450073,347.494141 
	C1438.016479,348.573944 1437.425171,347.910309 1438.626709,341.310028 
	C1446.123901,300.121704 1453.559082,258.922028 1460.997437,217.722992 
	C1461.113892,217.077957 1461.011963,216.393509 1461.011963,214.442749 
	C1431.735107,210.545105 1402.244873,206.619049 1373.474976,202.788895 
	C1370.216553,240.565903 1367.069336,277.054260 1363.923218,313.529877 
	C1360.396851,314.808563 1359.935181,313.213531 1360.184326,310.514404 
	C1361.315918,298.256287 1362.374634,285.991455 1363.462158,273.729279 
	C1365.328979,252.682861 1367.182739,231.635269 1369.084717,210.592041 
	C1369.303833,208.167053 1369.795166,205.766647 1370.293335,202.475037 
	C1340.595337,201.047562 1311.080444,199.628891 1281.080566,198.186905 
	C1281.080566,244.033478 1281.080566,288.778992 1281.080566,333.766846 
	C1278.394775,333.766846 1276.131226,333.766846 1273.384399,333.766846 
	C1273.384399,289.006561 1273.384399,244.259888 1273.384399,198.220261 
	C1243.030640,199.435165 1213.202026,200.629044 1183.044067,201.836105 
	C1183.810669,206.997284 1184.616943,211.081879 1184.998047,215.205750 
	C1187.952515,247.177551 1190.821411,279.157227 1193.729004,311.133392 
	C1193.940796,313.462952 1194.221802,315.761383 1189.962158,314.566345 
	C1186.778442,277.637268 1183.572266,240.447174 1180.274170,202.190079 
	C1151.442383,205.857101 1122.366089,209.555206 1093.052979,213.283447 
	C1101.101929,258.496124 1108.927856,302.455811 1116.876587,347.106018 
	C1114.374146,347.525879 1112.038208,347.917786 1109.167847,348.399384 
	C1101.235474,303.951447 1093.371948,259.889496 1085.287109,214.587128 
	C1055.642944,221.119278 1026.547119,227.530594 997.518738,233.927032 
	C1000.317627,243.844666 1002.934814,252.775467 1005.354980,261.759369 
	C1012.351685,287.731232 1019.252625,313.728912 1026.245728,339.701813 
	C1026.873291,342.032837 1027.978882,344.293732 1023.497192,344.662323 
	C1013.882080,308.559418 1004.261902,272.437469 994.433044,235.532120 
	C966.589600,242.672287 938.646362,251.682343 910.284241,261.791718 
	C925.937500,304.249847 941.471741,346.385284 957.221619,389.105469 
	C954.837708,390.035034 952.641785,390.891296 949.920837,391.952271 
	C934.159851,349.266235 918.547729,306.983215 902.634888,263.885895 
	C874.745361,275.546204 847.358276,286.996460 820.200745,298.350739 
	C827.596924,314.066010 834.652527,328.991852 841.651001,343.944427 
	C850.029907,361.846436 858.358704,379.771973 866.713318,397.685333 
	C867.701660,399.804413 869.242676,402.078522 864.642151,402.644958 
	C848.915833,368.746063 833.124695,334.707581 816.981628,299.910492 
	C791.528503,313.225098 765.673218,326.750061 739.301880,340.544983 
	C762.155762,380.173157 784.541626,418.989777 807.225159,458.322601 
	C805.058167,459.646973 803.024963,460.889587 800.520142,462.420441 
	C777.852112,423.152679 755.355286,384.181641 732.447449,344.498505 
	C706.847839,361.070557 681.615417,377.404938 657.105408,393.271637 
	C679.017883,424.483643 700.342224,454.857849 721.619568,485.165222 
	C718.860474,488.972168 717.602661,486.385376 716.296631,484.522461 
	C706.071899,469.938477 695.870117,455.338379 685.657471,440.745911 
	C676.972656,428.336517 668.255493,415.949646 659.619080,403.506714 
	C657.956665,401.111450 656.601990,398.502594 654.550415,395.061554 
	C631.168030,413.211151 608.109131,431.109589 584.741028,449.248047 
	C614.102783,484.005585 642.876709,518.067383 671.865601,552.383545 
	C669.757385,554.134644 667.998596,555.595520 665.812378,557.411377 
	C636.895996,523.214844 608.138611,489.206360 578.684753,454.374237 
	C556.546692,474.963470 534.680969,495.299469 512.101562,516.299194 
	C538.812195,543.010498 564.677246,568.876160 591.125610,595.325134 
	C590.591980,596.519531 589.267029,596.700073 587.169983,594.554871 
	C580.996094,588.239014 574.712219,582.030640 568.466980,575.784607 
	C551.498169,558.813477 534.513855,541.857910 517.574158,524.857727 
	C515.518494,522.794678 513.699097,520.496155 511.045959,517.484741 
	C491.464905,539.008057 471.812805,560.609436 451.701813,582.715271 
	C486.292938,611.623108 520.218140,639.974426 554.507019,668.629639 
	C552.843750,670.693481 551.329346,672.572693 549.562378,674.765259 
	C515.412231,646.247742 481.567200,617.985046 446.638702,588.817505 
	C428.458710,612.799255 410.436584,636.572693 392.712250,659.953369 
	C423.305328,681.340027 453.163116,702.212708 483.020905,723.085327 
	C482.931763,723.665344 482.842651,724.245300 482.753540,724.825317 
	C481.354248,724.825317 479.556763,725.397949 478.613617,724.742065 
	C450.461334,705.164307 422.390167,685.469910 394.326111,665.765625 
	C393.288177,665.036926 392.449799,664.024109 390.908295,662.566895 
	C375.319489,687.274902 359.813019,711.852478 344.011169,736.898193 
	C382.887695,759.363281 420.962555,781.365112 459.331665,803.536987 
	C457.970276,805.892029 456.830017,807.864502 455.404205,810.330933 
	C417.073608,788.205750 378.994141,766.225464 340.067535,743.756226 
	C326.414978,770.527832 312.995453,796.842468 299.472382,823.360168 
	C332.695129,838.870850 365.303467,854.094666 397.910675,869.317932 
	C397.717499,873.489929 395.774872,872.660767 393.354797,871.526428 
	C366.285370,858.838379 339.189636,846.206482 312.097076,833.567871 
	C307.600861,831.470337 303.085968,829.412964 297.866089,827.008362 
	C286.968781,853.918823 276.188293,880.540710 265.100159,907.922424 
	C306.682587,922.999084 347.613617,937.839600 388.971497,952.834778 
	C388.046692,955.368286 387.227631,957.612183 386.282074,960.202637 
	C345.184753,945.320679 304.489319,930.584290 262.493866,915.377136 
	C253.915176,943.733643 245.396332,971.892273 236.745255,1000.488037 
	C252.534836,1004.750244 267.394562,1008.772400 282.260468,1012.771545 
	C299.733307,1017.471924 317.226196,1022.099182 334.666138,1026.918335 
	C336.553741,1027.439941 339.774811,1029.484131 339.617371,1030.039062 
	C338.502960,1033.966919 335.622437,1031.006958 333.992371,1030.579102 
	C302.687195,1022.360046 271.447113,1013.893372 240.191055,1005.487122 
	C239.076614,1005.187439 237.936508,1004.983215 235.777313,1004.507202 
	C229.822296,1032.843750 223.900757,1061.020874 217.882507,1089.658325 
	C260.763519,1097.300659 302.740509,1104.781982 344.640991,1112.249512 
	C345.378510,1119.992676 345.212769,1120.235352 337.919495,1118.943115 
	C299.151489,1112.074341 260.393707,1105.147827 221.630234,1098.253540 
	C220.325073,1098.021484 218.997070,1097.917725 216.606735,1097.620972 
	C213.150955,1126.868042 209.711136,1155.980225 206.225189,1185.482788 
	C215.898376,1186.388794 224.468430,1187.247192 233.048859,1187.984741 
	C257.583130,1190.093750 282.122559,1192.142578 306.656921,1194.250488 
	C309.018768,1194.453369 311.834625,1194.563843 309.400940,1198.437134 
	C275.371796,1195.482910 241.269867,1192.522339 205.925049,1189.453857 
	C205.026276,1218.556519 204.145950,1247.062012 203.247711,1276.147461 
	C246.124680,1276.147461 288.007843,1276.147461 330.280151,1276.147461 
	C330.280151,1278.918701 330.280151,1281.146606 330.280151,1283.882568 
	C288.266937,1283.882568 246.355652,1283.882568 204.310532,1283.882568 
	C205.895981,1336.455811 211.518158,1388.108154 220.735336,1439.670654 
	C152.106644,1439.670654 83.825195,1439.670654 14.939101,1439.670654 
	C13.334439,1427.767212 11.400142,1415.825928 10.173790,1403.812134 
	C7.741015,1379.980469 5.723223,1356.106567 3.473938,1332.255737 
	C3.033930,1327.589966 2.322070,1322.949707 1.367796,1318.648926 
	C1.000000,1280.979126 1.000000,1242.958130 1.377804,1204.788208 
	C2.167475,1203.294800 2.818470,1201.974609 2.956329,1200.602661 
	C6.647123,1163.873657 9.573805,1127.051514 14.103347,1090.427246 
	C20.473078,1038.923950 31.627693,988.300659 45.189316,938.225403 
	C69.242577,849.410645 102.617043,764.219543 145.467361,682.799438 
	C212.683411,555.081909 299.338287,442.159363 404.662018,343.533966 
	C472.234222,280.259186 545.764832,224.900467 625.386536,177.655060 
	C724.976868,118.560753 830.704956,74.026985 942.567444,44.081242 
	C986.890869,32.215813 1031.672119,22.414225 1077.118652,16.020844 
	C1104.603149,12.154360 1132.206299,9.084566 1159.800903,6.065470 
	C1173.514160,4.565102 1187.331055,4.022650 1201.090332,2.912975 
	C1202.105103,2.831130 1203.032104,1.663073 1204.000000,0.999998 
	C1250.020874,1.000000 1296.041870,1.000000 1342.228027,1.382144 
	C1343.750610,2.172915 1345.085083,2.824510 1346.468628,2.954592 
	C1379.753174,6.083857 1413.144897,8.334164 1446.307007,12.440956 
	C1491.818726,18.077110 1536.784546,27.024605 1581.328613,38.044243 
	C1688.653564,64.595161 1790.761108,104.473091 1887.536011,157.910370 
	C2008.508789,224.709244 2115.639160,309.204437 2209.427246,410.637573 
	C2291.066406,498.931885 2358.985596,596.770325 2412.888428,704.280090 
	C2452.767578,783.819580 2483.781494,866.707520 2506.016846,952.867004 
	C2517.525635,997.462280 2527.073486,1042.478760 2532.996582,1088.162354 
	C2536.929688,1118.497070 2539.876709,1148.964355 2542.926758,1179.406250 
	C2544.103516,1191.149902 2544.310059,1202.989746 2545.092773,1214.776855 
	C2545.144775,1215.556641 2546.337646,1216.260742 2547.000000,1217.000000 
	C2547.000000,1244.354248 2547.000000,1271.708496 2546.615723,1299.262451 
	C2545.944092,1300.199097 2545.454590,1300.920654 2545.397949,1301.674805 
	C2543.208740,1330.829956 2541.413574,1360.020142 2538.770508,1389.133545 
	C2537.195557,1406.479614 2534.297607,1423.705566 2531.994385,1440.985474 
	C2463.726562,1440.973267 2395.458496,1440.961060 2326.741455,1440.929321 
M1179.755371,181.030655 
	C1180.126953,181.032867 1180.498413,181.035080 1180.996216,181.861374 
	C1181.196777,183.486984 1181.397217,185.112610 1181.582642,186.615845 
	C1212.233276,185.368774 1242.547485,184.135422 1273.379150,182.880997 
	C1273.379150,153.124191 1273.379150,123.379166 1273.379150,93.511429 
	C1276.144043,93.511429 1278.385498,93.511429 1281.204102,93.511429 
	C1281.204102,123.656555 1281.204102,153.523148 1281.204102,183.988129 
	C1288.935669,183.988129 1296.103271,183.700485 1303.240723,184.041733 
	C1325.175781,185.090485 1347.098877,186.389328 1369.028931,187.546616 
	C1370.050537,187.600525 1371.094727,187.226242 1372.635986,187.245895 
	C1373.115356,187.485031 1373.594849,187.724167 1374.940308,188.073242 
	C1404.558105,191.730438 1434.175903,195.387650 1464.305908,199.108093 
	C1469.535767,170.293213 1474.883911,140.826248 1480.257690,111.218147 
	C1483.051758,111.774544 1485.283203,112.218910 1487.915527,112.743095 
	C1482.566895,142.336166 1477.270020,171.642654 1472.003784,200.780151 
	C1501.504517,207.483505 1530.674561,214.111694 1560.129028,220.804535 
	C1561.116089,217.614578 1562.134888,214.321915 1563.693726,211.022720 
	C1564.053589,211.026855 1564.413574,211.031006 1564.741211,211.793243 
	C1563.837402,215.093399 1562.933594,218.393555 1562.131226,221.323486 
	C1591.027100,230.556107 1619.559448,239.672577 1648.389282,248.884125 
	C1658.574951,221.012344 1668.752197,193.163254 1679.034668,165.026382 
	C1681.681396,166.027069 1683.887329,166.861084 1686.352295,167.793030 
	C1675.997192,196.219482 1665.853638,224.065521 1655.807983,251.642487 
	C1683.897705,263.558838 1711.484863,275.261963 1739.381836,287.096558 
	C1751.893921,260.417480 1764.446533,233.652008 1776.999268,206.886536 
	C1777.537231,207.144058 1778.075195,207.401581 1778.613159,207.659119 
	C1766.070679,234.509109 1753.528198,261.359100 1741.106445,287.950623 
	C1767.845581,302.121552 1794.359253,316.172913 1821.210449,330.403290 
	C1835.876465,305.109863 1850.685913,279.568909 1865.614868,253.821960 
	C1868.012573,255.204071 1869.993896,256.346161 1872.404053,257.735504 
	C1857.471436,283.543732 1842.692749,309.085999 1828.023560,334.439026 
	C1853.447510,351.061523 1878.576294,367.491089 1903.883179,384.037079 
	C1920.697754,360.162262 1937.574097,336.199982 1954.450317,312.237671 
	C1954.943481,312.588226 1955.436646,312.938751 1955.929810,313.289307 
	C1939.015381,337.379456 1922.100952,361.469635 1905.451294,385.182709 
	C1929.416260,403.954773 1953.101807,422.508057 1977.014282,441.239014 
	C1995.755371,419.217224 2014.678101,396.982086 2033.718506,374.608551 
	C2035.965820,376.545074 2037.694702,378.034851 2039.664795,379.732544 
	C2020.584595,402.205017 2001.681030,424.469360 1983.192261,446.245239 
	C2004.659790,466.738708 2025.720215,486.851349 2046.810181,506.932800 
	C2047.355591,507.452148 2048.225342,507.630768 2049.406250,508.206177 
	C2049.609863,508.481018 2049.813232,508.755859 2049.949463,509.729492 
	C2056.607910,516.906738 2063.357178,524.001953 2069.905518,531.278320 
	C2083.249268,546.105896 2096.484863,561.031311 2110.037109,576.221619 
	C2131.924316,557.837524 2153.921631,539.361145 2176.144043,520.695557 
	C2177.958740,522.889832 2179.483154,524.733093 2181.160400,526.761536 
	C2158.816650,545.556763 2136.843750,564.039856 2115.217529,582.231445 
	C2133.472168,606.511047 2151.438232,630.406799 2169.506348,654.438721 
	C2192.878418,638.119812 2216.228760,621.816101 2239.579102,605.512451 
	C2239.926758,606.003906 2240.274170,606.495361 2240.621826,606.986816 
	C2217.152344,623.429749 2193.682861,639.872742 2170.605225,656.041260 
	C2186.773193,681.853821 2202.621582,707.156067 2218.526367,732.548706 
	C2242.924316,718.516357 2267.220947,704.542419 2291.815674,690.396973 
	C2293.269775,692.947449 2294.445068,695.008240 2295.701904,697.212708 
	C2270.764404,711.583191 2246.361084,725.645630 2222.429932,739.436157 
	C2236.158203,766.599609 2249.537109,793.071594 2262.973633,819.657532 
	C2288.017090,808.010071 2313.317383,796.243042 2338.617920,784.476074 
	C2338.870361,785.015137 2339.122559,785.554260 2339.375000,786.093384 
	C2314.111328,797.895447 2288.847656,809.697449 2263.791504,821.402527 
	C2275.031006,849.313782 2286.091797,876.781677 2297.295898,904.605042 
	C2323.076172,895.215393 2348.871826,885.820190 2375.083740,876.273376 
	C2375.988770,878.966003 2376.709717,881.111511 2377.572510,883.679260 
	C2351.377197,893.259094 2325.442383,902.743652 2299.919434,912.077576 
	C2308.657471,941.170593 2317.216553,969.668457 2325.818359,998.308472 
	C2329.931152,997.271729 2333.946289,996.259521 2337.954590,995.792236 
	C2337.961914,996.155334 2337.969238,996.518494 2337.281006,997.174255 
	C2333.491943,998.248596 2329.702881,999.322998 2326.294678,1000.289429 
	C2332.467773,1029.746460 2338.571777,1058.873901 2344.693359,1088.085938 
	C2371.071045,1083.418701 2397.330078,1078.772461 2424.090576,1074.037476 
	C2424.503174,1076.771851 2424.857910,1079.121094 2425.255615,1081.754639 
	C2398.378662,1086.541260 2371.983643,1091.241943 2345.949219,1095.878540 
	C2349.474365,1126.001709 2352.920410,1155.447998 2356.370850,1184.931274 
	C2359.006348,1184.719360 2361.480713,1184.520508 2363.945557,1184.836426 
	C2363.956543,1185.179199 2363.967529,1185.521851 2363.175293,1186.000977 
	C2360.778320,1186.356079 2358.381104,1186.711182 2356.467529,1186.994629 
	C2357.521240,1217.073486 2358.554932,1246.580078 2359.602051,1276.475098 
	C2385.467285,1276.475098 2411.221191,1276.475098 2437.154297,1276.475098 
	C2437.154297,1279.134033 2437.154297,1281.394775 2437.154297,1284.282227 
	C2410.700928,1284.282227 2384.493408,1284.282227 2358.836182,1284.282227 
	C2357.083496,1308.833252 2355.880615,1332.769897 2353.531494,1356.593506 
	C2351.185303,1380.388184 2347.691406,1404.069946 2344.693359,1427.859375 
	C2344.691895,1427.858887 2345.009033,1428.035522 2345.326172,1428.035645 
	C2401.989502,1428.059937 2458.652588,1428.054321 2515.315918,1428.134888 
	C2518.185791,1428.138916 2518.878662,1427.048462 2519.139404,1424.377319 
	C2522.113770,1393.923706 2526.178467,1363.541260 2528.030273,1333.023071 
	C2529.973633,1300.994873 2530.651367,1268.833496 2530.397949,1236.742065 
	C2530.053467,1193.129761 2525.872314,1149.730957 2520.222412,1106.474731 
	C2514.622070,1063.599365 2506.867188,1021.122681 2496.780762,979.098694 
	C2472.909912,879.643616 2437.507568,784.469543 2390.213867,693.733337 
	C2332.632324,583.259583 2260.020996,483.702881 2172.999756,394.643738 
	C2108.869629,329.011627 2038.462646,270.950287 1961.729370,220.579956 
	C1871.207031,161.157990 1774.585693,114.270515 1671.846924,80.158302 
	C1568.338379,45.790493 1462.103760,25.301413 1353.185181,18.697344 
	C1307.776855,15.944103 1262.383545,15.321348 1216.946655,17.407597 
	C1171.551270,19.491934 1126.394409,23.873955 1081.455322,30.724274 
	C1034.600586,37.866600 988.314697,47.602848 942.577271,59.975056 
	C855.495300,83.531181 771.939636,116.174019 692.048706,158.046906 
	C559.171814,227.691025 442.484375,318.337524 341.715240,429.436188 
	C215.619659,568.457458 124.877800,727.632263 70.056076,907.194214 
	C54.762966,957.284912 42.632538,1008.162964 34.168430,1059.834717 
	C29.575451,1087.873901 26.010502,1116.109497 22.932650,1144.360107 
	C20.394053,1167.661011 18.473013,1191.088379 17.692503,1214.506714 
	C16.723013,1243.595093 16.122572,1272.778076 17.356155,1301.835571 
	C18.737814,1334.381104 22.264891,1366.839233 25.048481,1399.319092 
	C25.766186,1407.693604 27.196835,1416.007080 28.280453,1424.200928 
	C86.552353,1424.200928 144.281387,1424.200928 200.980164,1424.200928 
	C196.440414,1377.339233 191.928864,1330.768677 187.370361,1283.713379 
	C163.649384,1283.713379 139.059311,1283.713379 114.600998,1283.713379 
	C114.600998,1281.063965 114.600998,1278.827881 114.600998,1276.167725 
	C139.227798,1276.167725 163.485672,1276.167725 188.227356,1276.167725 
	C188.227356,1273.800049 188.225983,1271.841797 188.227585,1269.883545 
	C188.235199,1260.550781 187.960037,1251.207397 188.311966,1241.887695 
	C189.001709,1223.622314 190.041061,1205.370117 190.963669,1186.370850 
	C190.954453,1185.876221 190.945236,1185.381714 191.020294,1184.055176 
	C191.352982,1182.459106 191.826385,1180.877930 191.996490,1179.264648 
	C193.635025,1163.725464 195.077454,1148.164062 196.870300,1132.642944 
	C198.313309,1120.150513 200.162445,1107.704956 201.886063,1094.830322 
	C176.180038,1090.228516 150.630905,1085.654785 124.789192,1081.028687 
	C125.492569,1078.050293 126.010033,1075.859253 126.580055,1073.445557 
	C152.199036,1077.992065 177.495102,1082.481445 203.279129,1087.057251 
	C204.051956,1082.767822 204.667542,1078.712524 205.522903,1074.708496 
	C210.584213,1051.015991 215.746811,1027.344971 220.684738,1003.627075 
	C220.977386,1002.221436 219.615509,1000.471375 219.022812,998.336670 
	C219.027786,997.973511 219.032761,997.610352 219.841446,997.308533 
	C220.327286,997.532715 220.813126,997.756897 221.481995,998.078857 
	C221.709396,998.080078 221.880356,997.985107 222.294174,996.994629 
	C230.753616,968.095520 239.213058,939.196350 247.746597,910.044128 
	C223.044220,901.080261 198.134796,892.041260 172.903961,882.885620 
	C173.888245,880.219360 174.705597,878.005249 175.613327,875.546387 
	C201.091949,884.759033 225.985870,893.760254 250.645035,902.676636 
	C261.956543,874.748413 273.076050,847.294250 284.253387,819.697327 
	C282.509613,818.750671 280.774384,817.808655 279.329712,816.423035 
	C279.629639,816.237915 279.929565,816.052795 280.933319,815.959778 
	C282.452148,816.613037 283.970978,817.266296 285.113983,817.757874 
	C298.997528,790.502441 312.827301,763.352478 326.731812,736.055786 
	C303.147156,722.416504 279.486603,708.733337 255.719131,694.988403 
	C257.295746,692.428955 258.476501,690.512146 259.828613,688.317139 
	C283.855011,702.176147 307.420258,715.769165 330.969788,729.353149 
	C339.814545,714.931641 348.299652,700.847534 357.040375,686.923828 
	C364.018707,675.807617 371.308228,664.886841 378.807434,653.509949 
	C378.871155,653.009521 378.934845,652.509155 379.697052,651.977173 
	C380.084717,651.678955 380.566010,651.450317 380.846680,651.072571 
	C398.698090,627.046570 416.533234,603.008362 434.552704,578.724854 
	C413.563416,561.177368 392.053650,543.194702 370.430420,525.117188 
	C372.395660,522.831543 373.882019,521.102844 375.557007,519.154785 
	C397.284485,537.287781 418.727722,555.183594 439.864166,572.823364 
	C460.194366,550.479797 480.228180,528.461975 501.512909,505.069366 
	C481.945251,485.190247 462.130829,465.060455 442.316406,444.930634 
	C442.239990,445.011292 442.163574,445.091949 442.087158,445.172577 
	C461.731995,465.404755 481.376831,485.636963 500.841461,505.683563 
	C524.161621,484.003906 546.298218,463.424622 568.715454,442.584412 
	C550.481567,420.989685 532.082703,399.199585 513.510681,377.204437 
	C515.703430,375.366425 517.467529,373.887665 519.536072,372.153748 
	C538.152771,394.159912 556.610962,415.978699 574.606995,437.251190 
	C597.896790,419.519318 620.808533,402.103546 643.639221,384.582153 
	C644.487976,383.930786 644.546814,382.250122 645.207886,380.604065 
	C645.469482,380.403931 645.731079,380.203827 646.583923,380.446228 
	C647.987061,380.176361 649.630066,380.282959 650.750305,379.569092 
	C654.817383,376.977539 658.634277,373.995636 662.679871,371.367706 
	C683.320435,357.959961 704.002930,344.616852 724.772766,331.185181 
	C710.454285,306.346222 695.950134,281.185089 681.309570,255.787277 
	C683.765808,254.356583 685.731995,253.211365 688.081604,251.842789 
	C702.716370,277.175568 717.222778,302.286224 731.615051,327.199310 
	C758.476440,313.145996 784.866882,299.339020 811.378174,285.468872 
	C799.059570,258.934296 786.823792,232.578156 774.588074,206.222000 
	C775.130615,205.969955 775.673157,205.717896 776.215698,205.465851 
	C788.576599,231.986694 800.937561,258.507507 813.126892,284.660187 
	C841.311401,272.870331 869.245728,261.185120 897.318726,249.441895 
	C887.146057,221.851837 877.051941,194.474945 866.819153,166.721786 
	C869.388245,165.783646 871.628174,164.965698 874.175781,164.035416 
	C884.521729,192.017441 894.733521,219.636765 904.762390,246.761139 
	C933.870911,237.646896 962.319214,228.739380 990.924622,219.782669 
	C990.702148,218.588425 990.464417,217.312042 990.766602,216.039078 
	C991.126465,216.035797 991.486267,216.032516 992.062561,216.692001 
	C992.536133,217.708664 993.009705,218.725342 993.210632,219.156677 
	C1023.217468,212.532959 1052.800171,206.002838 1082.584473,199.428238 
	C1077.394287,170.205978 1072.236450,141.166061 1067.009521,111.737717 
	C1069.854004,111.322594 1072.223022,110.976852 1074.733521,110.610474 
	C1080.022217,140.223831 1085.208618,169.263733 1090.364136,198.131516 
	C1120.334473,194.331406 1149.892700,190.583542 1179.462646,186.834213 
	C1179.364502,184.693344 1179.281128,182.873138 1179.755371,181.030655 
z"/>
<path fill="#FCFCFC" opacity="1.000000" stroke="none" 
	d="
M315.110046,1371.955933 
	C326.343079,1377.306885 331.326141,1385.965088 329.906738,1397.933594 
	C328.595612,1408.988647 322.063202,1415.971802 311.644135,1419.352661 
	C298.344574,1423.667969 284.771484,1422.100220 270.603455,1421.430908 
	C270.603455,1419.193115 270.603455,1417.427002 270.603455,1415.660889 
	C270.603455,1388.356323 270.704620,1361.051025 270.504547,1333.747925 
	C270.470978,1329.163818 271.102783,1326.592896 276.459625,1326.759399 
	C286.864746,1327.082520 297.432373,1325.922485 307.657837,1327.348267 
	C320.978394,1329.205322 327.468750,1338.348633 326.992371,1351.511841 
	C326.726959,1358.845581 322.549622,1363.812866 316.800873,1367.714844 
	C315.311401,1368.725708 313.656189,1369.492432 311.895233,1370.472656 
	C313.014740,1371.001465 313.889771,1371.414795 315.110046,1371.955933 
M292.205658,1376.006104 
	C289.263702,1376.006104 286.321747,1376.006104 283.222565,1376.006104 
	C283.222565,1388.175049 283.222565,1399.876709 283.222565,1411.981079 
	C288.695465,1411.981079 294.013031,1412.471680 299.207245,1411.879761 
	C310.355072,1410.609497 317.194611,1403.427124 316.973114,1393.998779 
	C316.753021,1384.630737 309.985199,1378.131714 299.048279,1376.779663 
	C297.072601,1376.535278 295.099243,1376.272583 292.205658,1376.006104 
M305.561707,1337.644531 
	C298.194275,1334.739746 290.718933,1335.756592 283.279358,1336.310791 
	C283.279358,1346.768066 283.279358,1356.503418 283.279358,1366.874634 
	C289.174438,1366.563599 294.817810,1366.653076 300.340424,1365.880127 
	C307.816162,1364.833740 313.286255,1359.544678 314.174316,1353.418701 
	C315.248718,1346.007324 312.983032,1341.544189 305.561707,1337.644531 
z"/>
<path fill="#FAFAFA" opacity="1.000000" stroke="none" 
	d="
M2054.050293,826.057373 
	C2057.337646,824.960205 2060.569336,823.638550 2063.923096,822.810669 
	C2071.971436,820.823914 2079.058594,823.449707 2082.706787,829.503113 
	C2086.473877,835.753662 2085.820801,842.315735 2080.094971,848.706482 
	C2073.692139,855.852600 2065.528564,860.293518 2056.038818,861.758484 
	C2049.251709,862.806274 2043.480469,860.576355 2039.851196,854.393127 
	C2036.339844,848.410767 2037.348999,842.628235 2041.123047,837.120056 
	C2041.763550,836.185120 2042.462158,835.290039 2043.470703,833.918457 
	C2041.603394,833.918457 2040.255127,833.836731 2038.919434,833.932068 
	C2031.486816,834.462585 2025.880493,831.483032 2022.575928,824.862244 
	C2019.194458,818.087097 2020.176025,811.538208 2025.107056,805.847778 
	C2035.881226,793.414307 2060.996582,788.796143 2071.894043,811.994324 
	C2069.393555,813.466858 2066.862305,814.957581 2064.235840,816.504395 
	C2062.239258,814.004822 2060.668701,811.424438 2058.506836,809.512939 
	C2056.532227,807.767273 2053.917480,806.746033 2051.218506,805.830872 
	C2055.186768,811.983582 2056.969482,818.051147 2053.372559,825.345459 
	C2053.186523,826.158203 2053.284912,826.426941 2053.383057,826.695679 
	C2053.605469,826.482910 2053.827881,826.270142 2054.050293,826.057373 
M2069.011475,844.559021 
	C2070.236328,843.441467 2071.867432,842.536438 2072.589844,841.155945 
	C2073.645752,839.137573 2075.184326,836.169739 2074.414307,834.733704 
	C2073.633545,833.276978 2070.143555,832.304321 2068.110107,832.660767 
	C2060.732422,833.953979 2054.363281,837.597229 2049.541504,843.351562 
	C2048.299805,844.833496 2047.408081,848.343628 2048.258301,849.421204 
	C2049.419678,850.893188 2052.752930,851.975708 2054.535645,851.377991 
	C2059.339111,849.767212 2063.814209,847.177368 2069.011475,844.559021 
M2045.007202,817.983521 
	C2045.697266,813.958374 2044.202393,811.055054 2040.236450,810.003601 
	C2035.725952,808.807617 2032.804321,811.683472 2031.208374,815.186462 
	C2030.392090,816.977844 2030.848755,820.225769 2032.056030,821.796021 
	C2033.091187,823.142395 2036.292603,823.916931 2038.034668,823.364258 
	C2040.511597,822.578430 2042.529419,820.345337 2045.007202,817.983521 
z"/>
<path fill="#FAFAFA" opacity="1.000000" stroke="none" 
	d="
M2177.936279,1305.011230 
	C2172.234131,1304.216064 2166.788086,1304.091064 2161.838623,1302.459961 
	C2155.280029,1300.298706 2151.751221,1295.105103 2151.609131,1287.985718 
	C2151.477051,1281.343994 2154.925537,1276.250610 2161.806152,1273.491943 
	C2164.993896,1272.213501 2168.428955,1271.551880 2171.714355,1270.621216 
	C2155.474121,1263.525757 2149.676758,1254.945312 2152.226074,1241.424194 
	C2152.958252,1241.362793 2153.754395,1241.249390 2154.552490,1241.238281 
	C2156.532471,1241.210449 2158.513184,1241.229248 2160.876221,1241.229248 
	C2161.126709,1247.528320 2161.379395,1253.704224 2167.099121,1257.094238 
	C2168.385742,1252.567383 2169.009033,1247.822266 2171.064697,1243.810913 
	C2173.443848,1239.167480 2178.409180,1237.769043 2183.449707,1237.634766 
	C2192.046143,1237.405762 2199.347412,1243.066406 2200.960938,1251.006836 
	C2202.935547,1260.725464 2198.992432,1265.916382 2185.674072,1271.341431 
	C2188.467529,1272.614258 2191.625488,1273.628296 2194.323730,1275.358521 
	C2204.433838,1281.841309 2203.736084,1296.847778 2192.837402,1301.815674 
	C2188.454590,1303.813354 2183.246094,1304.000122 2177.936279,1305.011230 
M2179.934814,1281.548584 
	C2174.727783,1282.234741 2169.332275,1282.297119 2164.370117,1283.794800 
	C2160.031494,1285.104614 2159.739502,1289.309570 2163.117188,1291.841309 
	C2168.010986,1295.509644 2184.555420,1295.608643 2189.655518,1292.000244 
	C2192.994873,1289.637573 2193.227051,1286.407104 2189.683105,1284.456055 
	C2187.018555,1282.989258 2183.763428,1282.594849 2179.934814,1281.548584 
M2177.748779,1252.170532 
	C2177.067383,1255.737183 2177.635010,1259.782104 2181.344238,1260.138916 
	C2184.612061,1260.453369 2188.342773,1258.380737 2191.394043,1256.564941 
	C2192.037598,1256.181885 2191.372314,1251.510498 2189.995605,1250.243530 
	C2186.855225,1247.353271 2182.863525,1247.060669 2179.185547,1249.930542 
	C2178.684082,1250.321777 2178.357178,1250.936279 2177.748779,1252.170532 
z"/>
<path fill="#FBFBFB" opacity="1.000000" stroke="none" 
	d="
M384.840149,1283.151001 
	C385.164581,1297.759399 376.015015,1305.603516 363.478912,1301.464111 
	C355.519653,1298.835938 350.854126,1291.648193 351.751007,1283.396240 
	C352.644501,1275.175415 358.316833,1270.180054 368.798584,1268.959473 
	C369.836975,1268.527954 370.185669,1268.127197 370.534393,1267.726440 
	C370.038116,1267.781250 369.541809,1267.835938 369.045502,1267.890747 
	C365.923065,1266.812866 362.593933,1266.119629 359.722229,1264.575439 
	C354.131622,1261.569214 351.325897,1256.621582 351.651520,1250.197510 
	C351.970673,1243.900269 355.375061,1239.463989 361.078217,1237.272827 
	C371.063660,1233.436646 381.313477,1233.526489 391.289978,1237.226318 
	C397.782227,1239.634155 401.353668,1244.685913 401.382996,1251.828247 
	C401.409668,1258.317749 397.724854,1263.399902 390.712646,1265.904175 
	C387.086517,1267.199219 383.200378,1267.766235 378.135315,1268.970337 
	C395.236725,1272.194580 402.155060,1282.289795 401.212555,1298.489746 
	C397.925568,1298.489746 395.023102,1298.489746 391.976349,1298.489746 
	C392.120209,1292.254883 391.407928,1286.574097 385.595947,1282.381592 
	C384.999390,1282.448975 384.919769,1282.800049 384.840149,1283.151001 
M385.155823,1245.975098 
	C378.199493,1244.568359 371.240814,1244.295166 364.593964,1247.106567 
	C363.055481,1247.757446 361.562378,1249.723633 361.143219,1251.364258 
	C360.887787,1252.364136 362.460327,1254.271973 363.668121,1255.128662 
	C369.140289,1259.010254 384.082916,1258.939453 389.603302,1255.212891 
	C393.001373,1252.919067 393.032959,1249.998413 389.580322,1247.724121 
	C388.495453,1247.009644 387.181274,1246.643188 385.155823,1245.975098 
M370.306244,1279.003540 
	C368.243652,1279.537964 366.018768,1279.745728 364.151550,1280.673218 
	C360.009918,1282.730835 359.736450,1287.718994 363.422302,1290.327271 
	C366.983582,1292.847412 372.491364,1292.292969 374.618286,1289.200073 
	C376.841156,1285.967651 375.353302,1281.666992 370.306244,1279.003540 
z"/>
<path fill="#FAFAFA" opacity="1.000000" stroke="none" 
	d="
M1856.659302,574.648071 
	C1852.491699,579.621094 1848.565918,584.331787 1844.503052,589.206787 
	C1845.725220,590.281555 1846.684082,591.124756 1847.699219,592.017456 
	C1848.227905,591.737610 1848.691650,591.580505 1849.046875,591.290466 
	C1853.257935,587.852112 1857.099487,583.786865 1861.737305,581.088196 
	C1868.131104,577.367737 1874.761475,578.549194 1879.713501,583.151367 
	C1885.001099,588.065552 1885.690063,594.077271 1883.267822,600.498230 
	C1879.995239,609.173279 1874.221436,615.945862 1866.420654,620.894287 
	C1860.280396,624.789429 1853.941284,625.315247 1847.753906,620.925537 
	C1842.174072,616.967041 1840.482788,610.941711 1842.562744,603.099792 
	C1842.772095,602.310425 1842.994995,601.524658 1843.243652,600.620239 
	C1841.640747,599.342041 1840.105469,598.117676 1838.265625,596.650513 
	C1835.726929,599.599304 1833.272217,602.450500 1830.655029,605.490662 
	C1827.938843,603.214539 1825.543457,601.207214 1822.843994,598.945007 
	C1825.260132,595.906250 1827.586548,592.980408 1830.121460,589.792297 
	C1825.053345,585.481201 1820.164062,581.322205 1814.058105,576.128357 
	C1817.920044,573.877808 1820.923584,571.422546 1824.363525,570.270508 
	C1831.428955,567.904236 1838.849243,566.588928 1845.894897,564.174194 
	C1852.152954,562.029358 1857.111328,562.631470 1861.131348,569.029297 
	C1859.893066,570.597290 1858.396973,572.491516 1856.659302,574.648071 
M1872.201782,599.442810 
	C1872.570679,598.705139 1873.242065,597.971802 1873.252930,597.228882 
	C1873.288818,594.758789 1873.087036,592.285217 1872.976318,589.812988 
	C1870.406372,590.132080 1866.917603,589.505798 1865.436523,590.945190 
	C1860.779785,595.470642 1856.562012,600.555237 1852.877563,605.907471 
	C1851.780640,607.500977 1853.000366,610.689270 1853.158691,613.146851 
	C1855.588501,612.899658 1858.776855,613.539856 1860.303101,612.235413 
	C1864.523071,608.628845 1868.049316,604.210449 1872.201782,599.442810 
M1838.549683,579.961243 
	C1839.459106,578.777283 1840.368530,577.593384 1841.277954,576.409424 
	C1841.039062,576.130005 1840.800049,575.850647 1840.561157,575.571228 
	C1837.681519,576.352722 1834.802002,577.134155 1831.922363,577.915649 
	C1834.071167,579.285217 1834.618530,584.250427 1838.549683,579.961243 
z"/>
<path fill="#FAFAFA" opacity="1.000000" stroke="none" 
	d="
M688.110229,563.355042 
	C691.313843,550.556396 702.039001,545.679260 712.483582,552.930908 
	C718.166809,556.876648 722.961304,562.646301 726.882629,568.453491 
	C732.254272,576.408508 731.517334,584.687500 726.456299,590.132751 
	C721.139771,595.852905 715.067810,596.406006 705.223083,591.924194 
	C703.733765,593.237183 702.158752,594.625671 700.396484,596.179321 
	C702.928589,599.294800 705.204407,602.094910 707.742859,605.218201 
	C705.071350,607.466125 702.599792,609.545837 699.917542,611.802795 
	C697.256958,608.714844 694.888977,605.966492 692.291931,602.952209 
	C687.299011,607.090515 682.325439,611.212769 677.192871,615.466858 
	C673.723022,612.917175 672.038940,609.876587 671.885925,605.449707 
	C671.622314,597.819702 671.252136,590.101379 669.823853,582.630981 
	C668.547668,575.956177 670.521851,571.764038 677.302612,568.843628 
	C682.637634,575.170715 688.351135,581.946655 694.171265,588.849060 
	C695.560120,587.644104 696.664612,586.685913 697.826355,585.677979 
	C692.492249,579.188843 687.648071,572.641479 688.110229,563.355042 
M720.247559,579.142517 
	C717.687866,571.220886 712.440369,565.340637 705.615479,560.966858 
	C704.088013,559.987976 700.886841,560.071838 699.408325,561.072815 
	C698.295959,561.825989 697.965698,565.090637 698.566406,566.783508 
	C701.196045,574.195251 706.086487,580.011963 712.893188,583.956787 
	C717.446472,586.595703 719.720459,585.198425 720.247559,579.142517 
M683.791626,592.618591 
	C682.738892,591.447937 681.686157,590.277344 679.711853,588.081848 
	C680.158203,592.669678 680.468811,595.862000 680.865173,599.935608 
	C683.010925,598.209839 684.507202,597.006409 686.139832,595.693298 
	C685.395996,594.746948 684.796204,593.983948 683.791626,592.618591 
z"/>
<path fill="#FFFFFF" opacity="1.000000" stroke="none" 
	d="
M2235.323975,1352.346924 
	C2233.904541,1353.288940 2232.148926,1354.211548 2232.126709,1355.174194 
	C2231.916748,1364.285034 2232.001465,1373.402832 2232.001465,1382.842773 
	C2243.964111,1382.842773 2255.557373,1382.842773 2267.524414,1382.842773 
	C2267.524414,1386.211548 2267.524414,1389.264893 2267.524414,1392.832153 
	C2255.955322,1392.832153 2244.237549,1392.832153 2232.088379,1392.832153 
	C2232.088379,1407.382080 2232.088379,1421.438354 2232.088379,1435.744141 
	C2227.905518,1435.744141 2224.152832,1435.744141 2220.024902,1435.744141 
	C2220.024902,1404.732910 2220.024902,1373.712158 2220.024902,1342.345703 
	C2236.693604,1342.345703 2253.553467,1342.345703 2270.658203,1342.345703 
	C2270.658203,1345.509644 2270.658203,1348.587036 2270.658203,1352.346069 
	C2258.954102,1352.346069 2247.373047,1352.346069 2235.323975,1352.346924 
z"/>
<path fill="#FAFAFA" opacity="1.000000" stroke="none" 
	d="
M2148.778320,1128.842651 
	C2142.129395,1130.714233 2136.793213,1129.133667 2132.773438,1124.102051 
	C2128.210449,1118.390259 2127.145020,1109.034668 2130.523682,1102.964600 
	C2133.398193,1097.799561 2137.956543,1095.286621 2143.780762,1096.138672 
	C2146.773193,1096.576660 2149.596436,1098.171631 2152.769775,1099.345093 
	C2159.133789,1093.133423 2166.011719,1092.072632 2171.968262,1096.778687 
	C2177.992676,1101.538452 2179.936035,1112.136597 2175.952393,1118.504883 
	C2172.128906,1124.617310 2165.492920,1125.836426 2157.484375,1122.149658 
	C2154.708496,1124.439819 2152.090332,1126.599976 2149.104492,1128.839355 
	C2148.737061,1128.918457 2148.778320,1128.842651 2148.778320,1128.842651 
M2148.900635,1114.873535 
	C2150.081055,1111.168701 2149.359619,1108.146973 2145.333252,1106.988647 
	C2142.415527,1106.148926 2139.433838,1106.692261 2138.249268,1109.914551 
	C2137.081543,1113.091187 2137.510498,1116.382202 2140.684326,1118.281616 
	C2144.079346,1120.313477 2146.679688,1118.748779 2148.900635,1114.873535 
M2161.546143,1113.231689 
	C2164.577148,1114.995483 2167.490967,1114.250488 2168.436035,1111.218872 
	C2168.990479,1109.439941 2167.639160,1106.570435 2166.269775,1104.915894 
	C2165.663086,1104.182617 2162.262451,1104.608276 2161.235107,1105.624756 
	C2159.294189,1107.545776 2157.819824,1110.265991 2161.546143,1113.231689 
z"/>
<path fill="#FAFAFA" opacity="1.000000" stroke="none" 
	d="
M387.566467,1128.265991 
	C395.885345,1125.731567 402.939636,1128.825073 405.989624,1136.031982 
	C409.457947,1144.227295 406.192535,1155.289307 399.088898,1159.408936 
	C392.364777,1163.308472 385.527527,1161.146729 379.505890,1153.217163 
	C371.468384,1157.392090 364.288361,1156.077759 360.355530,1149.711670 
	C356.238190,1143.046875 357.804901,1132.553101 363.619080,1127.851562 
	C369.342316,1123.223511 376.415649,1124.315918 382.742004,1131.034058 
	C384.179993,1130.193848 385.695251,1129.308472 387.566467,1128.265991 
M394.955109,1138.322266 
	C389.159851,1137.725342 384.462006,1142.146851 386.832062,1146.234253 
	C387.876648,1148.035645 390.427826,1149.806519 392.418030,1149.956177 
	C394.082977,1150.081543 396.659943,1148.206665 397.524353,1146.539185 
	C398.914734,1143.856812 398.759583,1140.736938 394.955109,1138.322266 
M374.392731,1144.328857 
	C375.078796,1142.511719 376.821106,1139.663940 376.247437,1139.076050 
	C374.697296,1137.487427 372.001801,1135.882446 370.074005,1136.197998 
	C368.802979,1136.406128 367.091339,1140.042847 367.315521,1141.938843 
	C367.730530,1145.448364 370.683533,1145.892212 374.392731,1144.328857 
z"/>
<path fill="#FAFAFA" opacity="1.000000" stroke="none" 
	d="
M500.924500,832.996826 
	C506.541809,838.878418 509.921112,845.366333 506.379364,853.650391 
	C503.336426,860.767944 496.429321,864.984375 488.686310,863.799988 
	C471.118073,861.112793 454.493530,841.373413 469.176270,819.972778 
	C471.690552,821.396851 474.236786,822.839050 477.067078,824.442139 
	C474.497803,829.916199 471.116760,835.178223 474.467926,841.695251 
	C477.927460,833.068787 483.582947,827.962341 494.075317,829.404663 
	C496.467865,829.916382 498.205170,830.797913 499.868774,832.044067 
	C500.210144,832.627197 500.625183,832.845703 501.012878,833.044617 
	C500.985596,833.024963 500.924500,832.996826 500.924500,832.996826 
M498.084473,848.365051 
	C498.053314,843.662903 494.661713,841.878601 491.032043,840.434814 
	C487.864288,839.174866 484.917511,840.477356 484.091003,843.322205 
	C483.381165,845.765320 483.536072,849.579834 485.024231,851.323486 
	C488.903503,855.868408 494.895813,854.549500 498.084473,848.365051 
z"/>
<path fill="#FAFAFA" opacity="1.000000" stroke="none" 
	d="
M595.843750,707.985840 
	C584.559082,705.135315 576.479126,698.622009 571.177307,688.831299 
	C567.555237,682.142517 568.483032,675.359131 573.085876,670.336731 
	C577.709229,665.291931 584.102112,664.003784 591.321289,667.013611 
	C599.843811,670.566895 606.621460,676.348328 611.348511,684.276672 
	C614.734924,689.956482 615.167847,695.945496 611.319641,701.670898 
	C607.726440,707.016907 602.625183,709.132202 595.843750,707.985840 
M595.947510,682.525635 
	C591.974548,680.283936 588.217224,677.374878 583.963928,676.000610 
	C580.204346,674.785889 578.027893,677.817688 579.116150,681.588501 
	C580.834595,687.542969 592.429993,697.412354 598.519653,698.103760 
	C603.282410,698.644531 605.598328,695.689392 603.228027,691.441650 
	C601.498840,688.342957 598.754456,685.810730 595.947510,682.525635 
z"/>
<path fill="#FAFAFA" opacity="1.000000" stroke="none" 
	d="
M1765.814331,493.235382 
	C1770.735229,498.914642 1771.095581,505.343414 1768.422241,511.285980 
	C1765.539062,517.694702 1761.846680,523.989380 1757.340820,529.354004 
	C1751.870239,535.867249 1744.058960,536.850098 1737.523560,533.404785 
	C1731.228394,530.086182 1728.469482,524.143555 1730.119141,515.532776 
	C1731.887573,506.302490 1736.354980,498.341980 1743.834351,492.478851 
	C1751.100464,486.783081 1758.373169,487.119446 1765.814331,493.235382 
M1741.279541,514.118958 
	C1740.875000,515.380981 1740.007812,516.703369 1740.162720,517.892456 
	C1740.480591,520.331909 1741.346436,522.699829 1741.986816,525.097229 
	C1744.345337,524.409363 1747.812744,524.466370 1748.864624,522.900757 
	C1752.769287,517.088318 1756.135498,510.860962 1759.090088,504.504120 
	C1759.751343,503.081451 1758.474243,499.788147 1757.056641,498.693481 
	C1756.030029,497.900787 1752.505737,498.646942 1751.468872,499.870728 
	C1747.873291,504.114532 1744.877686,508.866730 1741.279541,514.118958 
z"/>
<path fill="#FBFBFB" opacity="1.000000" stroke="none" 
	d="
M2148.856201,1129.325562 
	C2148.778320,1128.842651 2148.737061,1128.918457 2148.705078,1128.908203 
	C2152.437256,1128.545898 2156.208252,1127.854858 2159.964111,1127.928345 
	C2164.548096,1128.017822 2169.295654,1128.125610 2173.653076,1129.356323 
	C2179.540039,1131.019165 2182.968750,1135.634888 2183.839355,1141.708740 
	C2184.756836,1148.108276 2182.146240,1153.323730 2176.760986,1156.566650 
	C2167.312988,1162.256226 2156.996094,1164.205322 2146.172852,1161.459351 
	C2140.267090,1159.961060 2136.383057,1156.033447 2135.039062,1149.920410 
	C2133.692627,1143.797852 2135.536621,1138.666870 2140.416992,1134.880615 
	C2143.008057,1132.870361 2146.079590,1131.479126 2148.856201,1129.325562 
M2146.149902,1150.613281 
	C2155.106201,1153.873291 2163.450928,1151.549072 2171.434082,1147.475220 
	C2172.846924,1146.754395 2174.167969,1144.395508 2174.156006,1142.803223 
	C2174.146484,1141.532593 2172.252197,1139.532959 2170.836670,1139.137207 
	C2162.037842,1136.677124 2153.763672,1138.473999 2146.245850,1143.415405 
	C2143.778320,1145.037354 2142.867432,1147.567017 2146.149902,1150.613281 
z"/>
<path fill="#F9F9F9" opacity="1.000000" stroke="none" 
	d="
M2145.190918,998.127686 
	C2136.435059,1006.263794 2126.313965,1009.676270 2114.845703,1008.959900 
	C2109.095947,1008.600769 2104.815674,1005.565369 2102.393066,1000.322510 
	C2099.986084,995.113647 2100.059814,989.715088 2103.771240,985.274475 
	C2112.156494,975.242920 2123.351074,970.825928 2136.107422,972.580017 
	C2148.908936,974.340271 2153.345703,987.343445 2145.190918,998.127686 
M2120.020996,998.722412 
	C2125.760010,996.292664 2131.625000,994.108337 2137.151855,991.266174 
	C2138.594238,990.524536 2139.972656,987.470886 2139.570557,985.960693 
	C2139.186035,984.515869 2136.478271,982.814453 2134.738037,982.753235 
	C2126.154541,982.451477 2118.376953,985.079895 2112.161621,991.142700 
	C2109.026367,994.200928 2110.420898,997.944519 2114.732422,998.814941 
	C2116.164062,999.103882 2117.700684,998.872803 2120.020996,998.722412 
z"/>
<path fill="#F9F9F9" opacity="1.000000" stroke="none" 
	d="
M1002.127075,426.938110 
	C1001.662659,436.178864 998.283569,441.154388 991.283813,443.391815 
	C984.704956,445.494751 977.926819,443.116638 973.200439,436.259064 
	C967.231995,427.599182 963.238159,418.125488 965.910950,407.326385 
	C968.924683,395.149933 982.785645,391.399658 991.586426,400.350220 
	C998.643616,407.527466 1001.626648,416.550385 1002.127075,426.938110 
M987.731812,412.944824 
	C986.975220,411.664185 986.500122,410.008942 985.401550,409.183441 
	C983.322754,407.621368 980.885925,406.535797 978.597900,405.252197 
	C977.540161,407.684021 975.172485,410.433197 975.670349,412.488190 
	C977.166870,418.665527 979.391052,424.762360 982.179810,430.476501 
	C983.096741,432.355347 986.604004,432.969940 988.926819,434.162628 
	C989.935974,431.585022 991.994812,428.890778 991.724182,426.455414 
	C991.239868,422.097412 989.352295,417.895325 987.731812,412.944824 
z"/>
<path fill="#FAFAFA" opacity="1.000000" stroke="none" 
	d="
M1960.457520,712.531982 
	C1966.213013,705.390686 1972.648682,699.803345 1981.457031,697.621338 
	C1988.011963,695.997498 1993.696411,697.578064 1998.007812,702.832581 
	C2002.118896,707.842773 2002.345337,713.607849 1999.511841,719.161926 
	C1994.525879,728.935242 1986.441162,735.479736 1976.080688,738.745117 
	C1969.817749,740.719055 1963.808838,739.311523 1959.412109,733.932495 
	C1955.031860,728.573853 1955.021362,722.715637 1958.015747,716.701538 
	C1958.679443,715.368469 1959.487061,714.107117 1960.457520,712.531982 
M1980.880981,724.472900 
	C1984.035156,721.106201 1987.433838,717.925110 1990.207397,714.269531 
	C1991.144653,713.034180 1991.135742,710.259399 1990.370972,708.819153 
	C1989.778442,707.703308 1987.097290,706.744812 1985.754883,707.133362 
	C1977.075317,709.645813 1970.649292,715.211365 1966.443604,723.131592 
	C1965.778442,724.384155 1966.156250,727.024780 1967.104004,728.062927 
	C1968.035889,729.083496 1970.528198,729.547363 1971.944092,729.076782 
	C1974.869751,728.104370 1977.534912,726.348267 1980.880981,724.472900 
z"/>
<path fill="#FBFBFB" opacity="1.000000" stroke="none" 
	d="
M1143.400879,366.622559 
	C1149.810547,375.988068 1151.715698,386.036041 1149.943726,396.754761 
	C1148.729980,404.096832 1144.131714,408.777252 1137.571045,410.007385 
	C1130.596924,411.315063 1124.790405,408.645203 1120.905396,401.895782 
	C1116.005981,393.384216 1114.455322,384.102570 1116.268311,374.513489 
	C1117.437988,368.327545 1120.920410,363.572815 1127.436279,361.720367 
	C1133.678833,359.945618 1138.864136,361.604889 1143.400879,366.622559 
M1134.856567,372.417145 
	C1130.531982,369.552032 1128.162354,370.192963 1126.836670,374.931030 
	C1124.758789,382.357849 1126.573853,389.473175 1129.777588,396.097839 
	C1130.792847,398.197296 1133.818481,399.324585 1135.924072,400.896729 
	C1137.293701,398.625397 1139.624512,396.446747 1139.854126,394.065491 
	C1140.564087,386.702148 1139.126343,379.563049 1134.856567,372.417145 
z"/>
<path fill="#FAFAFA" opacity="1.000000" stroke="none" 
	d="
M1441.257202,374.320282 
	C1447.367676,367.401093 1453.165161,365.529114 1459.942261,368.057617 
	C1466.440674,370.482086 1470.463501,376.291138 1469.842407,384.757324 
	C1469.329712,391.745544 1468.193359,398.948395 1465.763916,405.471680 
	C1462.501099,414.233307 1455.424805,417.504089 1447.101074,415.865295 
	C1440.602539,414.585846 1435.720093,408.226776 1435.161255,399.877869 
	C1434.560059,390.895569 1436.160400,382.355408 1441.257202,374.320282 
M1452.308472,377.300720 
	C1445.641479,384.547913 1445.142334,393.390961 1446.245972,402.432892 
	C1446.445435,404.066132 1448.645508,406.250214 1450.296021,406.655090 
	C1451.573853,406.968567 1454.100586,405.278656 1454.925537,403.827545 
	C1458.959961,396.731079 1460.443237,389.001678 1459.042358,380.899658 
	C1458.493408,377.725006 1456.660889,375.803436 1452.308472,377.300720 
z"/>
<path fill="#FAFAFA" opacity="1.000000" stroke="none" 
	d="
M827.023254,503.272461 
	C824.202576,497.315063 820.733093,491.566467 818.731445,485.345551 
	C816.417114,478.152649 819.583191,470.989288 825.263611,467.433441 
	C831.345032,463.626556 837.929810,464.108612 844.123901,469.385590 
	C851.603760,475.757843 856.060913,484.079987 857.753662,493.685974 
	C859.028503,500.920105 856.009094,507.064178 850.203552,510.273712 
	C843.932312,513.740723 838.022034,512.565735 832.554565,508.415985 
	C830.712280,507.017761 829.151367,505.248871 827.176025,503.437622 
	C826.890320,503.225891 827.023254,503.272461 827.023254,503.272461 
M829.228271,485.067719 
	C832.501343,490.180176 835.486511,495.519409 839.225098,500.265198 
	C840.329102,501.666626 844.199646,502.450470 845.635254,501.583862 
	C847.035461,500.738678 848.004272,496.994904 847.310181,495.268280 
	C845.115479,489.809113 842.390015,484.480927 839.193787,479.539368 
	C837.431396,476.814667 834.709595,473.322540 830.650085,475.371094 
	C826.792969,477.317505 828.526611,481.119293 829.228271,485.067719 
z"/>
<path fill="#FAFAFA" opacity="1.000000" stroke="none" 
	d="
M411.947388,1116.572754 
	C409.162689,1122.138916 404.561798,1124.673828 399.097504,1125.478760 
	C389.436829,1126.901978 380.193024,1125.340820 371.879578,1120.048828 
	C365.361420,1115.899658 362.726349,1109.058105 364.624329,1102.504639 
	C366.669403,1095.443237 372.278259,1091.355591 380.245605,1090.994995 
	C388.681702,1090.613037 396.820160,1091.732544 404.269226,1095.936523 
	C412.302826,1100.470337 414.791962,1107.157715 411.947388,1116.572754 
M397.149139,1104.055176 
	C391.137573,1103.273438 385.140106,1102.179443 379.105560,1101.906860 
	C377.369904,1101.828491 374.145660,1104.032715 374.063324,1105.344604 
	C373.945160,1107.227661 375.710999,1110.522705 377.321167,1110.992554 
	C383.720856,1112.860474 390.330414,1114.278320 396.954895,1114.952148 
	C399.100250,1115.170410 401.529236,1112.601074 403.828491,1111.306763 
	C402.284332,1109.210205 400.764404,1107.094849 399.172791,1105.034912 
	C398.897400,1104.678467 398.317719,1104.557373 397.149139,1104.055176 
z"/>
<path fill="#FAFAFA" opacity="1.000000" stroke="none" 
	d="
M499.942444,831.679443 
	C498.205170,830.797913 496.467865,829.916382 494.521729,829.022461 
	C487.701538,826.153076 482.350067,821.853516 479.133057,815.291260 
	C476.418152,809.753113 476.845123,804.277222 480.430328,799.281128 
	C484.076538,794.200012 489.355133,792.363708 495.356628,793.329224 
	C504.690399,794.830750 512.555298,799.403076 519.021362,806.193665 
	C524.655945,812.111084 525.745056,819.164246 522.455933,825.388000 
	C519.154297,831.635498 513.727783,834.010681 505.087219,832.970581 
	C503.934113,832.831726 502.790344,832.615295 501.283356,832.715820 
	C500.924500,832.996826 500.985596,833.024963 501.136139,832.687927 
	C500.838623,832.127075 500.390533,831.903259 499.942444,831.679443 
M502.429413,821.348267 
	C503.835327,821.842102 505.300201,822.865295 506.634491,822.716614 
	C509.194305,822.431335 511.679993,821.481079 514.196472,820.806763 
	C513.434875,818.452087 513.394958,815.002136 511.782104,813.939148 
	C505.928528,810.081543 499.651245,806.801025 493.282104,803.844971 
	C491.943909,803.223877 488.686523,804.370422 487.865509,805.677368 
	C487.066498,806.949341 487.547058,810.273499 488.704529,811.300415 
	C492.746277,814.886292 497.323853,817.868164 502.429413,821.348267 
z"/>
<path fill="#FAFAFA" opacity="1.000000" stroke="none" 
	d="
M1269.297363,397.855347 
	C1258.955566,391.052887 1258.456055,365.446777 1266.342041,356.141754 
	C1273.328369,347.898224 1286.859619,348.829376 1291.572266,358.530487 
	C1296.860596,369.417023 1296.722168,380.883820 1291.682861,391.829102 
	C1287.712402,400.452545 1278.384766,402.730103 1269.297363,397.855347 
M1284.021362,383.143188 
	C1283.653687,376.729156 1283.559082,370.278961 1282.717773,363.927673 
	C1282.518311,362.421692 1279.935547,360.441956 1278.221802,360.182739 
	C1276.915771,359.985199 1274.517334,361.844208 1273.866455,363.337952 
	C1270.326172,371.464691 1270.294312,379.811157 1273.869873,387.945801 
	C1274.474854,389.322205 1276.648926,390.962494 1277.942749,390.839966 
	C1279.542969,390.688416 1281.178467,389.002838 1282.419556,387.635895 
	C1283.250000,386.721283 1283.420898,385.207855 1284.021362,383.143188 
z"/>
<path fill="#FAFAFA" opacity="1.000000" stroke="none" 
	d="
M1597.941406,418.925507 
	C1604.895386,412.870239 1610.832153,411.790680 1617.302612,415.196045 
	C1623.652954,418.538208 1626.864014,425.521118 1624.618286,435.156067 
	C1623.071289,441.793182 1620.146851,448.371399 1616.580566,454.207733 
	C1612.349487,461.132050 1604.753052,463.195557 1597.890503,460.832245 
	C1591.343506,458.577545 1587.959351,453.132538 1588.000488,444.672729 
	C1588.047607,434.983582 1591.381104,426.508789 1597.941406,418.925507 
M1601.325684,433.006561 
	C1600.245483,437.648956 1598.852905,442.252411 1598.265991,446.956329 
	C1598.077881,448.464233 1599.662598,450.861969 1601.103271,451.686005 
	C1602.192017,452.308746 1604.921631,451.628937 1605.924805,450.578064 
	C1611.904297,444.313934 1614.438843,436.472076 1614.780273,427.997162 
	C1614.843750,426.421021 1613.168823,423.734283 1611.840820,423.406891 
	C1610.193604,423.000824 1607.579346,424.021545 1606.272217,425.320831 
	C1604.334473,427.247040 1603.178223,429.959534 1601.325684,433.006561 
z"/>
<path fill="#FAFAFA" opacity="1.000000" stroke="none" 
	d="
M451.071838,956.141479 
	C455.475708,968.184265 448.978699,977.828796 436.679321,978.002991 
	C426.442108,978.148071 417.366516,974.919250 409.882996,967.930359 
	C404.197662,962.620728 402.921875,956.248657 405.727081,949.843872 
	C408.632660,943.209778 413.983154,940.671021 420.952301,940.991150 
	C433.101501,941.549194 443.677368,945.309814 451.071838,956.141479 
M414.936798,958.266052 
	C420.693939,964.801697 428.489960,966.989746 436.655609,967.807678 
	C438.624451,968.004944 441.965515,966.314819 442.591675,964.689697 
	C443.184296,963.151672 441.591400,959.380310 440.002930,958.637512 
	C433.637482,955.660950 427.044678,952.896301 420.248810,951.211731 
	C415.780579,950.104126 413.782013,953.025269 414.936798,958.266052 
z"/>
<path fill="#F9F9F9" opacity="1.000000" stroke="none" 
	d="
M561.764771,724.651489 
	C555.651306,718.725403 549.825684,712.605957 543.707581,706.179260 
	C549.209778,699.626099 554.509094,693.314575 560.070618,686.690674 
	C562.571655,688.789856 564.818176,690.675476 567.492798,692.920349 
	C563.967102,697.238159 560.547791,701.425598 556.935547,705.849426 
	C558.121643,707.258118 559.255432,708.604553 560.579468,710.177063 
	C561.441528,709.358093 562.126160,708.672119 562.847778,708.027588 
	C570.437500,701.248901 579.106628,700.890015 585.661255,707.075012 
	C592.308777,713.347534 592.757019,723.410767 586.678589,731.022949 
	C585.748718,732.187500 584.650391,733.228516 583.559937,734.252014 
	C576.246521,741.116211 573.997375,740.683655 569.828369,731.754761 
	C572.466003,730.051758 575.325684,728.632812 577.655457,726.605042 
	C581.556763,723.209412 581.935852,718.710022 579.032410,715.658997 
	C576.018127,712.491394 571.826477,712.676819 568.114319,716.563782 
	C565.836182,718.949158 564.056213,721.810425 561.764771,724.651489 
z"/>
<path fill="#F9F9F9" opacity="1.000000" stroke="none" 
	d="
M1961.308350,684.029053 
	C1961.813843,685.467957 1962.553345,686.568604 1963.217285,687.713196 
	C1967.453613,695.015991 1966.726196,702.582764 1961.302002,707.836304 
	C1955.680298,713.281128 1946.955688,714.235840 1940.230225,709.654480 
	C1937.556396,707.833069 1935.157837,705.296143 1933.322021,702.613953 
	C1927.788330,694.528870 1928.652344,692.343750 1937.907104,689.284363 
	C1939.303467,692.354980 1940.359497,695.642639 1942.173462,698.438660 
	C1944.831909,702.536499 1949.204834,703.409912 1952.481445,701.057495 
	C1955.694336,698.750854 1956.206177,694.943604 1953.673340,690.871338 
	C1952.717041,689.333435 1951.454346,687.975098 1950.252441,686.604004 
	C1949.049683,685.231995 1947.748413,683.946228 1945.996094,682.102661 
	C1953.144531,677.553406 1960.307983,672.994629 1967.828125,668.208862 
	C1973.269897,674.681641 1978.580688,680.998596 1984.068359,687.526062 
	C1981.527466,689.676270 1979.262939,691.592590 1976.615356,693.833191 
	C1972.952148,689.524231 1969.447632,685.402039 1965.768799,681.074646 
	C1964.234375,682.023987 1962.870972,682.867615 1961.308350,684.029053 
z"/>
<path fill="#F9F9F9" opacity="1.000000" stroke="none" 
	d="
M826.703125,503.683838 
	C827.023254,503.272461 826.890320,503.225891 826.897095,503.187805 
	C826.883911,504.234314 826.513123,505.467102 826.898804,506.380371 
	C830.402283,514.676392 828.656799,521.592041 821.394958,526.933105 
	C816.445801,530.573181 810.996826,532.709106 804.304626,531.754822 
	C803.785339,528.893311 803.266907,526.036072 802.776062,523.330933 
	C806.510864,522.428223 809.991516,522.004700 813.125488,520.729126 
	C817.539124,518.932678 819.103760,515.297546 817.500427,512.103882 
	C815.830933,508.778442 812.339966,507.952179 808.010437,509.966003 
	C805.930359,510.933563 803.932434,512.077759 801.599487,513.297791 
	C800.088013,510.682617 798.695679,508.273621 797.222961,505.725494 
	C799.606995,504.002014 802.343079,502.748108 803.937561,500.633423 
	C805.130798,499.050873 804.852966,496.359070 805.230103,494.161163 
	C802.991028,494.198883 800.183777,493.407654 798.642700,494.463837 
	C796.180054,496.151581 794.558289,499.066345 792.441162,501.631866 
	C792.515259,501.638184 792.132141,501.724792 791.936035,501.571716 
	C784.611511,495.856323 784.299377,493.075104 792.024353,487.541992 
	C795.820862,484.822662 801.028809,482.637848 805.561401,482.704529 
	C813.164185,482.816437 816.532471,488.940186 816.049316,498.690735 
	C819.515320,500.503448 822.949158,502.299316 826.703125,503.683838 
z"/>
<path fill="#F9F9F9" opacity="1.000000" stroke="none" 
	d="
M1711.450439,488.459808 
	C1712.364136,487.045197 1713.056641,485.943756 1713.855225,484.673523 
	C1716.544678,485.892914 1718.990479,487.672211 1721.603882,487.967529 
	C1723.576050,488.190430 1725.762695,486.514618 1727.853760,485.683868 
	C1726.781982,483.868561 1726.121582,481.151306 1724.549072,480.433929 
	C1721.666626,479.119141 1718.245728,478.984650 1715.016479,478.351562 
	C1715.325073,468.958160 1716.975098,467.749023 1725.990845,470.598053 
	C1731.232178,472.254333 1735.693115,474.966095 1738.025635,480.239075 
	C1741.133667,487.264740 1737.390259,494.067108 1728.450928,497.501068 
	C1731.301025,503.811462 1730.100220,509.519928 1725.076294,514.103271 
	C1719.988281,518.744995 1713.990234,518.985413 1707.884155,516.260864 
	C1705.486572,515.190979 1703.110107,513.877197 1701.066772,512.245300 
	C1693.216309,505.975342 1693.321655,504.208130 1701.021484,498.473083 
	C1704.411011,501.427216 1707.418823,504.780975 1711.125366,506.929077 
	C1712.669312,507.823914 1716.949097,506.866119 1717.750854,505.468842 
	C1718.823730,503.599243 1718.597778,499.890198 1717.344849,498.050018 
	C1715.683594,495.610229 1712.491821,494.212555 1709.693481,492.174561 
	C1710.176514,491.104828 1710.702881,489.938904 1711.450439,488.459808 
z"/>
<path fill="#F9F9F9" opacity="1.000000" stroke="none" 
	d="
M1567.107910,448.846069 
	C1561.180786,446.666229 1555.629517,444.600128 1550.184692,442.573639 
	C1550.340210,437.431824 1553.171509,435.079895 1557.396729,433.337067 
	C1563.051270,431.004608 1568.598022,428.309296 1573.911743,425.279694 
	C1579.675415,421.993500 1582.218872,417.089142 1580.586304,413.834564 
	C1578.822144,410.317322 1573.959961,409.350006 1567.641724,411.257996 
	C1567.187500,411.395142 1566.730591,411.523499 1565.725342,411.815857 
	C1565.505859,410.285126 1565.225464,408.911499 1565.132935,407.525360 
	C1565.033447,406.037720 1565.110352,404.538361 1565.107422,403.044098 
	C1570.982422,398.273560 1584.790771,401.072083 1589.202759,407.619812 
	C1593.776245,414.407501 1592.253174,423.882874 1584.757202,429.759888 
	C1580.259033,433.286530 1575.056396,435.914612 1569.675781,439.253448 
	C1574.248901,441.010651 1578.607788,442.685608 1583.415894,444.533081 
	C1582.380615,447.467316 1581.414307,450.206055 1580.266846,453.458557 
	C1575.807983,451.889282 1571.645996,450.424530 1567.107910,448.846069 
z"/>
<path fill="#FAFAFA" opacity="1.000000" stroke="none" 
	d="
M946.308472,417.926758 
	C942.725464,420.385223 939.537231,422.807831 936.396301,425.194580 
	C934.777344,423.777527 932.580139,421.854340 930.230591,419.797791 
	C931.404480,418.015839 932.238525,416.389771 933.400085,415.047150 
	C939.318787,408.205383 948.730591,405.747040 955.331787,409.211975 
	C961.989075,412.706329 965.077515,421.462158 962.518127,430.647491 
	C961.278931,435.094757 959.384216,439.359375 957.378113,444.816772 
	C960.254578,443.824524 962.437988,443.068726 964.623169,442.318329 
	C966.798889,441.571198 968.976379,440.829529 971.530334,439.956573 
	C972.608765,442.870728 973.626465,445.620941 974.851868,448.932251 
	C964.835449,452.606201 954.952698,456.231110 944.805786,459.952942 
	C942.503479,456.379456 941.739929,453.216400 943.891235,449.026611 
	C947.283020,442.420990 950.245422,435.524323 952.627197,428.492615 
	C954.591919,422.692200 951.946106,418.732544 946.308472,417.926758 
z"/>
<path fill="#F9F9F9" opacity="1.000000" stroke="none" 
	d="
M2104.296387,954.992188 
	C2112.496582,955.789673 2120.242676,956.569702 2128.805176,957.432007 
	C2126.566895,951.005493 2124.577148,945.292542 2122.413574,939.080383 
	C2125.243164,937.979004 2127.947754,936.926270 2131.337891,935.606750 
	C2135.041016,945.722839 2138.642090,955.559937 2142.687256,966.610596 
	C2138.334717,967.055237 2134.637695,967.988525 2131.038818,967.700012 
	C2118.453369,966.691345 2105.893066,965.336609 2093.349609,963.884705 
	C2091.954102,963.723145 2090.229980,962.368164 2089.532471,961.089722 
	C2088.293213,958.819214 2087.723633,956.183167 2086.629639,952.985413 
	C2092.758789,953.693787 2098.300537,954.334229 2104.296387,954.992188 
z"/>
<path fill="#F9F9F9" opacity="1.000000" stroke="none" 
	d="
M393.437866,987.339844 
	C395.855316,980.762939 398.105133,974.540466 400.793396,967.105347 
	C404.323730,969.548340 407.663086,971.253479 410.234406,973.749756 
	C418.588379,981.860046 426.506317,990.421875 434.918335,998.468811 
	C438.287079,1001.691345 439.259674,1004.649475 436.939850,1008.704468 
	C436.222290,1009.958740 435.855133,1011.413452 435.383667,1012.631470 
	C425.154327,1003.150024 415.002991,993.740845 404.925537,984.400146 
	C403.102417,989.291565 400.938477,995.097412 398.621613,1001.313416 
	C395.598450,1000.254578 392.850952,999.292236 389.617279,998.159668 
	C390.901764,994.479736 392.085999,991.087036 393.437866,987.339844 
z"/>
<path fill="#F9F9F9" opacity="1.000000" stroke="none" 
	d="
M1095.896973,389.399811 
	C1095.286865,386.409607 1094.759644,383.836548 1094.138428,380.804871 
	C1092.035522,382.276184 1090.317993,383.477844 1088.190063,384.966675 
	C1086.912476,382.285004 1085.666870,379.670288 1084.181519,376.552551 
	C1089.746216,372.378693 1094.186157,366.441437 1102.577393,367.358582 
	C1105.293945,382.753906 1107.995972,398.066742 1110.819702,414.069275 
	C1107.466553,414.734161 1104.193970,415.383118 1100.473267,416.120880 
	C1098.926758,407.067596 1097.453247,398.442291 1095.896973,389.399811 
z"/>
<path fill="#F9F9F9" opacity="1.000000" stroke="none" 
	d="
M1411.818726,403.611633 
	C1413.472168,393.907532 1415.040283,384.631073 1416.711914,374.741943 
	C1414.210815,375.192932 1412.212036,375.553345 1409.625244,376.019836 
	C1409.384766,372.920441 1409.161865,370.046417 1408.907715,366.770905 
	C1415.563599,365.139618 1421.545776,360.913940 1429.223511,364.702484 
	C1426.556152,379.907104 1423.848267,395.342468 1421.042725,411.335175 
	C1417.561279,410.773804 1414.402832,410.264465 1410.849121,409.691437 
	C1411.182861,407.558655 1411.458130,405.798920 1411.818726,403.611633 
z"/>
<path fill="#FAFAFA" opacity="1.000000" stroke="none" 
	d="
M369.042603,1268.164062 
	C369.541809,1267.835938 370.038116,1267.781250 370.534393,1267.726440 
	C370.185669,1268.127197 369.836975,1268.527954 369.200500,1268.948975 
	C368.955017,1268.791870 368.997375,1268.614624 369.042603,1268.164062 
z"/>

<path fill="#DFDEDF" opacity="1.000000" stroke="none" 
	d="
M2049.175049,508.087219 
	C2068.935303,487.919250 2088.920898,467.864594 2108.947510,447.850800 
	C2109.508057,447.290771 2110.506592,447.168701 2112.545410,446.331146 
	C2091.250000,467.814148 2070.944580,488.298340 2050.328125,508.906616 
	C2049.813232,508.755859 2049.609863,508.481018 2049.175049,508.087219 
z"/>
<path fill="#E3E3E3" opacity="1.000000" stroke="none" 
	d="
M645.090820,380.826599 
	C633.290894,364.677856 621.602844,348.310272 609.928162,331.933167 
	C606.064026,326.512604 602.222778,321.075623 598.397705,315.627380 
	C597.543762,314.411041 596.801880,313.115967 596.008423,311.857117 
	C596.520752,311.520477 597.033020,311.183807 597.545349,310.847168 
	C613.643555,333.674469 629.741760,356.501770 645.916260,379.666382 
	C645.731079,380.203827 645.469482,380.403931 645.090820,380.826599 
z"/>
<path fill="#E3E3E3" opacity="1.000000" stroke="none" 
	d="
M378.633514,653.694580 
	C355.815765,638.013428 333.171967,622.147583 310.528137,606.281799 
	C310.899963,605.741211 311.271790,605.200684 311.643616,604.660156 
	C333.978882,620.253052 356.314148,635.845947 378.823975,651.723755 
	C378.934845,652.509155 378.871155,653.009521 378.633514,653.694580 
z"/>
<path fill="#DFDEDF" opacity="1.000000" stroke="none" 
	d="
M990.496582,216.037384 
	C984.154663,193.850174 978.073914,171.667068 972.017395,149.477356 
	C970.643982,144.445511 969.354492,139.390732 968.026306,134.346527 
	C968.640198,134.178162 969.254150,134.009781 969.868042,133.841415 
	C977.215759,160.974747 984.563477,188.108078 991.878662,215.635330 
	C991.486267,216.032516 991.126465,216.035797 990.496582,216.037384 
z"/>
<path fill="#D3D2D3" opacity="1.000000" stroke="none" 
	d="
M1372.382080,187.148651 
	C1373.174194,173.667542 1374.158081,160.278488 1375.282715,146.901276 
	C1376.463501,132.857559 1377.760986,118.823524 1379.054077,104.789551 
	C1379.261841,102.534721 1379.713135,100.302345 1380.052002,98.059593 
	C1380.572388,98.088585 1381.092773,98.117577 1381.613159,98.146568 
	C1381.278198,103.020386 1381.020996,107.901024 1380.594971,112.766869 
	C1378.425171,137.544708 1376.211670,162.318741 1374.043945,187.528702 
	C1373.594849,187.724167 1373.115356,187.485031 1372.382080,187.148651 
z"/>
<path fill="#E3E3E3" opacity="1.000000" stroke="none" 
	d="
M279.184418,816.644897 
	C256.825958,806.576904 234.613785,796.285034 212.394226,786.009094 
	C211.790192,785.729736 211.106354,785.622986 210.459717,785.435730 
	C210.911591,784.806580 211.363464,784.177368 211.815338,783.548157 
	C234.482315,794.134399 257.149292,804.720581 280.022888,815.587219 
	C279.929565,816.052795 279.629639,816.237915 279.184418,816.644897 
z"/>
<path fill="#DFDEDF" opacity="1.000000" stroke="none" 
	d="
M1563.423828,211.025986 
	C1568.911743,189.239838 1574.658691,167.447464 1580.438599,145.663879 
	C1581.422485,141.955276 1582.548462,138.284363 1583.608765,134.596054 
	C1584.216064,134.768158 1584.823364,134.940262 1585.430664,135.112381 
	C1578.642944,160.181610 1571.855225,185.250839 1564.920410,210.677612 
	C1564.413574,211.031006 1564.053589,211.026855 1563.423828,211.025986 
z"/>
<path fill="#D3D2D3" opacity="1.000000" stroke="none" 
	d="
M1179.476562,181.041794 
	C1176.660034,153.443481 1174.122437,125.834030 1171.584717,98.224586 
	C1172.305542,98.159225 1173.026367,98.093872 1173.747070,98.028519 
	C1176.167358,125.401337 1178.587646,152.774155 1180.938965,180.592133 
	C1180.498413,181.035080 1180.126953,181.032867 1179.476562,181.041794 
z"/>
<path fill="#DFDEDF" opacity="1.000000" stroke="none" 
	d="
M219.023178,998.609131 
	C198.238449,993.410828 177.451584,987.946716 156.669861,982.463074 
	C152.789597,981.439270 148.930145,980.336609 145.061081,979.270325 
	C145.238205,978.651855 145.415329,978.033386 145.592468,977.414917 
	C169.838104,983.922424 194.083740,990.429932 218.683563,997.092285 
	C219.032761,997.610352 219.027786,997.973511 219.023178,998.609131 
z"/>
<path fill="#D3D2D3" opacity="1.000000" stroke="none" 
	d="
M190.949707,1186.741699 
	C165.381165,1184.827026 139.826614,1182.541504 114.272049,1180.255981 
	C114.330849,1179.568726 114.389648,1178.881470 114.448448,1178.194214 
	C139.662903,1180.439941 164.877365,1182.685669 190.513916,1184.909180 
	C190.945236,1185.381714 190.954453,1185.876221 190.949707,1186.741699 
z"/>
<path fill="#DFDEDF" opacity="1.000000" stroke="none" 
	d="
M2337.958008,995.519775 
	C2359.831299,989.299011 2381.699707,983.347595 2403.578125,977.431458 
	C2403.946289,977.331848 2404.431152,977.663025 2405.152100,979.075745 
	C2383.024658,985.029053 2360.897217,990.982361 2338.373047,996.908630 
	C2337.969238,996.518494 2337.961914,996.155334 2337.958008,995.519775 
z"/>
<path fill="#E3E3E3" opacity="1.000000" stroke="none" 
	d="
M2363.950195,1184.579102 
	C2387.815430,1182.052490 2411.675537,1179.783325 2435.535889,1177.514160 
	C2435.600342,1178.191772 2435.664795,1178.869385 2435.729248,1179.546997 
	C2412.111328,1181.694946 2388.493652,1183.842773 2364.427246,1185.927734 
	C2363.967529,1185.521851 2363.956543,1185.179199 2363.950195,1184.579102 
z"/>
<path fill="#DFDEDF" opacity="1.000000" stroke="none" 
	d="
M221.390488,998.029907 
	C221.298981,997.981018 221.618164,997.780579 221.806503,997.787231 
	C221.880356,997.985107 221.709396,998.080078 221.390488,998.029907 
z"/>
</svg>