<svg version="1.1" id="Layer_1" xmlns="http://www.w3.org/2000/svg" xmlns:xlink="http://www.w3.org/1999/xlink" x="0px" y="0px"
	 width="100%" viewBox="0 0 2546 1581" xml:space="preserve">

<path fill="#29516A" opacity="1.000000" stroke="none" 
	d="
M1972.937134,1445.786377 
	C1974.227173,1455.989258 1974.965454,1466.180542 1971.825684,1476.806396 
	C1968.573486,1479.669434 1965.952148,1482.264282 1962.970581,1484.341675 
	C1946.598511,1495.748779 1928.442383,1501.968872 1908.428223,1501.971191 
	C1559.153809,1502.010742 1209.879395,1502.007202 860.604980,1501.958984 
	C851.814575,1501.957764 843.010010,1501.556763 834.237000,1500.969238 
	C816.564941,1499.785767 798.897766,1498.487305 781.251465,1496.970459 
	C763.785767,1495.469238 746.320129,1493.886475 728.905701,1491.891968 
	C708.221985,1489.523315 687.570984,1486.836304 666.945984,1483.995483 
	C643.699341,1480.793701 620.489380,1477.319458 597.287170,1473.807617 
	C594.766785,1473.426147 592.402588,1472.012573 590.436890,1471.036865 
	C596.389404,1470.986938 601.872070,1471.041870 607.352234,1470.949829 
	C612.297546,1470.866821 619.360474,1472.508179 621.628906,1469.956787 
	C624.261169,1466.996094 622.508484,1460.276245 622.989075,1455.219482 
	C623.383545,1451.067627 621.898438,1449.873047 617.735840,1449.906006 
	C596.476257,1450.073853 575.214294,1449.932373 554.128174,1449.603516 
	C556.066895,1448.146851 557.830566,1446.985840 560.025024,1445.839844 
	C561.289001,1445.863037 562.122192,1445.878662 562.955383,1445.878662 
	C1031.450317,1445.879761 1499.945190,1445.880005 1968.440063,1445.876221 
	C1969.939087,1445.876221 1971.438110,1445.817627 1972.937134,1445.786377 
M939.726135,1455.145630 
	C945.637756,1455.413208 951.555969,1455.916260 957.455322,1455.749756 
	C958.636536,1455.716431 960.714478,1453.058716 960.617004,1451.741333 
	C960.518372,1450.408447 958.327148,1448.311890 956.889221,1448.166504 
	C952.283264,1447.701172 947.597656,1447.861816 942.950439,1448.014771 
	C938.556580,1448.159424 937.530579,1450.067871 939.726135,1455.145630 
M1229.642944,1454.888916 
	C1236.014282,1455.215332 1242.386230,1455.690430 1248.756470,1455.667114 
	C1249.495117,1455.664429 1250.921509,1452.810425 1250.751709,1451.436035 
	C1250.596436,1450.178223 1248.793823,1448.268921 1247.572998,1448.151978 
	C1243.289185,1447.741943 1238.928101,1448.206055 1234.625000,1447.914307 
	C1229.794678,1447.586792 1228.228149,1449.633179 1229.642944,1454.888916 
M768.406067,1456.025879 
	C769.734497,1456.025391 771.066895,1455.958008 772.390503,1456.037964 
	C775.426636,1456.221191 777.080505,1455.155640 777.009521,1451.799561 
	C776.942261,1448.619263 775.203918,1447.911377 772.490356,1447.956299 
	C768.008118,1448.030518 763.491394,1447.675415 759.058777,1448.150391 
	C757.591675,1448.307617 755.593445,1450.247192 755.151794,1451.756226 
	C754.365784,1454.442017 755.930603,1456.116333 758.978577,1456.036987 
	C761.799500,1455.963379 764.623901,1456.024292 768.406067,1456.025879 
M1504.407227,1456.025879 
	C1505.735229,1456.025269 1507.067383,1455.957153 1508.390381,1456.037964 
	C1511.404785,1456.221924 1513.088867,1455.211792 1513.037598,1451.834717 
	C1512.989502,1448.667603 1511.328735,1447.904297 1508.581787,1447.954956 
	C1504.101318,1448.037842 1499.617065,1448.038696 1495.136597,1447.956787 
	C1492.167114,1447.902588 1490.423462,1449.343750 1491.195068,1452.127563 
	C1491.618896,1453.657715 1493.492432,1455.505737 1495.020020,1455.851562 
	C1497.704712,1456.459595 1500.625610,1456.024292 1504.407227,1456.025879 
M1485.899658,1448.137939 
	C1480.750732,1448.084106 1475.600830,1448.073486 1470.453247,1447.959106 
	C1467.698486,1447.897949 1466.042969,1448.712646 1465.989502,1451.862793 
	C1465.931763,1455.271240 1467.692261,1456.131470 1470.679321,1456.051270 
	C1474.665283,1455.944092 1478.656738,1456.060547 1482.645142,1456.017334 
	C1488.302612,1455.955933 1489.337036,1454.010986 1485.899658,1448.137939 
M1449.596558,1456.025879 
	C1452.749390,1456.024170 1455.979736,1456.429077 1459.021973,1455.848022 
	C1460.523560,1455.561035 1462.661377,1453.491943 1462.712891,1452.159668 
	C1462.765015,1450.814087 1460.697021,1448.307983 1459.376709,1448.180054 
	C1454.445068,1447.702759 1449.417358,1447.740356 1444.476685,1448.170288 
	C1443.232422,1448.278564 1441.275879,1450.507080 1441.190796,1451.858276 
	C1440.812378,1457.878174 1445.634766,1455.487549 1449.596558,1456.025879 
M790.520447,1456.025879 
	C793.175964,1456.019775 795.932373,1456.437988 798.446899,1455.839478 
	C799.829712,1455.510498 801.840820,1453.351318 801.711792,1452.231201 
	C801.536621,1450.709961 799.689148,1448.310181 798.374329,1448.182129 
	C793.442200,1447.701538 788.413635,1447.742188 783.470947,1448.166870 
	C782.222900,1448.274048 780.128540,1450.655029 780.262451,1451.770386 
	C780.445496,1453.294312 782.133850,1455.216309 783.645020,1455.848389 
	C785.341980,1456.558228 787.560486,1456.020752 790.520447,1456.025879 
M1210.688965,1447.974121 
	C1210.025146,1447.974609 1209.358765,1448.012573 1208.697876,1447.969116 
	C1205.757568,1447.775635 1203.941406,1448.631592 1203.960693,1452.074829 
	C1203.980469,1455.619263 1206.022095,1456.101929 1208.846924,1456.046265 
	C1212.994629,1455.964722 1217.146973,1455.947998 1221.293701,1456.051025 
	C1224.250732,1456.124390 1226.040039,1455.326172 1226.013306,1451.900879 
	C1225.985596,1448.344727 1223.901611,1447.887451 1221.096191,1447.956665 
	C1217.944702,1448.034546 1214.789917,1447.974243 1210.688965,1447.974121 
M1424.596558,1456.025879 
	C1427.749390,1456.024170 1430.979736,1456.428955 1434.021851,1455.847656 
	C1435.523438,1455.560791 1437.661255,1453.491821 1437.712891,1452.159668 
	C1437.765015,1450.814087 1435.696899,1448.307861 1434.376709,1448.180176 
	C1429.445068,1447.702759 1424.417358,1447.740234 1419.476685,1448.170288 
	C1418.232422,1448.278564 1416.275757,1450.507080 1416.190796,1451.858276 
	C1415.812256,1457.878174 1420.634766,1455.487549 1424.596558,1456.025879 
M1412.775269,1454.149780 
	C1412.950806,1451.565918 1413.975952,1448.300659 1409.881714,1448.076782 
	C1404.578613,1447.786865 1399.236084,1447.839722 1393.937622,1448.173950 
	C1392.909302,1448.238647 1391.261597,1450.251343 1391.229980,1451.401978 
	C1391.189575,1452.870605 1392.494873,1455.661133 1393.229980,1455.664307 
	C1399.601318,1455.692627 1405.974731,1455.223022 1412.775269,1454.149780 
M1350.989624,1452.425293 
	C1351.276978,1449.241089 1349.862305,1447.855957 1346.635376,1447.945679 
	C1342.145752,1448.070679 1337.648926,1448.043335 1333.157715,1447.954956 
	C1330.202515,1447.896973 1328.928955,1449.157837 1328.973633,1452.135864 
	C1329.015015,1454.882812 1330.234253,1456.062988 1332.928711,1456.034424 
	C1337.587646,1455.985107 1342.262451,1456.229248 1346.897827,1455.895874 
	C1348.302612,1455.794800 1349.599609,1454.195557 1350.989624,1452.425293 
M1314.517822,1447.974121 
	C1312.360107,1447.975708 1310.200195,1448.040894 1308.045410,1447.963379 
	C1305.027222,1447.855103 1303.389404,1449.451782 1304.172485,1452.183350 
	C1304.608398,1453.703979 1306.578003,1455.699097 1308.023560,1455.846802 
	C1312.622803,1456.317017 1317.301270,1455.964722 1321.947266,1456.041382 
	C1324.972046,1456.091187 1326.587524,1454.508423 1325.802734,1451.791748 
	C1325.365112,1450.276611 1323.483154,1448.640259 1321.905396,1448.129517 
	C1319.951782,1447.497192 1317.638916,1447.975464 1314.517822,1447.974121 
M1300.753540,1449.871460 
	C1299.513062,1449.240845 1298.295532,1448.125854 1297.028198,1448.066040 
	C1292.383545,1447.846924 1287.721191,1448.041504 1283.067749,1447.956299 
	C1280.054321,1447.901245 1278.389038,1449.423096 1279.172363,1452.172729 
	C1279.606445,1453.695801 1281.567505,1455.678467 1283.025513,1455.846680 
	C1287.291382,1456.338867 1291.659424,1455.850342 1295.970093,1456.076294 
	C1300.008789,1456.288086 1301.459229,1454.527344 1300.753540,1449.871460 
M1268.361328,1447.974121 
	C1265.041748,1447.974976 1261.720581,1448.039551 1258.403076,1447.957031 
	C1255.639160,1447.888428 1253.985596,1448.731689 1253.969727,1451.871460 
	C1253.954834,1454.837769 1255.198730,1456.099609 1258.146484,1456.044556 
	C1262.958252,1455.954468 1267.796997,1456.270996 1272.569336,1455.825928 
	C1273.805908,1455.710571 1275.697754,1453.420898 1275.724854,1452.097900 
	C1275.752563,1450.753418 1274.042358,1449.116577 1272.715210,1448.102295 
	C1271.977295,1447.538330 1270.468018,1447.983643 1268.361328,1447.974121 
M917.987976,1456.023071 
	C922.303772,1456.023071 926.619568,1456.007446 930.935303,1456.028320 
	C933.850708,1456.042358 936.278992,1454.768799 935.657227,1451.800781 
	C935.335510,1450.264893 932.710022,1448.386108 930.927307,1448.148560 
	C926.849915,1447.605103 922.610291,1447.637817 918.518921,1448.126465 
	C916.634399,1448.351562 914.943298,1450.195801 913.164429,1451.305786 
	C914.478760,1452.873047 915.793091,1454.440308 917.987976,1456.023071 
M736.686401,1447.973999 
	C735.357971,1447.998535 733.689941,1447.535400 732.783875,1448.166504 
	C731.547729,1449.027344 730.168823,1450.734619 730.191772,1452.055664 
	C730.214600,1453.375000 731.810730,1455.712280 732.854980,1455.791626 
	C737.975708,1456.181274 743.174377,1456.279663 748.271484,1455.757324 
	C749.634521,1455.617554 750.736450,1452.930054 751.958191,1451.412231 
	C750.507446,1450.267090 749.174316,1448.385254 747.581421,1448.131104 
	C744.340088,1447.613892 740.958435,1447.974976 736.686401,1447.973999 
M1517.046021,1454.524902 
	C1522.722900,1455.023438 1528.397339,1455.777222 1534.078369,1455.828125 
	C1535.378296,1455.839844 1537.432251,1453.629150 1537.852539,1452.089966 
	C1538.623413,1449.267090 1536.830688,1447.890381 1533.866333,1447.954468 
	C1529.538940,1448.047974 1525.204346,1448.082764 1520.879272,1447.944946 
	C1516.400269,1447.802368 1515.189697,1449.832397 1517.046021,1454.524902 
M1142.622559,1454.901489 
	C1148.670044,1455.229492 1154.719604,1455.737549 1160.762085,1455.662720 
	C1161.538818,1455.653076 1162.758179,1452.642822 1162.847534,1450.972900 
	C1162.898193,1450.029419 1161.125610,1448.210205 1160.064453,1448.123047 
	C1155.931519,1447.783691 1151.738403,1448.208008 1147.598267,1447.915894 
	C1142.748657,1447.573853 1141.208374,1449.648193 1142.622559,1454.901489 
M707.088379,1455.869873 
	C711.910400,1455.920410 716.735107,1455.890625 721.553589,1456.049927 
	C724.683716,1456.153442 726.043030,1454.975586 726.118469,1451.707275 
	C726.195374,1448.374634 724.550720,1447.847046 721.802307,1447.942993 
	C717.980225,1448.076416 714.149719,1447.941650 710.323425,1447.984131 
	C704.669189,1448.046875 703.637085,1449.995850 707.088379,1455.869873 
M687.630371,1456.024536 
	C690.767029,1456.022583 693.905396,1455.953857 697.039795,1456.037964 
	C700.056396,1456.118774 701.648743,1454.520874 700.877380,1451.820312 
	C700.444092,1450.303345 698.503540,1448.311646 697.066223,1448.155884 
	C692.660889,1447.678467 688.135254,1447.673096 683.734070,1448.170776 
	C682.359131,1448.326294 680.262024,1450.661987 680.261902,1451.999878 
	C680.261719,1453.337646 682.340088,1454.849365 683.773132,1455.933472 
	C684.404785,1456.411499 685.693604,1456.020752 687.630371,1456.024536 
M656.295166,1448.481079 
	C653.628418,1453.948364 654.658264,1455.948853 660.234192,1456.014404 
	C664.200623,1456.060913 668.213074,1456.359253 672.111572,1455.841675 
	C673.557068,1455.649658 675.457275,1453.650391 675.879150,1452.123779 
	C676.639893,1449.370605 674.955444,1447.887329 671.973267,1447.960815 
	C667.019104,1448.082886 662.061951,1448.078735 656.295166,1448.481079 
M1093.275391,1455.507568 
	C1098.537354,1455.677856 1103.813354,1456.115112 1109.051880,1455.839355 
	C1110.439453,1455.766479 1112.440186,1453.709473 1112.876709,1452.193970 
	C1113.653320,1449.497437 1112.072632,1447.894043 1109.044922,1447.960693 
	C1105.244385,1448.044434 1101.440186,1447.954468 1097.637817,1447.980957 
	C1091.869629,1448.021240 1091.320679,1448.796753 1093.275391,1455.507568 
M839.617554,1449.074829 
	C838.282410,1455.172607 838.847839,1455.979858 844.597107,1456.018066 
	C848.563904,1456.044434 852.581543,1456.366577 856.470703,1455.813354 
	C857.814697,1455.622192 859.598633,1453.270142 859.760315,1451.753662 
	C859.880432,1450.627563 857.753601,1448.226929 856.546875,1448.172119 
	C851.137756,1447.926270 845.699768,1448.317139 839.617554,1449.074829 
M877.369629,1447.975586 
	C874.232971,1447.977539 871.094604,1448.046143 867.960205,1447.962036 
	C864.943604,1447.881348 863.351318,1449.479126 864.122681,1452.179688 
	C864.555969,1453.696655 866.496460,1455.688354 867.933716,1455.844116 
	C872.339111,1456.321533 876.864685,1456.326660 881.265869,1455.829102 
	C882.640869,1455.673706 884.737854,1453.338013 884.738098,1452.000122 
	C884.738342,1450.662354 882.659912,1449.150757 881.226929,1448.066284 
	C880.595337,1447.588379 879.306396,1447.979126 877.369629,1447.975586 
M895.682373,1456.024414 
	C899.315552,1456.017700 902.996338,1456.342163 906.556824,1455.830200 
	C907.855408,1455.643311 909.880859,1453.359741 909.760986,1452.224243 
	C909.601685,1450.715576 907.784119,1448.328491 906.475098,1448.185425 
	C901.905518,1447.686035 897.215576,1447.686646 892.644165,1448.176270 
	C891.293823,1448.320801 889.345215,1450.584229 889.122314,1452.091431 
	C888.479492,1456.438599 891.913269,1456.022827 895.682373,1456.024414 
M978.320007,1456.024292 
	C978.980530,1456.023804 979.643188,1455.987793 980.301147,1456.028931 
	C983.174133,1456.208496 985.083740,1455.486328 985.087463,1452.016724 
	C985.091187,1448.570801 983.236572,1447.881348 980.334167,1447.951782 
	C976.043335,1448.056030 971.717651,1447.705444 967.473938,1448.166260 
	C966.197693,1448.304810 964.123474,1450.603149 964.238770,1451.724609 
	C964.395203,1453.246216 966.121216,1455.546021 967.502197,1455.812622 
	C970.687012,1456.427734 974.069763,1456.018188 978.320007,1456.024292 
M1034.115234,1456.018921 
	C1037.607910,1456.188599 1038.716064,1453.906372 1037.835205,1451.262207 
	C1037.362915,1449.844360 1035.092529,1448.299316 1033.491211,1448.125854 
	C1029.409424,1447.683472 1025.246094,1448.051880 1021.118652,1447.955811 
	C1018.188965,1447.887573 1016.935486,1449.115479 1016.946045,1452.080688 
	C1016.956970,1455.160400 1018.492432,1456.104370 1021.293457,1456.042969 
	C1025.255981,1455.956055 1029.222046,1456.022583 1034.115234,1456.018921 
M1049.630371,1456.024536 
	C1052.767090,1456.022583 1055.905518,1455.953979 1059.039917,1456.037964 
	C1062.056396,1456.118774 1063.649292,1454.521240 1062.877563,1451.820312 
	C1062.444214,1450.303345 1060.503784,1448.311646 1059.066406,1448.155884 
	C1054.661011,1447.678345 1050.135376,1447.672852 1045.734131,1448.170532 
	C1044.359253,1448.326172 1042.262451,1450.661987 1042.262207,1451.999878 
	C1042.261963,1453.337646 1044.340088,1454.849243 1045.772949,1455.933472 
	C1046.404663,1456.411499 1047.693604,1456.020752 1049.630371,1456.024536 
M1071.813965,1447.976562 
	C1068.608276,1447.699341 1066.796875,1448.762695 1066.944336,1452.388916 
	C1067.093750,1456.059204 1069.474243,1456.058228 1072.093018,1456.033325 
	C1076.056030,1455.995483 1080.021240,1455.952271 1083.982544,1456.041382 
	C1086.965210,1456.108521 1088.639526,1454.619751 1087.879395,1451.873657 
	C1087.457031,1450.348145 1085.565918,1448.364380 1084.113403,1448.157959 
	C1080.390137,1447.628540 1076.541992,1447.977661 1071.813965,1447.976562 
M1122.744263,1456.024414 
	C1126.542725,1456.022217 1130.391113,1456.371338 1134.114624,1455.842163 
	C1135.566772,1455.635742 1137.457397,1453.650757 1137.879395,1452.124878 
	C1138.639282,1449.377319 1136.962524,1447.891479 1133.980591,1447.958496 
	C1130.019043,1448.047729 1126.053589,1448.004883 1122.090332,1447.966553 
	C1119.469482,1447.941162 1117.092041,1447.945557 1116.943970,1451.614380 
	C1116.797485,1455.242798 1118.613159,1456.301270 1122.744263,1456.024414 
z"/>
<path fill="#008096" opacity="1.000000" stroke="none" 
	d="
M1424.059570,1380.057373 
	C1486.699219,1380.038208 1549.338867,1380.008667 1611.978516,1380.002441 
	C1706.771362,1379.993042 1801.564941,1379.763062 1896.356445,1380.125732 
	C1930.521729,1380.256470 1959.831055,1402.729370 1969.470093,1434.423950 
	C1906.354614,1434.795776 1843.700928,1434.770508 1781.016113,1434.526855 
	C1780.984741,1434.308228 1780.817871,1433.899048 1781.044922,1433.600220 
	C1781.751221,1431.169312 1783.018555,1428.773682 1782.425537,1427.000488 
	C1782.046753,1425.868164 1778.949707,1425.301636 1777.010010,1425.113403 
	C1773.895264,1424.811279 1770.729614,1425.027100 1767.585571,1425.033325 
	C1760.605103,1425.047119 1759.287231,1427.252075 1762.173096,1434.087280 
	C1762.057007,1434.289917 1761.954224,1434.745483 1761.533447,1434.780151 
	C1759.424194,1434.791748 1757.735718,1434.768555 1756.016113,1434.526855 
	C1755.984741,1434.308228 1755.817871,1433.899048 1756.040527,1433.604980 
	C1756.710693,1431.349976 1758.050781,1428.940430 1757.354126,1427.555176 
	C1756.661621,1426.178101 1753.978149,1425.373657 1752.066284,1425.136230 
	C1748.962036,1424.750732 1745.774902,1425.027344 1742.622681,1425.033203 
	C1735.604736,1425.046509 1734.286499,1427.236816 1737.173096,1434.087280 
	C1737.057007,1434.289917 1736.954224,1434.745483 1736.533447,1434.780151 
	C1734.424194,1434.791748 1732.735718,1434.768555 1731.016113,1434.526855 
	C1730.984741,1434.308228 1730.817871,1433.899048 1731.040527,1433.604980 
	C1731.710693,1431.349976 1733.050903,1428.940308 1732.354248,1427.555054 
	C1731.661621,1426.178101 1728.978271,1425.373779 1727.066284,1425.136230 
	C1723.962036,1424.750732 1720.774902,1425.027222 1717.622681,1425.033203 
	C1710.604736,1425.046509 1709.286499,1427.236816 1712.173096,1434.087280 
	C1712.057007,1434.289917 1711.954224,1434.745483 1711.533447,1434.780151 
	C1709.424194,1434.791626 1707.735718,1434.768555 1706.016113,1434.526855 
	C1705.984741,1434.308228 1705.817871,1433.899048 1706.040527,1433.604980 
	C1706.709473,1431.347656 1708.050049,1428.932373 1707.350464,1427.548706 
	C1706.653809,1426.171021 1703.965942,1425.372803 1702.050293,1425.136108 
	C1698.941772,1424.751587 1695.750977,1425.027954 1692.594849,1425.033325 
	C1685.557739,1425.045410 1684.270752,1427.194458 1687.173096,1434.087280 
	C1687.057007,1434.289917 1686.954224,1434.745483 1686.533447,1434.780273 
	C1684.424194,1434.791748 1682.735718,1434.768677 1681.016113,1434.526855 
	C1680.984741,1434.308228 1680.817871,1433.899048 1681.040527,1433.604980 
	C1681.709473,1431.347656 1683.049927,1428.932495 1682.350342,1427.548706 
	C1681.654053,1426.171021 1678.965942,1425.372925 1677.050293,1425.136108 
	C1673.941772,1424.751587 1670.750977,1425.027832 1667.594849,1425.033325 
	C1660.557739,1425.045410 1659.270752,1427.194580 1662.172974,1434.087280 
	C1662.057007,1434.289917 1661.954224,1434.745483 1661.533447,1434.780029 
	C1659.423828,1434.791626 1657.735229,1434.768555 1656.007690,1434.523682 
	C1655.968872,1434.302002 1655.778809,1433.893433 1655.995361,1433.593506 
	C1656.685547,1431.357422 1658.049316,1428.992432 1657.381348,1427.606323 
	C1656.720459,1426.234375 1654.067505,1425.365845 1652.184692,1425.140137 
	C1648.941772,1424.751343 1645.618652,1425.025269 1642.329102,1425.033813 
	C1635.504395,1425.051514 1634.174805,1427.438477 1636.959595,1433.993896 
	C1635.386230,1434.267212 1634.201172,1434.507935 1632.547974,1434.782227 
	C1606.401978,1434.792480 1580.724243,1434.768921 1555.006104,1434.523926 
	C1554.965698,1434.302490 1554.770996,1433.895874 1554.980713,1433.593262 
	C1555.638672,1431.339722 1556.975220,1428.944580 1556.284424,1427.562866 
	C1555.597412,1426.188477 1552.927002,1425.344360 1551.031006,1425.136353 
	C1547.601318,1424.759888 1544.072998,1424.766357 1540.640015,1425.127197 
	C1538.555908,1425.346436 1535.324463,1426.078125 1534.849609,1427.390381 
	C1534.204956,1429.172119 1535.704712,1431.729736 1536.035400,1434.031738 
	C1535.522095,1434.321533 1535.258423,1434.534180 1534.651123,1434.760254 
	C1534.081665,1434.735107 1533.855591,1434.696777 1533.405762,1434.471436 
	C1532.168579,1434.288330 1531.155273,1434.291992 1530.051514,1434.189697 
	C1529.960938,1434.083740 1529.737915,1433.916504 1529.952026,1433.614014 
	C1530.626099,1431.361328 1531.977539,1428.972290 1531.294556,1427.584595 
	C1530.617065,1426.208130 1527.945312,1425.347168 1526.051025,1425.137329 
	C1522.619385,1424.757446 1519.087891,1424.767090 1515.651855,1425.127075 
	C1513.564941,1425.345703 1510.329590,1426.072388 1509.852783,1427.385498 
	C1509.205811,1429.166748 1510.705688,1431.727905 1511.035278,1434.031738 
	C1510.522095,1434.321533 1510.258423,1434.534180 1509.583252,1434.780640 
	C1507.796753,1434.791504 1506.421631,1434.768555 1505.006104,1434.523926 
	C1504.965698,1434.302490 1504.770996,1433.895874 1504.985840,1433.554932 
	C1507.229492,1426.414429 1506.313721,1425.049194 1499.696777,1425.030640 
	C1496.547974,1425.021851 1493.370483,1424.773682 1490.260864,1425.122803 
	C1488.317505,1425.341064 1485.161743,1426.140381 1484.879395,1427.264160 
	C1484.383179,1429.238770 1485.673340,1431.662109 1486.122070,1434.101074 
	C1486.028931,1434.304443 1485.953247,1434.745361 1485.522827,1434.780029 
	C1483.078003,1434.791748 1481.063477,1434.768555 1479.035645,1434.538574 
	C1479.022095,1434.331543 1478.914551,1433.930664 1479.260254,1433.762939 
	C1482.797974,1427.798462 1481.437012,1425.075928 1475.307251,1425.033203 
	C1471.977173,1425.010010 1468.621338,1424.782715 1465.326172,1425.122437 
	C1463.369995,1425.324219 1460.185913,1426.110229 1459.897461,1427.234741 
	C1459.389771,1429.212769 1460.678711,1431.651611 1461.122070,1434.101074 
	C1461.028931,1434.304443 1460.953247,1434.745361 1460.522827,1434.780029 
	C1458.078003,1434.791626 1456.063477,1434.768555 1454.035645,1434.538452 
	C1454.022095,1434.331543 1453.914551,1433.930664 1454.260254,1433.763184 
	C1457.789917,1427.818726 1456.412354,1425.077515 1450.283691,1425.033447 
	C1446.956787,1425.009521 1443.604126,1424.781860 1440.312378,1425.122559 
	C1438.359253,1425.324707 1435.180786,1426.116333 1434.893555,1427.240845 
	C1434.388306,1429.218140 1435.677612,1431.653809 1436.122070,1434.101074 
	C1436.028931,1434.304443 1435.953247,1434.745361 1435.522827,1434.780029 
	C1433.078003,1434.791626 1431.063477,1434.768555 1429.035645,1434.538574 
	C1429.022095,1434.331543 1428.914551,1433.930664 1429.260254,1433.763184 
	C1432.789917,1427.818726 1431.412354,1425.077515 1425.283691,1425.033447 
	C1421.956787,1425.009521 1418.604126,1424.782227 1415.312378,1425.122925 
	C1413.359375,1425.325073 1410.180908,1426.116455 1409.893555,1427.240723 
	C1409.388428,1429.218018 1410.677612,1431.653809 1411.122192,1434.101074 
	C1411.028931,1434.304443 1410.953247,1434.745361 1410.489136,1434.780396 
	C1382.699585,1434.792114 1355.374023,1434.768799 1328.028320,1434.534424 
	C1328.008057,1434.323486 1327.876465,1433.920166 1328.217041,1433.748291 
	C1331.728516,1427.776978 1330.356201,1425.079834 1324.193237,1425.036499 
	C1320.866821,1425.013184 1317.514404,1424.783691 1314.223511,1425.126099 
	C1312.270996,1425.329346 1309.082031,1426.137573 1308.809082,1427.252075 
	C1308.322876,1429.236450 1309.626953,1431.659546 1310.098633,1434.103516 
	C1310.015015,1434.307983 1309.952637,1434.745361 1309.522217,1434.780029 
	C1307.077515,1434.791626 1305.062988,1434.768433 1303.028320,1434.534424 
	C1303.008057,1434.323486 1302.876465,1433.920166 1303.217041,1433.748291 
	C1306.727905,1427.789673 1305.359497,1425.081299 1299.223022,1425.036499 
	C1295.904053,1425.012329 1292.569702,1424.842041 1289.271362,1425.103638 
	C1287.285278,1425.261230 1283.737793,1426.012085 1283.691895,1426.687134 
	C1283.531128,1429.046387 1284.588013,1431.488525 1285.098633,1434.103516 
	C1285.015015,1434.307983 1284.952637,1434.745361 1284.522217,1434.780029 
	C1282.076904,1434.791626 1280.062134,1434.768433 1278.016113,1434.526855 
	C1277.984741,1434.308228 1277.817871,1433.899048 1278.084106,1433.626465 
	C1278.760132,1431.109253 1279.602051,1428.811523 1279.336548,1426.649780 
	C1279.248291,1425.931152 1276.341309,1425.217285 1274.681763,1425.104004 
	C1271.217651,1424.867432 1267.712036,1424.844971 1264.251221,1425.104614 
	C1262.270508,1425.253296 1258.731079,1426.019897 1258.685425,1426.696289 
	C1258.526733,1429.052856 1259.586060,1431.491699 1260.098633,1434.103516 
	C1260.015015,1434.307983 1259.952637,1434.745361 1259.522217,1434.780029 
	C1257.076904,1434.791748 1255.062134,1434.768555 1253.016113,1434.526855 
	C1252.984741,1434.308228 1252.817871,1433.899048 1253.046143,1433.599365 
	C1253.764893,1431.180786 1255.049194,1428.796753 1254.461670,1427.037964 
	C1254.080688,1425.897217 1251.001831,1425.294922 1249.070190,1425.115723 
	C1245.792480,1424.811768 1242.449951,1424.835449 1239.166382,1425.106201 
	C1237.194214,1425.268799 1233.676270,1426.061768 1233.634277,1426.742676 
	C1233.489746,1429.087402 1234.569214,1431.507690 1235.098633,1434.103516 
	C1235.015015,1434.307983 1234.952637,1434.745361 1234.522217,1434.780029 
	C1232.076904,1434.791626 1230.062134,1434.768555 1228.016113,1434.526855 
	C1227.984741,1434.308228 1227.817871,1433.899048 1228.044922,1433.600220 
	C1228.676758,1431.029541 1229.596680,1428.665894 1229.216553,1426.534058 
	C1229.076782,1425.751221 1225.881470,1425.223877 1224.044312,1425.096436 
	C1220.758179,1424.868530 1217.428589,1424.834717 1214.149170,1425.106567 
	C1212.180542,1425.269653 1208.670166,1426.068115 1208.628662,1426.750366 
	C1208.485718,1429.093018 1209.567505,1431.510376 1210.098633,1434.103516 
	C1210.015015,1434.307983 1209.952637,1434.745361 1209.522217,1434.780029 
	C1207.076904,1434.791626 1205.062134,1434.768555 1203.016113,1434.526855 
	C1202.984741,1434.308228 1202.817871,1433.899048 1203.044922,1433.600220 
	C1203.750122,1431.164429 1205.019409,1428.760376 1204.420776,1426.986816 
	C1204.038208,1425.853271 1200.928101,1425.299805 1198.980591,1425.112793 
	C1195.858398,1424.812866 1192.686401,1425.026733 1189.535400,1425.033569 
	C1182.581421,1425.048706 1181.242920,1427.351318 1184.086426,1434.024170 
	C1183.549194,1434.315796 1183.272339,1434.531372 1182.528564,1434.781250 
	C983.889526,1434.822144 785.717224,1434.828613 587.544983,1434.831299 
	C586.713257,1434.831299 585.881592,1434.775024 585.041687,1434.537354 
	C585.033508,1434.329712 584.947388,1433.922607 585.208130,1433.675537 
	C602.773621,1428.368164 620.078430,1423.307739 637.702698,1418.153931 
	C633.126221,1398.657471 628.532410,1379.011719 623.898071,1359.375488 
	C621.475098,1349.109253 614.999695,1344.027344 604.339966,1344.006470 
	C590.534241,1343.979492 576.726440,1344.135742 562.923462,1343.938599 
	C556.693604,1343.849731 550.666809,1344.199097 545.039490,1347.145020 
	C545.947083,1340.986206 550.943115,1336.106812 557.108643,1336.059448 
	C575.432800,1335.918457 593.760193,1335.874878 612.083191,1336.073853 
	C619.243713,1336.151611 626.003723,1341.701050 627.658447,1348.639648 
	C632.572144,1369.244873 637.335571,1389.886597 642.025452,1410.544067 
	C643.519470,1417.125122 643.342712,1417.237915 649.966370,1416.012329 
	C672.993652,1411.751099 695.964966,1407.165527 719.048035,1403.234375 
	C735.789490,1400.383179 752.666138,1398.313965 769.497009,1396.001831 
	C789.102051,1393.308594 808.697815,1390.520264 828.345154,1388.171997 
	C842.773499,1386.447510 857.304871,1385.596802 871.744751,1383.955933 
	C935.582275,1376.702026 999.652954,1381.288086 1063.606567,1380.024780 
	C1072.432373,1379.850464 1081.264893,1380.010376 1090.694214,1380.333008 
	C1098.927368,1386.438354 1105.931885,1393.437378 1114.311401,1397.787598 
	C1139.492798,1410.860596 1166.936401,1416.235352 1195.031006,1416.813721 
	C1232.318604,1417.581421 1269.633789,1416.911377 1306.935791,1417.110718 
	C1322.932251,1417.196167 1338.774292,1416.100586 1354.462769,1412.994751 
	C1375.459229,1408.838257 1395.864014,1403.022461 1413.463745,1390.190552 
	C1417.377808,1387.336792 1420.547241,1383.462036 1424.059570,1380.057373 
M1900.021118,1413.968994 
	C1903.001221,1413.957642 1906.131104,1414.490479 1908.904419,1413.727417 
	C1910.521851,1413.282471 1912.312622,1410.923096 1912.693970,1409.140381 
	C1913.233276,1406.618530 1911.664551,1404.820557 1908.613770,1404.921631 
	C1905.472412,1405.025757 1902.323730,1404.908569 1898.924561,1404.135986 
	C1897.592407,1403.418579 1896.266479,1402.091064 1894.927246,1402.077637 
	C1880.103638,1401.928955 1865.276489,1401.899292 1850.454468,1402.110840 
	C1848.924194,1402.132690 1847.419189,1403.919189 1844.979126,1404.925781 
	C1825.818970,1404.931519 1806.658691,1404.978638 1787.498779,1404.901611 
	C1784.395020,1404.889160 1782.225952,1405.518555 1782.126587,1409.101807 
	C1782.011963,1413.239990 1784.546753,1413.993164 1788.002686,1413.982910 
	C1807.329224,1413.924927 1826.656128,1413.949463 1846.309204,1414.616333 
	C1847.874146,1415.289062 1849.433105,1416.529419 1851.004883,1416.545898 
	C1865.448364,1416.696167 1879.895264,1416.717041 1894.337646,1416.518433 
	C1895.942993,1416.496338 1897.526123,1414.873657 1900.021118,1413.968994 
z"/>
<path fill="#254254" opacity="1.000000" stroke="none" 
	d="
M589.965942,1471.077637 
	C592.402588,1472.012573 594.766785,1473.426147 597.287170,1473.807617 
	C620.489380,1477.319458 643.699341,1480.793701 666.945984,1483.995483 
	C687.570984,1486.836304 708.221985,1489.523315 728.905701,1491.891968 
	C746.320129,1493.886475 763.785767,1495.469238 781.251465,1496.970459 
	C798.897766,1498.487305 816.564941,1499.785767 834.237000,1500.969238 
	C843.010010,1501.556763 851.814575,1501.957764 860.604980,1501.958984 
	C1209.879395,1502.007202 1559.153809,1502.010742 1908.428223,1501.971191 
	C1928.442383,1501.968872 1946.598511,1495.748779 1962.970581,1484.341675 
	C1965.952148,1482.264282 1968.573486,1479.669434 1971.659424,1477.173706 
	C1969.420776,1489.864380 1963.455811,1500.845215 1954.896484,1510.738037 
	C1943.140381,1524.325684 1928.532471,1532.709595 1911.116577,1536.376099 
	C1906.929321,1537.257568 1902.601562,1537.924805 1898.338135,1537.925659 
	C1570.194214,1537.992920 1242.050171,1538.031982 913.906372,1537.817871 
	C899.572266,1537.808472 885.237000,1535.453003 870.907410,1534.134155 
	C860.033936,1533.133667 849.160706,1532.119019 838.301819,1530.973511 
	C825.803223,1529.655151 813.309082,1528.279663 800.834167,1526.755493 
	C788.698975,1525.272827 776.576172,1523.672363 764.474426,1521.938232 
	C750.893799,1519.992310 737.305298,1518.056396 723.787598,1515.725464 
	C702.125183,1511.990356 680.455811,1508.243774 658.907104,1503.916016 
	C641.386902,1500.397217 624.039307,1496.018921 605.890686,1491.855591 
	C602.437134,1500.555176 598.780884,1509.764282 595.125549,1518.973633 
	C593.963074,1521.901978 592.435669,1524.745239 591.722839,1527.779541 
	C590.464478,1533.135864 587.092957,1534.120972 582.142578,1534.085571 
	C556.478943,1533.901978 530.813416,1534.005249 505.148529,1533.996460 
	C498.677002,1533.994263 498.005249,1533.318115 498.003754,1526.812134 
	C497.999542,1508.147339 498.012939,1489.482666 498.480286,1470.363770 
	C508.368561,1470.257202 517.793945,1470.823853 527.223694,1470.907349 
	C548.136597,1471.092896 569.051697,1471.035889 589.965942,1471.077637 
z"/>
<path fill="#ED726D" opacity="1.000000" stroke="none" 
	d="
M1656.046509,1434.745483 
	C1657.735229,1434.768555 1659.423828,1434.791626 1661.992188,1434.885498 
	C1668.930298,1434.885986 1674.988892,1434.815674 1681.047363,1434.745483 
	C1682.735718,1434.768677 1684.424194,1434.791748 1686.992188,1434.885498 
	C1693.930298,1434.885986 1699.988892,1434.815674 1706.047363,1434.745361 
	C1707.735718,1434.768555 1709.424194,1434.791626 1711.992188,1434.885498 
	C1718.930298,1434.885864 1724.988892,1434.815674 1731.047363,1434.745361 
	C1732.735718,1434.768555 1734.424194,1434.791748 1736.992188,1434.885498 
	C1743.930298,1434.885986 1749.988892,1434.815674 1756.047363,1434.745361 
	C1757.735718,1434.768555 1759.424194,1434.791748 1761.992188,1434.885498 
	C1768.930298,1434.885986 1774.988892,1434.815674 1781.047363,1434.745361 
	C1843.700928,1434.770508 1906.354614,1434.795776 1969.471802,1434.792603 
	C1970.918579,1438.181152 1971.901611,1441.598145 1972.910889,1445.400757 
	C1971.438110,1445.817627 1969.939087,1445.876221 1968.440063,1445.876221 
	C1499.945190,1445.880005 1031.450317,1445.879761 562.955383,1445.878662 
	C562.122192,1445.878662 561.289001,1445.863037 560.169800,1445.593750 
	C567.555115,1441.802002 575.226501,1438.271484 583.253235,1434.836914 
	C584.088989,1434.870483 584.569458,1434.807739 585.049866,1434.744995 
	C585.881592,1434.775024 586.713257,1434.831299 587.544983,1434.831299 
	C785.717224,1434.828613 983.889526,1434.822144 1182.984131,1434.886719 
	C1190.286865,1434.886963 1196.667114,1434.816162 1203.047363,1434.745361 
	C1205.062134,1434.768555 1207.076904,1434.791626 1209.980835,1434.885498 
	C1216.595825,1434.885864 1222.321533,1434.815674 1228.047363,1434.745361 
	C1230.062134,1434.768555 1232.076904,1434.791626 1234.980835,1434.885498 
	C1241.595825,1434.885864 1247.321533,1434.815674 1253.047363,1434.745361 
	C1255.062134,1434.768555 1257.076904,1434.791748 1259.980835,1434.885498 
	C1266.595825,1434.885864 1272.321533,1434.815674 1278.047363,1434.745361 
	C1280.062134,1434.768433 1282.076904,1434.791626 1284.980835,1434.885498 
	C1291.596191,1434.885986 1297.322388,1434.815674 1303.048584,1434.745361 
	C1305.062988,1434.768433 1307.077515,1434.791626 1309.980957,1434.885376 
	C1316.596191,1434.885864 1322.322388,1434.815674 1328.048584,1434.745361 
	C1355.374023,1434.768799 1382.699585,1434.792114 1410.947754,1434.885742 
	C1417.596558,1434.885864 1423.322876,1434.815552 1429.049072,1434.745361 
	C1431.063477,1434.768555 1433.078003,1434.791626 1435.981445,1434.885498 
	C1442.596558,1434.885986 1448.322876,1434.815674 1454.049072,1434.745361 
	C1456.063477,1434.768555 1458.078003,1434.791626 1460.981445,1434.885498 
	C1467.596558,1434.885864 1473.322876,1434.815674 1479.049072,1434.745361 
	C1481.063477,1434.768555 1483.078003,1434.791748 1485.981689,1434.885498 
	C1492.929443,1434.885864 1498.988037,1434.815674 1505.046509,1434.745483 
	C1506.421631,1434.768555 1507.796753,1434.791504 1510.039062,1434.886230 
	C1517.341919,1434.892212 1523.777710,1434.826660 1530.558105,1434.808350 
	C1531.811646,1434.789795 1532.720703,1434.723999 1533.629639,1434.658325 
	C1533.855591,1434.696777 1534.081665,1434.735107 1535.106812,1434.865723 
	C1542.286133,1434.886963 1548.666382,1434.816284 1555.046509,1434.745483 
	C1580.724243,1434.768921 1606.401978,1434.792480 1633.002075,1434.887451 
	C1641.298462,1434.887817 1648.672485,1434.816650 1656.046509,1434.745483 
z"/>
<path fill="#018096" opacity="1.000000" stroke="none" 
	d="
M1153.059448,1361.851685 
	C1154.052002,1353.855713 1154.885986,1345.836182 1156.073364,1337.869263 
	C1157.915283,1325.510132 1159.965942,1313.181763 1162.012085,1300.854370 
	C1162.330811,1298.934326 1163.095459,1297.088135 1164.417969,1295.011719 
	C1169.797974,1294.598755 1174.411987,1294.333130 1179.029785,1294.172607 
	C1217.759888,1292.825562 1256.490356,1291.482544 1295.221558,1290.168823 
	C1327.803711,1289.063599 1360.387329,1287.999512 1392.970215,1286.917236 
	C1393.980103,1289.890015 1395.828003,1292.852295 1395.864990,1295.837158 
	C1396.118164,1316.201660 1395.990356,1336.571167 1395.593994,1357.412964 
	C1381.179443,1352.577026 1366.478516,1350.446533 1351.675171,1350.281860 
	C1312.725708,1349.848389 1273.769043,1350.053589 1234.815308,1350.029907 
	C1232.491699,1350.028564 1230.167969,1350.257690 1227.844116,1350.373657 
	C1202.522461,1351.637207 1177.679321,1356.016968 1153.059448,1361.851685 
z"/>
<path fill="#254254" opacity="1.000000" stroke="none" 
	d="
M1423.625000,1380.041992 
	C1420.547241,1383.462036 1417.377808,1387.336792 1413.463745,1390.190552 
	C1395.864014,1403.022461 1375.459229,1408.838257 1354.462769,1412.994751 
	C1338.774292,1416.100586 1322.932251,1417.196167 1306.935791,1417.110718 
	C1269.633789,1416.911377 1232.318604,1417.581421 1195.031006,1416.813721 
	C1166.936401,1416.235352 1139.492798,1410.860596 1114.311401,1397.787598 
	C1105.931885,1393.437378 1098.927368,1386.438354 1091.164795,1380.349365 
	C1093.942383,1380.057617 1096.849365,1380.066895 1100.579834,1380.271118 
	C1102.397583,1380.533813 1103.391479,1380.660522 1104.385498,1380.660645 
	C1207.290161,1380.669800 1310.194946,1380.672363 1413.099609,1380.642456 
	C1414.730713,1380.641968 1416.361938,1380.233887 1417.993042,1380.016113 
	C1419.725464,1380.019409 1421.457886,1380.022949 1423.625000,1380.041992 
z"/>
<path fill="#F1736D" opacity="1.000000" stroke="none" 
	d="
M1417.977539,1379.640015 
	C1416.361938,1380.233887 1414.730713,1380.641968 1413.099609,1380.642456 
	C1310.194946,1380.672363 1207.290161,1380.669800 1104.385498,1380.660645 
	C1103.391479,1380.660522 1102.397583,1380.533813 1101.009521,1380.269531 
	C1115.660156,1374.720093 1130.700439,1369.354614 1145.754517,1364.028198 
	C1147.900879,1363.268799 1150.114380,1362.699097 1152.678223,1361.946655 
	C1177.679321,1356.016968 1202.522461,1351.637207 1227.844116,1350.373657 
	C1230.167969,1350.257690 1232.491699,1350.028564 1234.815308,1350.029907 
	C1273.769043,1350.053589 1312.725708,1349.848389 1351.675171,1350.281860 
	C1366.478516,1350.446533 1381.179443,1352.577026 1395.576416,1357.872314 
	C1399.368774,1359.769043 1402.858398,1361.564941 1406.190674,1363.616577 
	C1412.132324,1367.274902 1416.246216,1372.387329 1417.977539,1379.640015 
z"/>
<path fill="#254254" opacity="1.000000" stroke="none" 
	d="
M582.897827,1434.740723 
	C575.226501,1438.271484 567.555115,1441.802002 559.739014,1445.578857 
	C557.830566,1446.985840 556.066895,1448.146851 553.684326,1449.638916 
	C550.381104,1449.946777 547.696838,1449.923462 545.012512,1449.900146 
	C545.014954,1415.950195 545.017334,1382.000122 545.029602,1347.597534 
	C550.666809,1344.199097 556.693604,1343.849731 562.923462,1343.938599 
	C576.726440,1344.135742 590.534241,1343.979492 604.339966,1344.006470 
	C614.999695,1344.027344 621.475098,1349.109253 623.898071,1359.375488 
	C628.532410,1379.011719 633.126221,1398.657471 637.702698,1418.153931 
	C620.078430,1423.307739 602.773621,1428.368164 584.925232,1433.706543 
	C583.887024,1434.236694 583.392456,1434.488770 582.897827,1434.740723 
z"/>
<path fill="#017F95" opacity="1.000000" stroke="none" 
	d="
M544.543823,1449.936279 
	C547.696838,1449.923462 550.381104,1449.946777 553.509277,1449.934570 
	C575.214294,1449.932373 596.476257,1450.073853 617.735840,1449.906006 
	C621.898438,1449.873047 623.383545,1451.067627 622.989075,1455.219482 
	C622.508484,1460.276245 624.261169,1466.996094 621.628906,1469.956787 
	C619.360474,1472.508179 612.297546,1470.866821 607.352234,1470.949829 
	C601.872070,1471.041870 596.389404,1470.986938 590.436890,1471.036865 
	C569.051697,1471.035889 548.136597,1471.092896 527.223694,1470.907349 
	C517.793945,1470.823853 508.368561,1470.257202 498.497437,1469.886963 
	C491.629822,1468.610962 485.177734,1467.485474 478.789551,1466.071289 
	C471.459778,1464.448364 471.484375,1464.337280 472.550842,1455.392090 
	C484.996887,1453.630127 497.770142,1451.215942 510.654175,1450.182251 
	C521.728882,1449.293701 532.929993,1449.981567 544.543823,1449.936279 
z"/>
<path fill="#ED746E" opacity="1.000000" stroke="none" 
	d="
M1392.969238,1286.570801 
	C1360.387329,1287.999512 1327.803711,1289.063599 1295.221558,1290.168823 
	C1256.490356,1291.482544 1217.759888,1292.825562 1179.029785,1294.172607 
	C1174.411987,1294.333130 1169.797974,1294.598755 1164.742310,1294.776855 
	C1167.179932,1288.969482 1171.973145,1286.211060 1178.288086,1286.001221 
	C1190.587769,1285.592407 1202.889771,1285.252075 1215.937500,1284.799316 
	C1217.022339,1284.569214 1217.360352,1284.423218 1218.114990,1284.427612 
	C1238.762939,1283.954468 1258.994263,1283.330811 1279.634521,1282.714111 
	C1282.016968,1282.529541 1283.987305,1282.214722 1285.964355,1282.165527 
	C1303.536133,1281.728516 1321.109009,1281.338745 1338.928711,1280.910889 
	C1339.175781,1280.886841 1339.668091,1280.970703 1339.668091,1280.970703 
	C1339.668091,1280.970703 1340.141724,1280.811890 1340.141724,1280.812012 
	C1353.878174,1280.537720 1367.614258,1280.245483 1381.351196,1279.999146 
	C1386.354248,1279.909302 1390.312988,1281.878418 1392.969238,1286.570801 
z"/>
<path fill="#0A141B" opacity="1.000000" stroke="none" 
	d="
M1217.698364,1284.277100 
	C1217.360352,1284.423218 1217.022339,1284.569214 1216.405273,1284.703369 
	C1217.031860,1270.689819 1217.929932,1256.687500 1218.847046,1242.686523 
	C1219.182007,1237.573853 1219.613892,1232.467163 1219.911987,1227.352417 
	C1220.614502,1215.296753 1221.162598,1203.231323 1221.957031,1191.182007 
	C1223.206665,1172.226929 1224.599854,1153.281616 1225.946777,1134.333008 
	C1226.930298,1120.495239 1227.943604,1106.659424 1228.932373,1092.821899 
	C1230.274536,1074.039917 1231.604248,1055.256958 1232.942139,1036.474609 
	C1233.939697,1022.470886 1234.941895,1008.467468 1235.941895,994.463867 
	C1236.941895,980.460266 1237.938110,966.456421 1238.942871,952.453125 
	C1239.935791,938.615845 1240.947388,924.779785 1241.932129,910.941895 
	C1243.280762,891.993408 1244.601318,873.042969 1245.954346,854.094727 
	C1246.930542,840.423035 1247.963867,826.755310 1248.928589,813.082764 
	C1250.288940,793.801941 1251.587524,774.516663 1252.953979,755.236206 
	C1253.911011,741.729736 1254.966553,728.230164 1255.925537,714.723816 
	C1257.294312,695.443237 1258.591431,676.157471 1259.964233,656.877197 
	C1260.914307,643.536926 1261.888062,630.197876 1262.945923,616.865845 
	C1264.198608,601.077271 1265.585571,585.299438 1266.846558,569.511597 
	C1267.307373,563.742126 1267.589478,557.957947 1267.927002,552.179016 
	C1268.611572,540.455566 1269.204956,528.726379 1269.970703,517.008301 
	C1270.929565,502.332703 1272.024048,487.665985 1273.224609,472.418854 
	C1273.443481,471.728668 1273.570923,471.583252 1273.537964,471.507385 
	C1273.442383,471.286865 1273.282349,471.094269 1273.147461,470.890747 
	C1273.145142,470.469269 1273.142822,470.047821 1273.150635,469.310181 
	C1273.895386,462.201904 1274.630127,455.409821 1275.939697,448.067444 
	C1276.810181,445.698792 1277.105713,443.880402 1277.401245,442.062012 
	C1277.685303,442.089111 1277.969238,442.116211 1278.253296,442.143280 
	C1277.992432,447.749908 1277.731567,453.356537 1277.054199,459.136749 
	C1275.092041,479.655640 1273.496826,499.997345 1272.019531,520.347656 
	C1271.177368,531.948303 1270.603271,543.568298 1269.775513,555.170105 
	C1268.215576,577.033569 1266.533081,598.888184 1264.953979,620.750305 
	C1264.175903,631.521057 1263.580200,642.305054 1262.786011,653.074524 
	C1261.235352,674.104248 1259.538696,695.123291 1258.026001,716.155640 
	C1256.857666,732.395691 1255.969849,748.656067 1254.790527,764.895264 
	C1253.299194,785.433044 1251.555054,805.952454 1250.077393,826.491150 
	C1248.872925,843.230896 1248.004761,859.994934 1246.799683,876.734619 
	C1244.963379,902.242798 1242.941895,927.737549 1241.042847,953.241272 
	C1239.686401,971.460266 1238.388306,989.683655 1237.087646,1007.906738 
	C1235.065796,1036.236206 1233.070679,1064.567627 1231.051025,1092.897339 
	C1229.739990,1111.284912 1228.396973,1129.670166 1227.083984,1148.057617 
	C1225.404053,1171.581665 1223.702026,1195.104248 1222.079834,1218.632202 
	C1220.571533,1240.510498 1219.155273,1262.395264 1217.698364,1284.277100 
z"/>
<path fill="#1B1B1B" opacity="1.000000" stroke="none" 
	d="
M1340.123535,1280.361816 
	C1340.141724,1280.811890 1339.668091,1280.970703 1339.668091,1280.970703 
	C1339.668091,1280.970703 1339.175781,1280.886841 1338.962769,1280.442627 
	C1338.487915,1278.550171 1338.072754,1277.110596 1337.989746,1275.651978 
	C1337.498291,1267.022583 1337.228638,1258.378418 1336.618774,1249.758057 
	C1333.802734,1209.957397 1330.868164,1170.164917 1328.036499,1130.365356 
	C1325.558105,1095.531860 1323.201416,1060.689697 1320.715088,1025.856812 
	C1318.182007,990.372498 1315.519775,954.897583 1312.982544,919.413635 
	C1310.835693,889.387512 1308.828003,859.351440 1306.683716,829.325134 
	C1303.840942,789.515564 1300.888062,749.713867 1298.051025,709.903931 
	C1295.226562,670.267883 1292.514038,630.623901 1289.702393,590.987000 
	C1286.808105,550.185669 1283.883545,509.386444 1280.888550,468.592438 
	C1280.502808,463.339325 1279.615723,458.123047 1278.890503,452.630524 
	C1278.901611,451.745758 1278.983276,451.120209 1279.064941,450.494629 
	C1280.021118,451.376068 1281.691406,452.169220 1281.813110,453.153870 
	C1282.429565,458.137726 1282.643555,463.171295 1283.037109,468.625488 
	C1284.062622,483.239746 1285.051758,497.415802 1286.036011,511.592163 
	C1286.390991,516.704346 1286.767212,521.815308 1287.077393,526.930237 
	C1288.098755,543.768127 1289.028442,560.611877 1290.119751,577.445129 
	C1291.017334,591.291199 1292.105225,605.124817 1293.090210,618.965271 
	C1294.439209,637.916626 1295.760132,656.870056 1297.113037,675.821167 
	C1298.089233,689.495056 1299.112915,703.165527 1300.088745,716.839417 
	C1301.441040,735.790649 1302.761230,754.744202 1304.108521,773.695801 
	C1305.092651,787.535889 1306.104004,801.374023 1307.092529,815.213806 
	C1308.434448,833.998901 1309.770630,852.784363 1311.101440,871.570312 
	C1312.105225,885.742371 1313.091431,899.915710 1314.094849,914.087769 
	C1315.424805,932.874023 1316.758789,951.659973 1318.101074,970.445374 
	C1319.089966,984.285461 1320.105347,998.123657 1321.090210,1011.964050 
	C1322.439087,1030.915894 1323.760010,1049.869507 1325.112915,1068.821045 
	C1326.089111,1082.495361 1327.112915,1096.166016 1328.088623,1109.840332 
	C1329.441040,1128.791992 1330.753052,1147.746338 1332.111328,1166.697510 
	C1333.079224,1180.205688 1334.123779,1193.708130 1335.082764,1207.216919 
	C1336.451782,1226.500366 1337.776611,1245.786987 1339.113892,1265.072754 
	C1339.456909,1270.018188 1339.775635,1274.965332 1340.123535,1280.361816 
z"/>
<path fill="#000000" opacity="1.000000" stroke="none" 
	d="
M1279.357178,450.027191 
	C1278.983276,451.120209 1278.901611,451.745758 1278.927490,453.105377 
	C1279.023193,455.838531 1279.001099,457.837677 1279.001099,459.836792 
	C1278.999512,731.916077 1278.999634,1003.995422 1278.995117,1276.074707 
	C1278.995117,1278.072388 1278.929932,1280.070068 1278.516113,1281.949707 
	C1277.823242,1279.776123 1277.234619,1277.720581 1277.234375,1275.664917 
	C1277.193359,1005.589600 1277.194946,735.514221 1277.206909,465.438873 
	C1277.207031,463.280304 1277.378906,461.121735 1277.470703,458.963165 
	C1277.731567,453.356537 1277.992432,447.749908 1278.253296,442.143280 
	C1277.969238,442.116211 1277.685303,442.089111 1277.401245,442.062012 
	C1277.105713,443.880402 1276.810181,445.698792 1276.217773,447.762329 
	C1276.413086,438.583069 1276.905273,429.158630 1277.397461,419.734192 
	C1278.148193,419.751007 1278.898926,419.767822 1279.649658,419.784637 
	C1279.649658,429.709656 1279.649658,439.634705 1279.357178,450.027191 
z"/>

<path fill="#162D38" opacity="1.000000" stroke="none" 
	d="
M939.425903,1454.862549 
	C937.530579,1450.067871 938.556580,1448.159424 942.950439,1448.014771 
	C947.597656,1447.861816 952.283264,1447.701172 956.889221,1448.166504 
	C958.327148,1448.311890 960.518372,1450.408447 960.617004,1451.741333 
	C960.714478,1453.058716 958.636536,1455.716431 957.455322,1455.749756 
	C951.555969,1455.916260 945.637756,1455.413208 939.425903,1454.862549 
z"/>
<path fill="#162E39" opacity="1.000000" stroke="none" 
	d="
M1229.431641,1454.511719 
	C1228.228149,1449.633179 1229.794678,1447.586792 1234.625000,1447.914307 
	C1238.928101,1448.206055 1243.289185,1447.741943 1247.572998,1448.151978 
	C1248.793823,1448.268921 1250.596436,1450.178223 1250.751709,1451.436035 
	C1250.921509,1452.810425 1249.495117,1455.664429 1248.756470,1455.667114 
	C1242.386230,1455.690430 1236.014282,1455.215332 1229.431641,1454.511719 
z"/>
<path fill="#162E39" opacity="1.000000" stroke="none" 
	d="
M767.926392,1456.025879 
	C764.623901,1456.024292 761.799500,1455.963379 758.978577,1456.036987 
	C755.930603,1456.116333 754.365784,1454.442017 755.151794,1451.756226 
	C755.593445,1450.247192 757.591675,1448.307617 759.058777,1448.150391 
	C763.491394,1447.675415 768.008118,1448.030518 772.490356,1447.956299 
	C775.203918,1447.911377 776.942261,1448.619263 777.009521,1451.799561 
	C777.080505,1455.155640 775.426636,1456.221191 772.390503,1456.037964 
	C771.066895,1455.958008 769.734497,1456.025391 767.926392,1456.025879 
z"/>
<path fill="#162E39" opacity="1.000000" stroke="none" 
	d="
M1503.927490,1456.025879 
	C1500.625610,1456.024292 1497.704712,1456.459595 1495.020020,1455.851562 
	C1493.492432,1455.505737 1491.618896,1453.657715 1491.195068,1452.127563 
	C1490.423462,1449.343750 1492.167114,1447.902588 1495.136597,1447.956787 
	C1499.617065,1448.038696 1504.101318,1448.037842 1508.581787,1447.954956 
	C1511.328735,1447.904297 1512.989502,1448.667603 1513.037598,1451.834717 
	C1513.088867,1455.211792 1511.404785,1456.221924 1508.390381,1456.037964 
	C1507.067383,1455.957153 1505.735229,1456.025269 1503.927490,1456.025879 
z"/>
<path fill="#162E39" opacity="1.000000" stroke="none" 
	d="
M1486.299805,1448.319336 
	C1489.337036,1454.010986 1488.302612,1455.955933 1482.645142,1456.017334 
	C1478.656738,1456.060547 1474.665283,1455.944092 1470.679321,1456.051270 
	C1467.692261,1456.131470 1465.931763,1455.271240 1465.989502,1451.862793 
	C1466.042969,1448.712646 1467.698486,1447.897949 1470.453247,1447.959106 
	C1475.600830,1448.073486 1480.750732,1448.084106 1486.299805,1448.319336 
z"/>
<path fill="#162E39" opacity="1.000000" stroke="none" 
	d="
M1449.117432,1456.025879 
	C1445.634766,1455.487549 1440.812378,1457.878174 1441.190796,1451.858276 
	C1441.275879,1450.507080 1443.232422,1448.278564 1444.476685,1448.170288 
	C1449.417358,1447.740356 1454.445068,1447.702759 1459.376709,1448.180054 
	C1460.697021,1448.307983 1462.765015,1450.814087 1462.712891,1452.159668 
	C1462.661377,1453.491943 1460.523560,1455.561035 1459.021973,1455.848022 
	C1455.979736,1456.429077 1452.749390,1456.024170 1449.117432,1456.025879 
z"/>
<path fill="#162E39" opacity="1.000000" stroke="none" 
	d="
M790.036255,1456.025879 
	C787.560486,1456.020752 785.341980,1456.558228 783.645020,1455.848389 
	C782.133850,1455.216309 780.445496,1453.294312 780.262451,1451.770386 
	C780.128540,1450.655029 782.222900,1448.274048 783.470947,1448.166870 
	C788.413635,1447.742188 793.442200,1447.701538 798.374329,1448.182129 
	C799.689148,1448.310181 801.536621,1450.709961 801.711792,1452.231201 
	C801.840820,1453.351318 799.829712,1455.510498 798.446899,1455.839478 
	C795.932373,1456.437988 793.175964,1456.019775 790.036255,1456.025879 
z"/>
<path fill="#162E39" opacity="1.000000" stroke="none" 
	d="
M1211.162720,1447.974121 
	C1214.789917,1447.974243 1217.944702,1448.034546 1221.096191,1447.956665 
	C1223.901611,1447.887451 1225.985596,1448.344727 1226.013306,1451.900879 
	C1226.040039,1455.326172 1224.250732,1456.124390 1221.293701,1456.051025 
	C1217.146973,1455.947998 1212.994629,1455.964722 1208.846924,1456.046265 
	C1206.022095,1456.101929 1203.980469,1455.619263 1203.960693,1452.074829 
	C1203.941406,1448.631592 1205.757568,1447.775635 1208.697876,1447.969116 
	C1209.358765,1448.012573 1210.025146,1447.974609 1211.162720,1447.974121 
z"/>
<path fill="#162E39" opacity="1.000000" stroke="none" 
	d="
M1424.117432,1456.025879 
	C1420.634766,1455.487549 1415.812256,1457.878174 1416.190796,1451.858276 
	C1416.275757,1450.507080 1418.232422,1448.278564 1419.476685,1448.170288 
	C1424.417358,1447.740234 1429.445068,1447.702759 1434.376709,1448.180176 
	C1435.696899,1448.307861 1437.765015,1450.814087 1437.712891,1452.159668 
	C1437.661255,1453.491821 1435.523438,1455.560791 1434.021851,1455.847656 
	C1430.979736,1456.428955 1427.749390,1456.024170 1424.117432,1456.025879 
z"/>
<path fill="#162E39" opacity="1.000000" stroke="none" 
	d="
M1412.561401,1454.525635 
	C1405.974731,1455.223022 1399.601318,1455.692627 1393.229980,1455.664307 
	C1392.494873,1455.661133 1391.189575,1452.870605 1391.229980,1451.401978 
	C1391.261597,1450.251343 1392.909302,1448.238647 1393.937622,1448.173950 
	C1399.236084,1447.839722 1404.578613,1447.786865 1409.881714,1448.076782 
	C1413.975952,1448.300659 1412.950806,1451.565918 1412.561401,1454.525635 
z"/>
<path fill="#162E39" opacity="1.000000" stroke="none" 
	d="
M1350.967773,1452.854004 
	C1349.599609,1454.195557 1348.302612,1455.794800 1346.897827,1455.895874 
	C1342.262451,1456.229248 1337.587646,1455.985107 1332.928711,1456.034424 
	C1330.234253,1456.062988 1329.015015,1454.882812 1328.973633,1452.135864 
	C1328.928955,1449.157837 1330.202515,1447.896973 1333.157715,1447.954956 
	C1337.648926,1448.043335 1342.145752,1448.070679 1346.635376,1447.945679 
	C1349.862305,1447.855957 1351.276978,1449.241089 1350.967773,1452.854004 
z"/>
<path fill="#162E39" opacity="1.000000" stroke="none" 
	d="
M1314.999512,1447.973999 
	C1317.638916,1447.975464 1319.951782,1447.497192 1321.905396,1448.129517 
	C1323.483154,1448.640259 1325.365112,1450.276611 1325.802734,1451.791748 
	C1326.587524,1454.508423 1324.972046,1456.091187 1321.947266,1456.041382 
	C1317.301270,1455.964722 1312.622803,1456.317017 1308.023560,1455.846802 
	C1306.578003,1455.699097 1304.608398,1453.703979 1304.172485,1452.183350 
	C1303.389404,1449.451782 1305.027222,1447.855103 1308.045410,1447.963379 
	C1310.200195,1448.040894 1312.360107,1447.975708 1314.999512,1447.973999 
z"/>
<path fill="#162E39" opacity="1.000000" stroke="none" 
	d="
M1300.838745,1450.295288 
	C1301.459229,1454.527344 1300.008789,1456.288086 1295.970093,1456.076294 
	C1291.659424,1455.850342 1287.291382,1456.338867 1283.025513,1455.846680 
	C1281.567505,1455.678467 1279.606445,1453.695801 1279.172363,1452.172729 
	C1278.389038,1449.423096 1280.054321,1447.901245 1283.067749,1447.956299 
	C1287.721191,1448.041504 1292.383545,1447.846924 1297.028198,1448.066040 
	C1298.295532,1448.125854 1299.513062,1449.240845 1300.838745,1450.295288 
z"/>
<path fill="#162E39" opacity="1.000000" stroke="none" 
	d="
M1268.833740,1447.974121 
	C1270.468018,1447.983643 1271.977295,1447.538330 1272.715210,1448.102295 
	C1274.042358,1449.116577 1275.752563,1450.753418 1275.724854,1452.097900 
	C1275.697754,1453.420898 1273.805908,1455.710571 1272.569336,1455.825928 
	C1267.796997,1456.270996 1262.958252,1455.954468 1258.146484,1456.044556 
	C1255.198730,1456.099609 1253.954834,1454.837769 1253.969727,1451.871460 
	C1253.985596,1448.731689 1255.639160,1447.888428 1258.403076,1447.957031 
	C1261.720581,1448.039551 1265.041748,1447.974976 1268.833740,1447.974121 
z"/>
<path fill="#162E39" opacity="1.000000" stroke="none" 
	d="
M917.547668,1456.015381 
	C915.793091,1454.440308 914.478760,1452.873047 913.164429,1451.305786 
	C914.943298,1450.195801 916.634399,1448.351562 918.518921,1448.126465 
	C922.610291,1447.637817 926.849915,1447.605103 930.927307,1448.148560 
	C932.710022,1448.386108 935.335510,1450.264893 935.657227,1451.800781 
	C936.278992,1454.768799 933.850708,1456.042358 930.935303,1456.028320 
	C926.619568,1456.007446 922.303772,1456.023071 917.547668,1456.015381 
z"/>
<path fill="#162E39" opacity="1.000000" stroke="none" 
	d="
M737.160522,1447.973999 
	C740.958435,1447.974976 744.340088,1447.613892 747.581421,1448.131104 
	C749.174316,1448.385254 750.507446,1450.267090 751.958252,1451.412231 
	C750.736450,1452.930054 749.634521,1455.617554 748.271484,1455.757324 
	C743.174377,1456.279663 737.975708,1456.181274 732.854980,1455.791626 
	C731.810730,1455.712280 730.214600,1453.375000 730.191772,1452.055664 
	C730.168823,1450.734619 731.547729,1449.027344 732.783875,1448.166504 
	C733.689941,1447.535400 735.357971,1447.998535 737.160522,1447.973999 
z"/>
<path fill="#162E39" opacity="1.000000" stroke="none" 
	d="
M1516.790283,1454.190186 
	C1515.189697,1449.832397 1516.400269,1447.802368 1520.879272,1447.944946 
	C1525.204346,1448.082764 1529.538940,1448.047974 1533.866333,1447.954468 
	C1536.830688,1447.890381 1538.623413,1449.267090 1537.852539,1452.089966 
	C1537.432251,1453.629150 1535.378296,1455.839844 1534.078369,1455.828125 
	C1528.397339,1455.777222 1522.722900,1455.023438 1516.790283,1454.190186 
z"/>
<path fill="#162D38" opacity="1.000000" stroke="none" 
	d="
M1142.410767,1454.522461 
	C1141.208374,1449.648193 1142.748657,1447.573853 1147.598267,1447.915894 
	C1151.738403,1448.208008 1155.931519,1447.783691 1160.064453,1448.123047 
	C1161.125610,1448.210205 1162.898193,1450.029419 1162.847534,1450.972900 
	C1162.758179,1452.642822 1161.538818,1455.653076 1160.762085,1455.662720 
	C1154.719604,1455.737549 1148.670044,1455.229492 1142.410767,1454.522461 
z"/>
<path fill="#162D38" opacity="1.000000" stroke="none" 
	d="
M706.685303,1455.691772 
	C703.637085,1449.995850 704.669189,1448.046875 710.323425,1447.984131 
	C714.149719,1447.941650 717.980225,1448.076416 721.802307,1447.942993 
	C724.550720,1447.847046 726.195374,1448.374634 726.118469,1451.707275 
	C726.043030,1454.975586 724.683716,1456.153442 721.553589,1456.049927 
	C716.735107,1455.890625 711.910400,1455.920410 706.685303,1455.691772 
z"/>
<path fill="#162D38" opacity="1.000000" stroke="none" 
	d="
M687.157227,1456.024414 
	C685.693604,1456.020752 684.404785,1456.411499 683.773132,1455.933472 
	C682.340088,1454.849365 680.261719,1453.337646 680.261902,1451.999878 
	C680.262024,1450.661987 682.359131,1448.326294 683.734070,1448.170776 
	C688.135254,1447.673096 692.660889,1447.678467 697.066223,1448.155884 
	C698.503540,1448.311646 700.444092,1450.303345 700.877380,1451.820312 
	C701.648743,1454.520874 700.056396,1456.118774 697.039795,1456.037964 
	C693.905396,1455.953857 690.767029,1456.022583 687.157227,1456.024414 
z"/>
<path fill="#162D38" opacity="1.000000" stroke="none" 
	d="
M656.700562,1448.304443 
	C662.061951,1448.078735 667.019104,1448.082886 671.973267,1447.960815 
	C674.955444,1447.887329 676.639893,1449.370605 675.879150,1452.123779 
	C675.457275,1453.650391 673.557068,1455.649658 672.111572,1455.841675 
	C668.213074,1456.359253 664.200623,1456.060913 660.234192,1456.014404 
	C654.658264,1455.948853 653.628418,1453.948364 656.700562,1448.304443 
z"/>
<path fill="#162D38" opacity="1.000000" stroke="none" 
	d="
M1092.952393,1455.209717 
	C1091.320679,1448.796753 1091.869629,1448.021240 1097.637817,1447.980957 
	C1101.440186,1447.954468 1105.244385,1448.044434 1109.044922,1447.960693 
	C1112.072632,1447.894043 1113.653320,1449.497437 1112.876709,1452.193970 
	C1112.440186,1453.709473 1110.439453,1455.766479 1109.051880,1455.839355 
	C1103.813354,1456.115112 1098.537354,1455.677856 1092.952393,1455.209717 
z"/>
<path fill="#162D38" opacity="1.000000" stroke="none" 
	d="
M839.944824,1448.776611 
	C845.699768,1448.317139 851.137756,1447.926270 856.546875,1448.172119 
	C857.753601,1448.226929 859.880432,1450.627563 859.760315,1451.753662 
	C859.598633,1453.270142 857.814697,1455.622192 856.470703,1455.813354 
	C852.581543,1456.366577 848.563904,1456.044434 844.597107,1456.018066 
	C838.847839,1455.979858 838.282410,1455.172607 839.944824,1448.776611 
z"/>
<path fill="#162D38" opacity="1.000000" stroke="none" 
	d="
M877.842773,1447.975586 
	C879.306396,1447.979126 880.595337,1447.588379 881.226929,1448.066284 
	C882.659912,1449.150757 884.738342,1450.662354 884.738098,1452.000122 
	C884.737854,1453.338013 882.640869,1455.673706 881.265869,1455.829102 
	C876.864685,1456.326660 872.339111,1456.321533 867.933716,1455.844116 
	C866.496460,1455.688354 864.555969,1453.696655 864.122681,1452.179688 
	C863.351318,1449.479126 864.943604,1447.881348 867.960205,1447.962036 
	C871.094604,1448.046143 874.232971,1447.977539 877.842773,1447.975586 
z"/>
<path fill="#162D38" opacity="1.000000" stroke="none" 
	d="
M895.211792,1456.024414 
	C891.913269,1456.022827 888.479492,1456.438599 889.122314,1452.091431 
	C889.345215,1450.584229 891.293823,1448.320801 892.644165,1448.176270 
	C897.215576,1447.686646 901.905518,1447.686035 906.475098,1448.185425 
	C907.784119,1448.328491 909.601685,1450.715576 909.760986,1452.224243 
	C909.880859,1453.359741 907.855408,1455.643311 906.556824,1455.830200 
	C902.996338,1456.342163 899.315552,1456.017700 895.211792,1456.024414 
z"/>
<path fill="#162D38" opacity="1.000000" stroke="none" 
	d="
M977.846069,1456.024414 
	C974.069763,1456.018188 970.687012,1456.427734 967.502197,1455.812622 
	C966.121216,1455.546021 964.395203,1453.246216 964.238770,1451.724609 
	C964.123474,1450.603149 966.197693,1448.304810 967.473938,1448.166260 
	C971.717651,1447.705444 976.043335,1448.056030 980.334167,1447.951782 
	C983.236572,1447.881348 985.091187,1448.570801 985.087463,1452.016724 
	C985.083740,1455.486328 983.174133,1456.208496 980.301147,1456.028931 
	C979.643188,1455.987793 978.980530,1456.023804 977.846069,1456.024414 
z"/>
<path fill="#162D38" opacity="1.000000" stroke="none" 
	d="
M1033.650879,1456.021240 
	C1029.222046,1456.022583 1025.255981,1455.956055 1021.293457,1456.042969 
	C1018.492432,1456.104370 1016.956970,1455.160400 1016.946045,1452.080688 
	C1016.935486,1449.115479 1018.188965,1447.887573 1021.118652,1447.955811 
	C1025.246094,1448.051880 1029.409424,1447.683472 1033.491211,1448.125854 
	C1035.092529,1448.299316 1037.362915,1449.844360 1037.835205,1451.262207 
	C1038.716064,1453.906372 1037.607910,1456.188599 1033.650879,1456.021240 
z"/>
<path fill="#162D38" opacity="1.000000" stroke="none" 
	d="
M1049.157227,1456.024414 
	C1047.693604,1456.020752 1046.404663,1456.411499 1045.772949,1455.933472 
	C1044.340088,1454.849243 1042.261963,1453.337646 1042.262207,1451.999878 
	C1042.262451,1450.661987 1044.359253,1448.326172 1045.734131,1448.170532 
	C1050.135376,1447.672852 1054.661011,1447.678345 1059.066406,1448.155884 
	C1060.503784,1448.311646 1062.444214,1450.303345 1062.877563,1451.820312 
	C1063.649292,1454.521240 1062.056396,1456.118774 1059.039917,1456.037964 
	C1055.905518,1455.953979 1052.767090,1456.022583 1049.157227,1456.024414 
z"/>
<path fill="#162D38" opacity="1.000000" stroke="none" 
	d="
M1072.278809,1447.976074 
	C1076.541992,1447.977661 1080.390137,1447.628540 1084.113403,1448.157959 
	C1085.565918,1448.364380 1087.457031,1450.348145 1087.879395,1451.873657 
	C1088.639526,1454.619751 1086.965210,1456.108521 1083.982544,1456.041382 
	C1080.021240,1455.952271 1076.056030,1455.995483 1072.093018,1456.033325 
	C1069.474243,1456.058228 1067.093750,1456.059204 1066.944336,1452.388916 
	C1066.796875,1448.762695 1068.608276,1447.699341 1072.278809,1447.976074 
z"/>
<path fill="#162D38" opacity="1.000000" stroke="none" 
	d="
M1122.280762,1456.023926 
	C1118.613159,1456.301270 1116.797485,1455.242798 1116.943970,1451.614380 
	C1117.092041,1447.945557 1119.469482,1447.941162 1122.090332,1447.966553 
	C1126.053589,1448.004883 1130.019043,1448.047729 1133.980591,1447.958496 
	C1136.962524,1447.891479 1138.639282,1449.377319 1137.879395,1452.124878 
	C1137.457397,1453.650757 1135.566772,1455.635742 1134.114624,1455.842163 
	C1130.391113,1456.371338 1126.542725,1456.022217 1122.280762,1456.023926 
z"/>
<path fill="#DC385E" opacity="1.000000" stroke="none" 
	d="
M1845.902344,1404.886963 
	C1847.419189,1403.919189 1848.924194,1402.132690 1850.454468,1402.110840 
	C1865.276489,1401.899292 1880.103638,1401.928955 1894.927246,1402.077637 
	C1896.266479,1402.091064 1897.592407,1403.418579 1898.992188,1404.969238 
	C1899.079712,1408.532715 1899.099731,1411.262939 1899.119629,1413.993286 
	C1897.526123,1414.873657 1895.942993,1416.496338 1894.337646,1416.518433 
	C1879.895264,1416.717041 1865.448364,1416.696167 1851.004883,1416.545898 
	C1849.433105,1416.529419 1847.874146,1415.289062 1846.197632,1413.836426 
	C1846.024902,1410.333252 1845.963623,1407.610107 1845.902344,1404.886963 
z"/>
<path fill="#244456" opacity="1.000000" stroke="none" 
	d="
M1845.440674,1404.906250 
	C1845.963623,1407.610107 1846.024902,1410.333252 1846.034424,1413.501099 
	C1826.656128,1413.949463 1807.329224,1413.924927 1788.002686,1413.982910 
	C1784.546753,1413.993164 1782.011963,1413.239990 1782.126587,1409.101807 
	C1782.225952,1405.518555 1784.395020,1404.889160 1787.498779,1404.901611 
	C1806.658691,1404.978638 1825.818970,1404.931519 1845.440674,1404.906250 
z"/>
<path fill="#22485A" opacity="1.000000" stroke="none" 
	d="
M1511.284790,1433.954468 
	C1510.705688,1431.727905 1509.205811,1429.166748 1509.852783,1427.385498 
	C1510.329590,1426.072388 1513.564941,1425.345703 1515.651855,1425.127075 
	C1519.087891,1424.767090 1522.619385,1424.757446 1526.051025,1425.137329 
	C1527.945312,1425.347168 1530.617065,1426.208130 1531.294556,1427.584595 
	C1531.977539,1428.972290 1530.626099,1431.361328 1529.513184,1433.631836 
	C1523.001709,1433.952759 1517.143188,1433.953613 1511.284790,1433.954468 
z"/>
<path fill="#22485A" opacity="1.000000" stroke="none" 
	d="
M1536.284790,1433.954468 
	C1535.704712,1431.729736 1534.204956,1429.172119 1534.849609,1427.390381 
	C1535.324463,1426.078125 1538.555908,1425.346436 1540.640015,1425.127197 
	C1544.072998,1424.766357 1547.601318,1424.759888 1551.031006,1425.136353 
	C1552.927002,1425.344360 1555.597412,1426.188477 1556.284424,1427.562866 
	C1556.975220,1428.944580 1555.638672,1431.339722 1554.538940,1433.619141 
	C1548.019775,1433.949829 1542.152344,1433.952148 1536.284790,1433.954468 
z"/>
<path fill="#224759" opacity="1.000000" stroke="none" 
	d="
M1762.289062,1433.884644 
	C1759.287231,1427.252075 1760.605103,1425.047119 1767.585571,1425.033325 
	C1770.729614,1425.027100 1773.895264,1424.811279 1777.010010,1425.113403 
	C1778.949707,1425.301636 1782.046753,1425.868164 1782.425537,1427.000488 
	C1783.018555,1428.773682 1781.751221,1431.169312 1780.597900,1433.623779 
	C1774.045532,1433.925659 1768.167358,1433.905151 1762.289062,1433.884644 
z"/>
<path fill="#224759" opacity="1.000000" stroke="none" 
	d="
M1184.346802,1433.948364 
	C1181.242920,1427.351318 1182.581421,1425.048706 1189.535400,1425.033569 
	C1192.686401,1425.026733 1195.858398,1424.812866 1198.980591,1425.112793 
	C1200.928101,1425.299805 1204.038208,1425.853271 1204.420776,1426.986816 
	C1205.019409,1428.760376 1203.750122,1431.164429 1202.597900,1433.623779 
	C1196.064819,1433.946777 1190.205811,1433.947510 1184.346802,1433.948364 
z"/>
<path fill="#224759" opacity="1.000000" stroke="none" 
	d="
M1285.182373,1433.899170 
	C1284.588013,1431.488525 1283.531128,1429.046387 1283.691895,1426.687134 
	C1283.737793,1426.012085 1287.285278,1425.261230 1289.271362,1425.103638 
	C1292.569702,1424.842041 1295.904053,1425.012329 1299.223022,1425.036499 
	C1305.359497,1425.081299 1306.727905,1427.789673 1302.763916,1433.764160 
	C1296.374390,1433.934326 1290.778442,1433.916748 1285.182373,1433.899170 
z"/>
<path fill="#224759" opacity="1.000000" stroke="none" 
	d="
M1260.182373,1433.899170 
	C1259.586060,1431.491699 1258.526733,1429.052856 1258.685425,1426.696289 
	C1258.731079,1426.019897 1262.270508,1425.253296 1264.251221,1425.104614 
	C1267.712036,1424.844971 1271.217651,1424.867432 1274.681763,1425.104004 
	C1276.341309,1425.217285 1279.248291,1425.931152 1279.336548,1426.649780 
	C1279.602051,1428.811523 1278.760132,1431.109253 1277.637451,1433.649902 
	C1271.343872,1433.930298 1265.763062,1433.914673 1260.182373,1433.899170 
z"/>
<path fill="#224759" opacity="1.000000" stroke="none" 
	d="
M1210.182373,1433.899170 
	C1209.567505,1431.510376 1208.485718,1429.093018 1208.628662,1426.750366 
	C1208.670166,1426.068115 1212.180542,1425.269653 1214.149170,1425.106567 
	C1217.428589,1424.834717 1220.758179,1424.868530 1224.044312,1425.096436 
	C1225.881470,1425.223877 1229.076782,1425.751221 1229.216553,1426.534058 
	C1229.596680,1428.665894 1228.676758,1431.029541 1227.598267,1433.623657 
	C1221.343872,1433.930298 1215.763062,1433.914673 1210.182373,1433.899170 
z"/>
<path fill="#224759" opacity="1.000000" stroke="none" 
	d="
M1235.182373,1433.899170 
	C1234.569214,1431.507690 1233.489746,1429.087402 1233.634277,1426.742676 
	C1233.676270,1426.061768 1237.194214,1425.268799 1239.166382,1425.106201 
	C1242.449951,1424.835449 1245.792480,1424.811768 1249.070190,1425.115723 
	C1251.001831,1425.294922 1254.080688,1425.897217 1254.461670,1427.037964 
	C1255.049194,1428.796753 1253.764893,1431.180786 1252.599609,1433.622803 
	C1246.343872,1433.930420 1240.763062,1433.914795 1235.182373,1433.899170 
z"/>
<path fill="#224759" opacity="1.000000" stroke="none" 
	d="
M1310.182373,1433.899170 
	C1309.626953,1431.659546 1308.322876,1429.236450 1308.809082,1427.252075 
	C1309.082031,1426.137573 1312.270996,1425.329346 1314.223511,1425.126099 
	C1317.514404,1424.783691 1320.866821,1425.013184 1324.193237,1425.036499 
	C1330.356201,1425.079834 1331.728516,1427.776978 1327.763916,1433.764282 
	C1321.374390,1433.934448 1315.778442,1433.916870 1310.182373,1433.899170 
z"/>
<path fill="#22485A" opacity="1.000000" stroke="none" 
	d="
M1411.215332,1433.897583 
	C1410.677612,1431.653809 1409.388428,1429.218018 1409.893555,1427.240723 
	C1410.180908,1426.116455 1413.359375,1425.325073 1415.312378,1425.122925 
	C1418.604126,1424.782227 1421.956787,1425.009521 1425.283691,1425.033447 
	C1431.412354,1425.077515 1432.789917,1427.818726 1428.802734,1433.775879 
	C1422.404907,1433.936768 1416.810059,1433.917114 1411.215332,1433.897583 
z"/>
<path fill="#22485A" opacity="1.000000" stroke="none" 
	d="
M1436.215332,1433.897705 
	C1435.677612,1431.653809 1434.388306,1429.218140 1434.893555,1427.240845 
	C1435.180786,1426.116333 1438.359253,1425.324707 1440.312378,1425.122559 
	C1443.604126,1424.781860 1446.956787,1425.009521 1450.283691,1425.033447 
	C1456.412354,1425.077515 1457.789917,1427.818726 1453.802734,1433.776001 
	C1447.404907,1433.936768 1441.810059,1433.917236 1436.215332,1433.897705 
z"/>
<path fill="#22485A" opacity="1.000000" stroke="none" 
	d="
M1461.215332,1433.897583 
	C1460.678711,1431.651611 1459.389771,1429.212769 1459.897461,1427.234741 
	C1460.185913,1426.110229 1463.369995,1425.324219 1465.326172,1425.122437 
	C1468.621338,1424.782715 1471.977173,1425.010010 1475.307251,1425.033203 
	C1481.437012,1425.075928 1482.797974,1427.798462 1478.802856,1433.775635 
	C1472.404907,1433.936768 1466.810059,1433.917114 1461.215332,1433.897583 
z"/>
<path fill="#22485A" opacity="1.000000" stroke="none" 
	d="
M1486.215332,1433.897583 
	C1485.673340,1431.662109 1484.383179,1429.238770 1484.879395,1427.264160 
	C1485.161743,1426.140381 1488.317505,1425.341064 1490.260864,1425.122803 
	C1493.370483,1424.773682 1496.547974,1425.021851 1499.696777,1425.030640 
	C1506.313721,1425.049194 1507.229492,1426.414429 1504.543945,1433.580811 
	C1497.996582,1433.930908 1492.105957,1433.914185 1486.215332,1433.897583 
z"/>
<path fill="#224759" opacity="1.000000" stroke="none" 
	d="
M1637.348022,1433.961426 
	C1634.174805,1427.438477 1635.504395,1425.051514 1642.329102,1425.033813 
	C1645.618652,1425.025269 1648.941772,1424.751343 1652.184692,1425.140137 
	C1654.067505,1425.365845 1656.720459,1426.234375 1657.381348,1427.606323 
	C1658.049316,1428.992432 1656.685547,1431.357422 1655.552612,1433.619263 
	C1649.044922,1433.950439 1643.196533,1433.955933 1637.348022,1433.961426 
z"/>
<path fill="#224759" opacity="1.000000" stroke="none" 
	d="
M1662.288940,1433.884766 
	C1659.270752,1427.194580 1660.557739,1425.045410 1667.594849,1425.033325 
	C1670.750977,1425.027832 1673.941772,1424.751587 1677.050293,1425.136108 
	C1678.965942,1425.372925 1681.654053,1426.171021 1682.350342,1427.548706 
	C1683.049927,1428.932495 1681.709473,1431.347656 1680.593506,1433.628418 
	C1674.045532,1433.925659 1668.167236,1433.905151 1662.288940,1433.884766 
z"/>
<path fill="#224759" opacity="1.000000" stroke="none" 
	d="
M1687.289062,1433.884644 
	C1684.270752,1427.194458 1685.557739,1425.045410 1692.594849,1425.033325 
	C1695.750977,1425.027954 1698.941772,1424.751587 1702.050293,1425.136108 
	C1703.965942,1425.372803 1706.653809,1426.171021 1707.350464,1427.548706 
	C1708.050049,1428.932373 1706.709473,1431.347656 1705.593506,1433.628418 
	C1699.045532,1433.925537 1693.167358,1433.905151 1687.289062,1433.884644 
z"/>
<path fill="#224759" opacity="1.000000" stroke="none" 
	d="
M1712.289062,1433.884644 
	C1709.286499,1427.236816 1710.604736,1425.046509 1717.622681,1425.033203 
	C1720.774902,1425.027222 1723.962036,1424.750732 1727.066284,1425.136230 
	C1728.978271,1425.373779 1731.661621,1426.178101 1732.354248,1427.555054 
	C1733.050903,1428.940308 1731.710693,1431.349976 1730.593506,1433.628418 
	C1724.045532,1433.925537 1718.167358,1433.905151 1712.289062,1433.884644 
z"/>
<path fill="#224759" opacity="1.000000" stroke="none" 
	d="
M1737.289062,1433.884644 
	C1734.286499,1427.236816 1735.604736,1425.046509 1742.622681,1425.033203 
	C1745.774902,1425.027344 1748.962036,1424.750732 1752.066284,1425.136230 
	C1753.978149,1425.373657 1756.661621,1426.178101 1757.354126,1427.555176 
	C1758.050781,1428.940430 1756.710693,1431.349976 1755.593506,1433.628418 
	C1749.045532,1433.925537 1743.167358,1433.905151 1737.289062,1433.884644 
z"/>
<path fill="#244456" opacity="1.000000" stroke="none" 
	d="
M1899.570435,1413.981201 
	C1899.099731,1411.262939 1899.079712,1408.532715 1899.118896,1405.345337 
	C1902.323730,1404.908569 1905.472412,1405.025757 1908.613770,1404.921631 
	C1911.664551,1404.820557 1913.233276,1406.618530 1912.693970,1409.140381 
	C1912.312622,1410.923096 1910.521851,1413.282471 1908.904419,1413.727417 
	C1906.131104,1414.490479 1903.001221,1413.957642 1899.570435,1413.981201 
z"/>

<path fill="#22485A" opacity="1.000000" stroke="none" 
	d="
M1530.558105,1434.808350 
	C1530.213379,1434.761108 1530.158691,1434.527588 1530.150391,1434.411621 
	C1531.155273,1434.291992 1532.168579,1434.288330 1533.405762,1434.471436 
	C1532.720703,1434.723999 1531.811646,1434.789795 1530.558105,1434.808350 
z"/>

<path fill="#FEFEFE" opacity="1.000000" stroke="none" 
	d="
M1278.895142,1282.067749 
	C1278.929932,1280.070068 1278.995117,1278.072388 1278.995117,1276.074707 
	C1278.999634,1003.995422 1278.999512,731.916077 1279.001099,459.836792 
	C1279.001099,457.837677 1279.023193,455.838531 1278.998047,453.364563 
	C1279.615723,458.123047 1280.502808,463.339325 1280.888550,468.592438 
	C1283.883545,509.386444 1286.808105,550.185669 1289.702393,590.987000 
	C1292.514038,630.623901 1295.226562,670.267883 1298.051025,709.903931 
	C1300.888062,749.713867 1303.840942,789.515564 1306.683716,829.325134 
	C1308.828003,859.351440 1310.835693,889.387512 1312.982544,919.413635 
	C1315.519775,954.897583 1318.182007,990.372498 1320.715088,1025.856812 
	C1323.201416,1060.689697 1325.558105,1095.531860 1328.036499,1130.365356 
	C1330.868164,1170.164917 1333.802734,1209.957397 1336.618774,1249.758057 
	C1337.228638,1258.378418 1337.498291,1267.022583 1337.989746,1275.651978 
	C1338.072754,1277.110596 1338.487915,1278.550171 1338.715698,1280.466797 
	C1321.109009,1281.338745 1303.536133,1281.728516 1285.964355,1282.165527 
	C1283.987305,1282.214722 1282.016968,1282.529541 1279.601196,1282.529663 
	C1279.158936,1282.338135 1278.895142,1282.067749 1278.895142,1282.067749 
z"/>
<path fill="#29516A" opacity="1.000000" stroke="none" 
	d="
M1278.516113,1281.949707 
	C1278.895142,1282.067749 1279.158936,1282.338135 1279.192383,1282.522705 
	C1258.994263,1283.330811 1238.762939,1283.954468 1218.114990,1284.427612 
	C1219.155273,1262.395264 1220.571533,1240.510498 1222.079834,1218.632202 
	C1223.702026,1195.104248 1225.404053,1171.581665 1227.083984,1148.057617 
	C1228.396973,1129.670166 1229.739990,1111.284912 1231.051025,1092.897339 
	C1233.070679,1064.567627 1235.065796,1036.236206 1237.087646,1007.906738 
	C1238.388306,989.683655 1239.686401,971.460266 1241.042847,953.241272 
	C1242.941895,927.737549 1244.963379,902.242798 1246.799683,876.734619 
	C1248.004761,859.994934 1248.872925,843.230896 1250.077393,826.491150 
	C1251.555054,805.952454 1253.299194,785.433044 1254.790527,764.895264 
	C1255.969849,748.656067 1256.857666,732.395691 1258.026001,716.155640 
	C1259.538696,695.123291 1261.235352,674.104248 1262.786011,653.074524 
	C1263.580200,642.305054 1264.175903,631.521057 1264.953979,620.750305 
	C1266.533081,598.888184 1268.215576,577.033569 1269.775513,555.170105 
	C1270.603271,543.568298 1271.177368,531.948303 1272.019531,520.347656 
	C1273.496826,499.997345 1275.092041,479.655640 1277.054199,459.136749 
	C1277.378906,461.121735 1277.207031,463.280304 1277.206909,465.438873 
	C1277.194946,735.514221 1277.193359,1005.589600 1277.234375,1275.664917 
	C1277.234619,1277.720581 1277.823242,1279.776123 1278.516113,1281.949707 
z"/>
</svg>