<svg version="1.1" id="Layer_1" xmlns="http://www.w3.org/2000/svg" xmlns:xlink="http://www.w3.org/1999/xlink" x="0px" y="0px"
	 width="100%" viewBox="0 0 2546 1581" xml:space="preserve">
<path fill="#FAFAFA" opacity="1.000000" stroke="none" 
	d="
M1338.531372,1.000012 
	C1339.819214,1.663247 1340.608398,2.859313 1341.462158,2.907139 
	C1349.858643,3.377539 1358.289307,3.371447 1366.664795,4.056466 
	C1379.834106,5.133576 1392.966797,6.653766 1406.117676,7.959671 
	C1416.512817,8.991940 1426.935425,9.789944 1437.303345,11.043794 
	C1449.937744,12.571753 1462.527466,14.468080 1475.857666,16.572460 
	C1477.740723,17.033323 1478.917358,17.040358 1480.062866,17.232738 
	C1528.380981,25.347631 1576.197266,35.728359 1623.329956,49.154099 
	C1747.769409,84.600693 1864.076904,137.833969 1972.133179,209.005707 
	C2056.084961,264.300964 2132.369385,328.721313 2201.271484,401.929138 
	C2286.495361,492.479034 2357.159912,593.201904 2412.908691,704.348755 
	C2452.795654,783.870911 2483.795898,866.749390 2506.022461,952.898743 
	C2517.484619,997.324829 2527.025146,1042.165161 2532.920654,1087.674194 
	C2536.914551,1118.505981 2539.847412,1149.479492 2542.956055,1180.419556 
	C2544.086182,1191.668457 2544.305908,1203.007202 2545.087158,1214.294800 
	C2545.152344,1215.236206 2546.336182,1216.100098 2547.000000,1217.000000 
	C2547.000000,1244.020874 2547.000000,1271.041870 2546.610840,1298.286377 
	C2545.914062,1299.593262 2545.397949,1300.663940 2545.331299,1301.761963 
	C2544.506836,1315.365112 2544.269775,1329.026001 2542.868896,1342.567505 
	C2539.382080,1376.274902 2535.372803,1409.928345 2531.573486,1443.603394 
	C2463.474121,1443.614380 2395.374756,1443.625366 2326.743164,1443.282227 
	C2326.282959,1441.946045 2326.284668,1440.953125 2326.437988,1439.984009 
	C2328.953125,1424.066772 2332.058594,1408.217773 2333.888428,1392.222900 
	C2336.931152,1365.625366 2339.269531,1338.944458 2341.668213,1312.277466 
	C2342.498779,1303.047485 2342.626465,1293.754028 2343.102539,1283.922852 
	C2303.260986,1283.922852 2263.866455,1283.922852 2224.457275,1283.922852 
	C2224.457275,1281.138550 2224.457275,1278.912109 2224.457275,1276.098389 
	C2264.208252,1276.098389 2303.593262,1276.098389 2343.995605,1276.098389 
	C2343.103516,1246.795410 2342.230225,1218.117554 2341.348877,1189.166016 
	C2320.506836,1190.977905 2300.628174,1192.695190 2280.751709,1194.437988 
	C2269.149658,1195.455444 2257.553711,1196.547729 2245.945312,1197.482666 
	C2245.097900,1197.550781 2244.168945,1196.609985 2243.278076,1196.138306 
	C2243.919922,1195.335449 2244.417725,1194.289673 2245.244873,1193.799683 
	C2246.041504,1193.327759 2247.173584,1193.372559 2248.166504,1193.288330 
	C2273.032227,1191.180542 2297.900879,1189.103760 2322.764893,1186.975220 
	C2328.502197,1186.484009 2334.225098,1185.822998 2341.013428,1185.132446 
	C2337.551025,1155.933960 2334.162598,1127.361694 2330.744873,1098.540405 
	C2289.800537,1105.783813 2250.292969,1112.772949 2210.548584,1119.803955 
	C2210.041260,1116.994141 2209.646484,1114.808350 2209.162354,1112.126587 
	C2249.313232,1104.997925 2289.130371,1097.928345 2329.577881,1090.746948 
	C2323.557129,1062.033813 2317.642334,1033.826172 2311.683105,1005.406372 
	C2309.238037,1005.950867 2307.949707,1006.189453 2306.687500,1006.525940 
	C2277.177734,1014.392761 2247.676025,1022.290649 2218.143799,1030.072998 
	C2216.931641,1030.392456 2215.437988,1029.645020 2214.075439,1029.394531 
	C2215.085693,1028.412109 2215.937988,1026.870728 2217.130371,1026.534302 
	C2227.672852,1023.559875 2238.278564,1020.810730 2248.859619,1017.973145 
	C2269.192627,1012.520447 2289.521484,1007.053284 2310.716309,1001.359985 
	C2302.240234,973.218384 2293.858154,945.389526 2285.409912,917.340271 
	C2245.690918,931.822510 2207.219238,945.849976 2168.469971,959.978760 
	C2167.483398,957.401917 2166.626953,955.165405 2165.663330,952.648743 
	C2204.797852,938.364746 2243.389648,924.278748 2282.823486,909.885437 
	C2271.875488,882.655762 2261.122070,855.910461 2250.227051,828.812195 
	C2218.766357,843.473938 2188.122314,857.755127 2157.453125,872.048035 
	C2154.544678,868.841248 2156.908691,867.996948 2159.120850,866.967163 
	C2177.644043,858.344116 2196.154785,849.694397 2214.667969,841.049133 
	C2225.724609,835.885925 2236.777832,830.716370 2248.604248,825.189209 
	C2235.290283,798.926880 2222.240723,773.186035 2209.032715,747.132690 
	C2171.951904,768.463196 2135.717773,789.306702 2099.196289,810.315552 
	C2097.811768,807.775208 2096.723145,805.778259 2095.438965,803.421936 
	C2131.979004,782.377991 2168.203857,761.515503 2205.167236,740.227783 
	C2189.424072,715.090637 2174.024658,690.501892 2158.525879,665.754639 
	C2152.036865,670.302002 2146.591797,674.121948 2141.142334,677.935669 
	C2119.459961,693.110291 2097.767822,708.270752 2076.106689,723.475891 
	C2073.981934,724.967346 2072.146729,726.248047 2071.060303,722.145142 
	C2099.213623,702.426270 2127.394043,682.688538 2156.291748,662.448364 
	C2138.549561,638.876953 2121.075928,615.662231 2103.394775,592.171692 
	C2070.246582,620.031433 2037.915649,647.204468 2005.245728,674.662231 
	C2003.483887,672.515198 2001.958130,670.655884 2000.242798,668.565735 
	C2032.939331,641.070496 2065.296387,613.860657 2098.343018,586.070862 
	C2078.778564,564.351257 2059.332275,542.763184 2039.747803,521.021362 
	C2014.345947,546.454102 1989.655273,571.174866 1965.131714,595.728333 
	C1960.151489,593.304871 1963.282471,591.621094 1964.869751,590.030273 
	C1985.942261,568.912659 2007.029053,547.809448 2028.158813,526.749329 
	C2030.853882,524.063171 2033.812012,521.641052 2037.264893,518.543274 
	C2015.442017,498.030426 1994.361694,478.215576 1973.043701,458.177429 
	C1944.567749,491.672272 1916.700073,524.451538 1888.629395,557.469666 
	C1886.427490,555.432434 1884.676392,553.812195 1882.841553,552.114624 
	C1910.993408,518.976685 1938.747192,486.307281 1967.036499,453.007446 
	C1943.581909,434.623779 1920.597534,416.608612 1897.335449,398.375824 
	C1892.877441,404.693451 1889.034424,410.105133 1885.226929,415.541626 
	C1869.279663,438.310852 1853.323975,461.074280 1837.432251,483.882263 
	C1835.874023,486.118622 1834.627686,487.865662 1832.324951,484.314453 
	C1852.747681,455.138123 1873.205322,425.912140 1894.134399,396.012482 
	C1869.305908,379.804535 1844.990967,363.931885 1820.283691,347.803070 
	C1797.870361,386.482086 1775.992920,424.236542 1753.943237,462.288055 
	C1751.419189,460.727203 1749.397339,459.476929 1747.255493,458.152374 
	C1769.390015,419.925293 1791.207764,382.245178 1813.494263,343.755676 
	C1787.282471,329.840057 1761.227661,316.007721 1735.525391,302.362579 
	C1719.696899,336.304901 1704.360474,369.192047 1689.024170,402.079193 
	C1688.390381,402.029175 1687.756592,401.979156 1687.122925,401.929169 
	C1686.974731,400.566498 1686.266235,398.944519 1686.759644,397.878876 
	C1701.676758,365.654144 1716.712158,333.484253 1732.036377,300.647491 
	C1705.022827,289.206360 1677.897461,277.717865 1650.512573,266.119507 
	C1635.002075,308.617615 1619.878052,350.056793 1604.619995,391.863068 
	C1602.044800,390.878906 1599.822754,390.029663 1597.285034,389.059784 
	C1612.560669,347.167511 1627.651611,305.781799 1643.118530,263.365204 
	C1614.668091,254.257416 1586.625122,245.280045 1558.245117,236.194794 
	C1557.901611,239.018158 1557.895142,240.837784 1557.441406,242.538116 
	C1548.799194,274.927216 1540.130249,307.309357 1531.335693,339.657288 
	C1530.937012,341.124329 1529.302246,342.255310 1528.243164,343.542786 
	C1528.089844,341.800385 1527.438843,339.927063 1527.857910,338.335297 
	C1534.066284,314.744659 1540.406128,291.188568 1546.737671,267.630432 
	C1549.548950,257.170532 1552.411743,246.724457 1555.463989,235.488464 
	C1527.230103,229.074371 1498.471924,222.541199 1469.277588,215.908936 
	C1461.200439,260.513367 1453.307129,304.101837 1445.430054,347.600739 
	C1438.515991,348.349731 1437.388428,347.665771 1438.208252,343.125031 
	C1444.287598,309.446136 1450.416260,275.776184 1456.522095,242.102066 
	C1458.137939,233.190613 1459.727783,224.274445 1461.376099,215.101059 
	C1431.419189,209.958527 1402.009888,205.731705 1373.430420,203.503510 
	C1370.191895,240.938080 1367.047363,277.286926 1363.911255,313.537750 
	C1360.111206,314.864685 1359.970337,312.921814 1360.201172,310.393738 
	C1360.957520,302.109863 1361.622803,293.817688 1362.365356,285.532532 
	C1364.822998,258.113312 1367.299316,230.695755 1369.843872,202.439682 
	C1340.491455,201.036469 1310.987915,199.626038 1280.997314,198.192322 
	C1280.997314,244.128159 1280.997314,288.875519 1280.997314,333.626862 
	C1278.189453,333.626862 1275.829468,333.626862 1273.147461,333.626862 
	C1273.147461,288.637939 1273.147461,244.031860 1273.147461,198.212463 
	C1242.941040,199.433701 1213.120850,200.639313 1183.832031,201.823441 
	C1187.278442,240.145782 1190.625122,277.360596 1193.971802,314.575409 
	C1193.343018,314.842255 1192.714233,315.109070 1192.085449,315.375916 
	C1191.323486,314.046661 1190.010254,312.768463 1189.881592,311.380585 
	C1187.519165,285.866455 1185.275146,260.341278 1183.059448,234.813751 
	C1182.143799,224.265335 1181.354126,213.705994 1180.427856,202.162918 
	C1151.373169,205.864960 1122.300781,209.569275 1093.057861,213.295303 
	C1101.121338,258.591888 1108.946289,302.548157 1116.912964,347.300720 
	C1114.143188,347.606628 1111.682373,347.878418 1109.117432,348.161713 
	C1101.171509,303.612030 1093.336304,259.682709 1085.290527,214.573288 
	C1055.559692,221.132019 1026.474976,227.548233 996.741272,234.107605 
	C998.308411,237.961105 999.734863,240.672287 1000.529114,243.557556 
	C1004.272644,257.157654 1007.837036,270.807037 1011.476501,284.435883 
	C1016.443970,303.037476 1021.434204,321.633057 1026.383789,340.239410 
	C1027.293091,343.657898 1027.224976,343.676025 1023.376892,344.263214 
	C1013.766113,308.155121 1004.147217,272.016785 994.251953,234.840118 
	C966.538940,243.525345 938.510986,252.309265 910.068787,261.223022 
	C926.068176,304.614471 941.604492,346.750092 957.271057,389.238892 
	C954.551392,390.220673 952.340759,391.018707 949.893372,391.902222 
	C934.068115,349.031677 918.507446,306.877869 902.632751,263.873474 
	C874.668152,275.577667 847.195251,287.076019 819.254028,298.770416 
	C821.218140,301.689911 822.778442,303.463165 823.737976,305.517090 
	C838.220032,336.519012 852.589111,367.573761 867.099609,398.562317 
	C868.498901,401.550751 867.598999,402.343445 864.580688,402.525574 
	C848.817810,368.544281 833.082581,334.622681 816.978394,299.905609 
	C791.430359,313.280640 765.461487,326.876038 739.310608,340.566681 
	C762.298340,380.425201 784.706543,419.278900 807.277771,458.415161 
	C804.836121,459.835754 802.772156,461.036652 800.482605,462.368774 
	C777.740601,422.965851 755.310608,384.103577 732.451782,344.498322 
	C706.859802,361.063843 681.626953,377.396851 657.061462,393.297913 
	C678.972046,424.465759 700.315552,454.827026 721.632385,485.150299 
	C718.437134,489.248474 717.293030,485.885498 716.049133,484.113953 
	C696.919800,456.870087 677.827576,429.600159 658.769958,402.306091 
	C657.332520,400.247406 656.221375,397.960846 654.535278,395.049316 
	C630.993530,413.331940 608.025330,431.169128 584.742981,449.250305 
	C614.078003,483.976807 642.852234,518.039429 671.867493,552.387390 
	C669.666870,554.196350 667.807373,555.724976 665.787354,557.385559 
	C636.696838,522.984680 607.936890,488.974701 578.656494,454.349304 
	C556.382874,475.088959 534.616699,495.356079 512.115479,516.307678 
	C538.884338,543.079407 564.836365,569.034119 591.112976,595.313538 
	C590.093994,597.351807 588.588867,595.947021 586.879822,594.226257 
	C577.484436,584.766357 568.040833,575.354370 558.613831,565.925842 
	C542.796448,550.106079 526.979126,534.286194 510.614563,517.919067 
	C491.273895,539.206909 471.620575,560.838867 451.724792,582.737732 
	C486.505280,611.804443 520.424438,640.151306 554.490601,668.621094 
	C552.733765,670.857910 551.322449,672.654846 549.628479,674.811584 
	C515.345398,646.189636 481.406616,617.855103 446.611298,588.805420 
	C428.289154,613.008667 410.271881,636.809143 392.745117,659.961670 
	C423.455597,681.435730 453.211578,702.242371 482.861511,722.974854 
	C481.716156,727.406677 479.782410,725.710571 477.783142,724.309021 
	C454.474792,707.970520 431.148712,691.657288 407.836151,675.324768 
	C402.284027,671.434937 396.764526,667.498474 390.552887,663.104492 
	C375.273926,687.352905 359.723114,712.032898 344.039093,736.924255 
	C383.057800,759.465942 421.037903,781.407715 459.332336,803.531006 
	C457.908936,805.952209 456.694336,808.018188 455.348114,810.308105 
	C416.902374,788.112061 378.927856,766.188110 340.071686,743.755127 
	C326.427795,770.500427 313.008667,796.805176 299.465576,823.352844 
	C332.774841,838.910278 365.467529,854.179688 398.008423,869.378235 
	C397.444397,873.700684 395.470093,872.511169 393.389648,871.534729 
	C379.852356,865.181213 366.291168,858.878662 352.740540,852.553528 
	C334.696411,844.130798 316.654816,835.702698 297.878296,826.934265 
	C286.935638,853.994568 276.123871,880.731262 265.122681,907.936279 
	C306.964691,923.106079 347.883301,937.941101 388.990265,952.844421 
	C387.966187,955.596680 387.176178,957.719971 386.256317,960.192139 
	C345.089935,945.288330 304.286621,930.515930 262.447601,915.368591 
	C253.826019,943.972351 245.341660,972.120911 236.786407,1000.504639 
	C249.372757,1003.905396 260.724854,1006.990784 272.087036,1010.038574 
	C293.248627,1015.715149 314.415955,1021.370178 335.581482,1027.032104 
	C336.222504,1027.203613 337.064941,1027.153442 337.473328,1027.553711 
	C338.357147,1028.420044 339.020020,1029.511597 339.773254,1030.511230 
	C338.676605,1030.747192 337.467010,1031.411377 336.499786,1031.156372 
	C312.909790,1024.935425 289.347076,1018.611023 265.775970,1012.318298 
	C256.051514,1009.722229 246.318954,1007.156494 235.768646,1004.359070 
	C229.758804,1033.097534 223.869934,1061.257568 217.928543,1089.668701 
	C261.126923,1097.369019 303.092316,1104.849731 345.928040,1112.485474 
	C343.832062,1115.244263 347.081482,1120.645386 340.907776,1119.558350 
	C308.514160,1113.854858 276.157196,1107.943604 243.779587,1102.148804 
	C235.018219,1100.580688 226.229416,1099.165649 216.600098,1097.535889 
	C213.115067,1127.078003 209.694748,1156.071777 206.219223,1185.533447 
	C241.617111,1188.650513 275.964081,1191.675171 310.311035,1194.699829 
	C310.458984,1195.353882 310.606903,1196.007812 310.754852,1196.661865 
	C309.525970,1197.160278 308.253754,1198.178955 307.074615,1198.080688 
	C280.548248,1195.870850 254.033463,1193.522461 227.513153,1191.239258 
	C220.625778,1190.646240 213.727097,1190.184204 205.863861,1189.588623 
	C204.995377,1218.859497 204.149094,1247.382568 203.291061,1276.301025 
	C246.313049,1276.301025 288.086243,1276.301025 330.264069,1276.301025 
	C330.264069,1279.020752 330.264069,1281.381592 330.264069,1284.051270 
	C288.083221,1284.051270 246.282639,1284.051270 204.310928,1284.051270 
	C205.885437,1336.443848 211.539886,1388.091309 220.711304,1439.645874 
	C152.015900,1439.645874 83.617218,1439.645874 14.604517,1439.645874 
	C12.083088,1418.324951 9.559420,1397.197876 7.097072,1376.063721 
	C6.045984,1367.042358 5.122906,1358.005859 4.141659,1348.976318 
	C3.757623,1338.118774 3.403359,1327.260010 2.940814,1316.405762 
	C2.897345,1315.385742 2.171528,1314.394897 1.381258,1313.695312 
	C1.000000,1279.312378 1.000000,1244.624878 1.000019,1209.468628 
	C1.663559,1208.027100 2.858892,1207.080322 2.908093,1206.077271 
	C3.384758,1196.359985 3.669168,1186.633301 4.268334,1176.157471 
	C7.330773,1149.444092 9.769660,1123.437012 13.014108,1097.530884 
	C19.151648,1048.524292 28.982655,1000.193115 41.403042,952.416077 
	C77.755341,812.581177 136.238022,682.687622 217.149155,562.949402 
	C266.718292,489.593353 323.343719,422.151154 386.882050,360.479797 
	C422.284210,326.117920 459.418121,293.782257 498.507690,263.699249 
	C616.042908,173.245270 745.435608,105.371468 886.754028,60.349163 
	C939.343140,43.594894 992.821167,30.330172 1047.219727,20.854677 
	C1055.833862,19.354229 1064.397705,17.566357 1072.984863,15.911374 
	C1084.922607,14.284445 1096.845093,12.531170 1108.802979,11.069896 
	C1118.669678,9.864183 1128.577148,8.990874 1138.468994,7.993962 
	C1151.772461,6.653222 1165.062866,5.144858 1178.388428,4.075334 
	C1187.089355,3.376986 1195.845459,3.383607 1204.570312,2.944127 
	C1206.265625,2.858732 1207.930542,2.171620 1209.304688,1.381032 
	C1252.020874,1.000000 1295.041870,1.000000 1338.531372,1.000012 
M2270.197266,817.084839 
	C2270.451172,817.346619 2270.705322,817.608398 2270.349121,818.244812 
	C2268.134521,819.335083 2265.920166,820.425415 2263.816895,821.460815 
	C2274.961182,849.138977 2286.024902,876.616394 2297.290771,904.596680 
	C2322.958252,895.253906 2348.858643,885.826416 2375.116455,876.268738 
	C2376.028809,879.069641 2376.726074,881.209473 2377.535400,883.694397 
	C2351.297363,893.291016 2325.400391,902.762817 2299.926758,912.079895 
	C2308.678223,941.224304 2317.228760,969.698853 2325.822021,998.316223 
	C2329.944092,997.268433 2333.954102,996.249023 2337.960693,995.780090 
	C2337.965820,996.146851 2337.971191,996.513550 2337.281250,997.173706 
	C2333.498779,998.249756 2329.716553,999.325745 2326.304443,1000.296448 
	C2332.477783,1029.770874 2338.576416,1058.888062 2344.692139,1088.087769 
	C2371.077637,1083.418823 2397.333740,1078.772705 2424.101562,1074.036133 
	C2424.511230,1076.772949 2424.862793,1079.121582 2425.256836,1081.753784 
	C2398.379150,1086.541260 2371.985596,1091.242432 2345.949219,1095.880127 
	C2349.474609,1126.010010 2352.920410,1155.459473 2356.372559,1184.965576 
	C2359.002930,1184.741089 2361.477295,1184.529907 2363.941895,1184.835449 
	C2363.953857,1185.179443 2363.965820,1185.523315 2363.174561,1186.000610 
	C2360.774170,1186.354492 2358.373779,1186.708374 2356.466064,1186.989624 
	C2357.514648,1216.974121 2358.541992,1246.361328 2359.589600,1276.321045 
	C2385.244873,1276.321045 2411.116455,1276.321045 2437.144531,1276.321045 
	C2437.144531,1279.150513 2437.144531,1281.411499 2437.144531,1284.297729 
	C2410.685547,1284.297729 2384.478027,1284.297729 2358.837646,1284.297729 
	C2357.082275,1308.849854 2355.874512,1332.787354 2353.525391,1356.612305 
	C2351.179688,1380.401978 2347.691895,1404.078857 2344.689453,1427.927246 
	C2345.196289,1427.964478 2346.016357,1428.076904 2346.836426,1428.077148 
	C2376.167480,1428.086548 2405.498291,1428.085693 2434.829346,1428.085938 
	C2461.327148,1428.086182 2487.824951,1428.086060 2514.322754,1428.085449 
	C2516.627441,1428.085449 2518.755859,1428.558838 2519.133057,1424.874023 
	C2521.351074,1403.204346 2524.183105,1381.593750 2526.168213,1359.904663 
	C2530.175781,1316.118408 2532.093750,1272.269653 2530.338379,1228.260376 
	C2528.718994,1187.668335 2525.465820,1147.259521 2520.260986,1106.973389 
	C2514.699219,1063.928467 2506.912354,1021.296387 2496.781494,979.120361 
	C2470.884766,871.305786 2431.538818,768.646301 2378.233398,671.354431 
	C2315.342041,556.566589 2236.301514,454.245697 2141.727783,363.828339 
	C2076.495605,301.462799 2005.455811,246.657516 1928.505005,199.524353 
	C1826.556763,137.080017 1717.808960,90.361580 1602.384766,59.306900 
	C1520.770386,37.348675 1437.751221,23.827738 1353.349976,18.699066 
	C1307.943848,15.939938 1262.553101,15.371649 1217.112915,17.384190 
	C1170.542236,19.446798 1124.212891,23.980637 1078.159790,31.127590 
	C1032.342896,38.237892 987.041321,47.872112 942.285278,60.025665 
	C855.240784,83.662704 771.683533,116.270584 691.815796,158.151016 
	C574.731201,219.546936 469.940979,297.557739 377.233032,391.839233 
	C338.760742,430.964569 302.865967,472.291473 269.729279,516.011353 
	C187.600037,624.370972 124.704865,742.951843 81.353218,871.821594 
	C56.140026,946.771912 37.728767,1023.395935 27.990248,1101.906006 
	C23.570816,1137.534546 20.551331,1173.369019 18.041275,1209.190430 
	C16.427023,1232.227417 15.973342,1255.437866 16.658875,1278.521240 
	C17.572029,1309.269165 19.770397,1339.993530 22.056675,1370.680420 
	C23.387257,1388.539673 25.969429,1406.305786 28.012085,1424.322266 
	C86.284576,1424.322266 144.015488,1424.322266 201.011597,1424.322266 
	C196.467438,1377.592651 191.940445,1331.039673 187.346527,1283.798340 
	C163.797470,1283.798340 139.086456,1283.798340 114.651505,1283.798340 
	C114.651505,1280.960815 114.651505,1278.730591 114.651505,1276.080078 
	C139.326126,1276.080078 163.581894,1276.080078 188.228760,1276.080078 
	C188.228760,1272.517822 188.225113,1269.386719 188.229462,1266.255615 
	C188.240768,1258.090088 187.991791,1249.913818 188.322632,1241.761230 
	C189.063660,1223.500610 190.093887,1205.251709 191.522919,1186.554077 
	C191.609680,1185.893555 191.696442,1185.233154 191.671982,1183.696167 
	C194.821426,1154.179688 197.970871,1124.663086 201.167740,1094.702148 
	C176.148300,1090.222656 150.603714,1085.649170 124.788445,1081.027344 
	C125.496902,1078.026733 126.014122,1075.836060 126.578583,1073.445312 
	C152.225479,1077.997437 177.517639,1082.486450 203.281631,1087.059326 
	C204.058060,1082.751953 204.674683,1078.694946 205.530258,1074.688965 
	C210.588745,1051.004150 215.748398,1027.340820 220.683334,1003.630615 
	C220.976242,1002.223328 219.615021,1000.471680 219.021118,998.330017 
	C219.025848,997.963196 219.030579,997.596375 219.845612,997.286987 
	C220.332748,997.519409 220.819885,997.751831 221.502289,998.078735 
	C221.740585,998.068359 221.913010,997.959351 222.297867,996.951172 
	C230.729263,968.153503 239.160660,939.355774 247.738647,910.057434 
	C223.281006,901.174988 198.250397,892.084351 172.899719,882.877563 
	C173.893600,880.206116 174.715118,877.997986 175.625946,875.549805 
	C201.100418,884.760498 225.990265,893.759827 250.647842,902.675171 
	C261.958710,874.748352 273.078064,847.294373 284.254303,819.699890 
	C282.512177,818.754395 280.776093,817.812134 279.332458,816.425842 
	C279.632172,816.238220 279.931885,816.050537 280.934662,815.959167 
	C282.452393,816.613281 283.970123,817.267456 285.113831,817.760376 
	C298.995819,790.507935 312.823517,763.362061 326.732483,736.056580 
	C303.169830,722.430908 279.505463,708.746338 255.739029,695.002808 
	C257.270447,692.477478 258.441223,690.546814 259.804199,688.299255 
	C283.791931,702.138184 307.344269,715.725952 330.747192,729.227478 
	C331.370148,728.748047 331.706055,728.604187 331.866547,728.349670 
	C347.028473,704.306213 362.187683,680.260986 377.281555,656.174805 
	C377.798920,655.349182 377.653534,654.108215 378.320953,652.852417 
	C378.546539,652.571594 378.772095,652.290833 379.696350,651.978027 
	C379.975677,651.805176 380.339996,651.695496 380.522278,651.450378 
	C398.485077,627.299683 416.434082,603.138794 434.570618,578.727234 
	C413.642426,561.242981 392.208130,543.335938 370.457153,525.164307 
	C372.256439,523.049683 373.816498,521.216309 375.566681,519.159424 
	C397.291656,537.293335 418.734314,555.191589 439.859711,572.825073 
	C460.196167,550.476318 480.232025,528.457947 501.518158,505.065582 
	C481.956879,485.180450 462.147827,465.043427 442.338776,444.906403 
	C442.256592,444.992859 442.174408,445.079346 442.092224,445.165802 
	C461.741028,465.398163 481.389832,485.630493 500.857086,505.675873 
	C524.164246,484.003845 546.299194,463.421875 568.714050,442.579529 
	C550.482544,420.989502 532.082214,399.199554 513.510071,377.206116 
	C515.705872,375.365326 517.470215,373.886230 519.536438,372.154083 
	C538.154297,394.161560 556.613403,415.981354 574.607239,437.251129 
	C597.897522,419.518433 620.810364,402.101288 643.642090,384.578583 
	C644.490112,383.927765 644.548279,382.247894 645.211487,380.606293 
	C645.471436,380.405701 645.731323,380.205078 646.581482,380.445282 
	C647.706299,380.353088 649.089417,380.654846 649.918457,380.111420 
	C674.784790,363.811798 699.596436,347.428711 724.622375,330.923035 
	C710.495667,306.421600 696.013672,281.303955 681.304749,255.792709 
	C683.745239,254.367523 685.800659,253.167252 688.080200,251.836060 
	C702.802673,277.320374 717.295837,302.407654 731.614441,327.192841 
	C758.549866,313.104553 784.911316,299.316437 811.270508,285.529572 
	C810.162720,282.860840 809.149719,280.420288 808.712158,278.012726 
	C809.096436,278.016815 809.480652,278.020874 810.234009,278.628601 
	C811.312439,280.784760 812.390930,282.940887 813.219971,284.598419 
	C841.445801,272.804626 869.254700,261.185028 897.317993,249.459152 
	C887.176025,221.942017 877.044922,194.454422 866.821899,166.717453 
	C869.484192,165.744293 871.724792,164.925293 874.173584,164.030182 
	C884.556030,192.106216 894.756531,219.690140 904.762268,246.747620 
	C933.926270,237.619171 962.347229,228.723282 990.920227,219.779816 
	C990.700500,218.588669 990.465088,217.312225 990.768188,216.041138 
	C991.127075,216.037155 991.486023,216.033173 992.099792,216.808838 
	C992.974915,220.720245 995.636169,219.158173 997.876587,218.640167 
	C1016.133850,214.418961 1034.362549,210.071152 1052.645508,205.964783 
	C1062.476685,203.756699 1072.397461,201.947296 1082.661987,199.880646 
	C1077.431641,170.444901 1072.274414,141.421371 1067.029907,111.905563 
	C1069.614014,111.447922 1071.957642,111.032875 1074.709961,110.545479 
	C1079.985718,140.052612 1085.196167,169.194351 1090.369507,198.128693 
	C1120.378296,194.324997 1149.919312,190.580612 1179.466919,186.835388 
	C1179.367432,184.692337 1179.282837,182.872726 1179.755615,181.031937 
	C1180.126831,181.033813 1180.498169,181.035690 1180.995728,181.861893 
	C1181.194824,183.485428 1181.393921,185.108948 1181.578979,186.617691 
	C1212.203735,185.374008 1242.495117,184.143845 1273.443848,182.887009 
	C1273.443848,153.145187 1273.443848,123.312141 1273.443848,93.603104 
	C1276.339478,93.603104 1278.573242,93.603104 1281.139893,93.603104 
	C1281.139893,123.730774 1281.139893,153.486221 1281.139893,183.988693 
	C1288.598755,183.988693 1295.739380,183.702835 1302.850098,184.041855 
	C1324.923828,185.094238 1346.985596,186.393280 1369.054443,187.551666 
	C1370.077148,187.605331 1371.122559,187.223541 1372.639893,187.270645 
	C1373.111694,187.506302 1373.583374,187.741959 1374.925171,188.074478 
	C1404.542236,191.730225 1434.159424,195.385956 1464.304321,199.106842 
	C1469.534302,170.295914 1474.883301,140.829941 1480.257935,111.222031 
	C1483.050171,111.776909 1485.281250,112.220268 1487.917358,112.744118 
	C1482.567993,142.337265 1477.270874,171.640976 1472.004028,200.777710 
	C1501.498413,207.480560 1530.666138,214.109192 1560.126709,220.804367 
	C1561.116943,217.608032 1562.135986,214.318588 1563.693481,211.024414 
	C1564.052490,211.028061 1564.411499,211.031693 1564.737671,211.793228 
	C1563.834839,215.094086 1562.932007,218.394943 1562.130859,221.323715 
	C1591.029053,230.556320 1619.562256,239.672333 1648.386841,248.881439 
	C1658.572266,221.012939 1668.749756,193.165863 1679.038452,165.014648 
	C1681.680542,166.018845 1683.885498,166.856918 1686.353149,167.794846 
	C1675.999023,196.217789 1665.855591,224.062103 1655.825684,251.594879 
	C1656.465210,252.286270 1656.641602,252.635345 1656.916504,252.751663 
	C1683.370117,263.942230 1709.823364,275.133423 1736.319702,286.221924 
	C1737.378906,286.665161 1738.850586,286.123138 1740.574219,286.332367 
	C1740.761841,286.632111 1740.949463,286.931854 1741.154785,287.925781 
	C1742.173828,288.647156 1743.122559,289.505463 1744.222412,290.069061 
	C1757.229858,296.734589 1770.343140,303.198639 1783.260132,310.033966 
	C1795.836426,316.689026 1808.217651,323.712250 1821.010254,330.753113 
	C1835.868530,305.122955 1850.669922,279.591003 1865.623169,253.797150 
	C1868.058472,255.226242 1870.123901,256.438202 1872.396118,257.771576 
	C1857.375732,283.718231 1842.662842,309.133545 1828.019775,334.428192 
	C1853.340942,350.986023 1878.471191,367.418945 1903.767456,383.960541 
	C1904.720093,382.797791 1905.864380,381.401154 1907.461426,380.240784 
	C1907.654175,380.518005 1907.846924,380.795258 1907.852417,381.703369 
	C1906.971924,383.013489 1906.091431,384.323639 1905.494507,385.211761 
	C1929.480469,404.002625 1953.146606,422.542969 1977.020264,441.245789 
	C1995.739746,419.238037 2014.589478,397.077423 2033.696655,374.613983 
	C2035.775024,376.382507 2037.613770,377.946991 2039.684204,379.708740 
	C2020.563721,402.229248 2001.665894,424.487427 1983.193481,446.244476 
	C2004.671021,466.748871 2025.726562,486.858337 2046.811890,506.936646 
	C2047.357056,507.455658 2048.227539,507.632965 2049.403809,508.210114 
	C2049.607422,508.482452 2049.811279,508.754791 2049.946289,509.726379 
	C2056.604248,516.903442 2063.353027,523.998657 2069.900879,531.274841 
	C2083.244385,546.102295 2096.479736,561.027405 2110.037109,576.223328 
	C2131.911133,557.849792 2153.906494,539.374390 2176.135498,520.702637 
	C2177.947266,522.881287 2179.476807,524.720520 2181.167725,526.753662 
	C2158.829102,545.544922 2136.854492,564.030029 2115.219482,582.229431 
	C2133.455566,606.486328 2151.421631,630.383789 2169.441406,654.352966 
	C2171.270996,653.219788 2173.096924,652.088684 2175.380859,651.193665 
	C2175.586670,651.460999 2175.792480,651.728333 2175.572510,652.541931 
	C2173.816162,653.775146 2172.059814,655.008301 2170.597168,656.035217 
	C2186.621582,681.623291 2202.476318,706.940491 2218.510254,732.544006 
	C2242.805664,718.578735 2267.200928,704.555969 2291.826416,690.400940 
	C2293.267822,692.949524 2294.382568,694.920898 2295.684570,697.223206 
	C2270.994141,711.447998 2246.578613,725.514343 2222.410156,739.438416 
	C2236.071045,766.445679 2249.504395,793.003723 2262.938477,819.562622 
	C2265.103760,818.686707 2267.404541,817.756042 2270.197266,817.084839 
z"/>

<path fill="#DFDFDF" opacity="1.000000" stroke="none" 
	d="
M990.498901,216.038467 
	C984.157288,193.850266 978.076050,171.667130 972.019104,149.477386 
	C970.645691,144.445770 969.356140,139.391266 968.028015,134.347305 
	C968.642090,134.178909 969.256165,134.010498 969.870239,133.842102 
	C977.216614,160.975204 984.562927,188.108307 991.877075,215.635284 
	C991.486023,216.033173 991.127075,216.037155 990.498901,216.038467 
z"/>
<path fill="#E1E1E1" opacity="1.000000" stroke="none" 
	d="
M1740.352051,286.186249 
	C1749.585815,265.618927 1759.033813,245.194046 1768.502563,224.778763 
	C1771.311401,218.722443 1774.177856,212.692947 1777.017944,206.651138 
	C1777.607422,206.929459 1778.196899,207.207764 1778.786377,207.486084 
	C1766.424927,233.926910 1754.063599,260.367737 1741.419556,287.020081 
	C1740.949463,286.931854 1740.761841,286.632111 1740.352051,286.186249 
z"/>
<path fill="#E1E1E1" opacity="1.000000" stroke="none" 
	d="
M2175.151855,651.075684 
	C2190.926514,639.636536 2206.926025,628.309998 2222.935791,616.997864 
	C2227.554932,613.734131 2232.188965,610.491760 2236.849609,607.287903 
	C2237.816162,606.623596 2238.929688,606.173462 2239.975586,605.624634 
	C2240.261719,606.077515 2240.547852,606.530396 2240.833984,606.983276 
	C2219.447021,621.936707 2198.060059,636.890137 2176.335693,651.919556 
	C2175.792480,651.728333 2175.586670,651.460999 2175.151855,651.075684 
z"/>
<path fill="#E1E1E1" opacity="1.000000" stroke="none" 
	d="
M1372.398682,187.157623 
	C1373.198975,173.800766 1374.180908,160.551926 1375.297974,147.314484 
	C1376.485352,133.243637 1377.779419,119.181625 1379.081543,105.120819 
	C1379.298828,102.774994 1379.795288,100.455032 1380.162842,98.123123 
	C1380.601562,98.163109 1381.040161,98.203087 1381.478882,98.243065 
	C1381.478882,99.396828 1381.567993,100.558540 1381.465942,101.703194 
	C1379.000610,129.340149 1376.513428,156.975143 1374.040039,184.611374 
	C1373.965942,185.438599 1373.996582,186.275177 1374.016846,187.542511 
	C1373.583374,187.741959 1373.111694,187.506302 1372.398682,187.157623 
z"/>
<path fill="#E3E3E3" opacity="1.000000" stroke="none" 
	d="
M645.093018,380.826935 
	C633.291992,364.676605 621.604065,348.309448 609.929993,331.932404 
	C606.066101,326.511902 602.226685,321.073883 598.401978,315.625702 
	C597.545776,314.406006 596.798340,313.110016 596.000854,311.849121 
	C596.516174,311.517914 597.031555,311.186707 597.546875,310.855469 
	C613.643494,333.681641 629.740112,356.507812 645.913940,379.669250 
	C645.731323,380.205078 645.471436,380.405701 645.093018,380.826935 
z"/>
<path fill="#E3E3E3" opacity="1.000000" stroke="none" 
	d="
M1907.235107,380.122681 
	C1918.212769,363.899139 1929.406494,347.786621 1940.626343,331.692139 
	C1944.622803,325.959229 1948.672241,320.263000 1952.723877,314.568848 
	C1953.322144,313.728210 1954.067627,312.992310 1954.744873,312.207947 
	C1955.189331,312.536652 1955.633667,312.865387 1956.078125,313.194092 
	C1940.264893,335.715912 1924.451782,358.237762 1908.339111,380.916046 
	C1907.846924,380.795258 1907.654175,380.518005 1907.235107,380.122681 
z"/>
<path fill="#E3E3E3" opacity="1.000000" stroke="none" 
	d="
M378.069031,652.956604 
	C356.011414,637.921814 334.201782,622.788513 312.418762,607.617004 
	C311.747131,607.149231 311.351624,606.284973 310.827423,605.605591 
	C311.098541,605.284241 311.369629,604.962891 311.640747,604.641541 
	C333.976166,620.240784 356.311615,635.840027 378.822357,651.724670 
	C378.772095,652.290833 378.546539,652.571594 378.069031,652.956604 
z"/>
<path fill="#DFDFDF" opacity="1.000000" stroke="none" 
	d="
M1563.424316,211.026794 
	C1568.914551,189.238052 1574.663574,167.444168 1580.443848,145.658600 
	C1581.427246,141.952255 1582.545166,138.281631 1583.601074,134.594513 
	C1584.210449,134.766861 1584.819824,134.939209 1585.429199,135.111557 
	C1578.641479,160.181305 1571.853882,185.251068 1564.918335,210.678070 
	C1564.411499,211.031693 1564.052490,211.028061 1563.424316,211.026794 
z"/>
<path fill="#D3D3D3" opacity="1.000000" stroke="none" 
	d="
M1179.477051,181.042526 
	C1176.660400,153.443665 1174.122559,125.834206 1171.584717,98.224754 
	C1172.304688,98.159424 1173.024780,98.094101 1173.744873,98.028770 
	C1176.165771,125.401634 1178.586670,152.774506 1180.938477,180.592468 
	C1180.498169,181.035690 1180.126831,181.033813 1179.477051,181.042526 
z"/>
<path fill="#E1E1E1" opacity="1.000000" stroke="none" 
	d="
M808.424438,277.996216 
	C799.749939,260.159943 791.362427,242.340561 782.977112,224.520126 
	C780.720032,219.723328 778.438721,214.937515 776.236267,210.115723 
	C775.601868,208.726974 775.204102,207.230255 774.697876,205.783020 
	C775.192505,205.576981 775.687073,205.370941 776.181702,205.164917 
	C787.382202,229.213867 798.582703,253.262833 809.824097,277.668396 
	C809.480652,278.020874 809.096436,278.016815 808.424438,277.996216 
z"/>
<path fill="#DFDFDF" opacity="1.000000" stroke="none" 
	d="
M219.022324,998.605164 
	C198.241730,993.409851 177.458298,987.945618 156.679626,982.463318 
	C152.804214,981.440796 148.947998,980.345581 145.082916,979.283936 
	C145.254883,978.661316 145.426834,978.038696 145.598785,977.416077 
	C169.839935,983.922180 194.081085,990.428223 218.678772,997.081909 
	C219.030579,997.596375 219.025848,997.963196 219.022324,998.605164 
z"/>
<path fill="#DFDFDF" opacity="1.000000" stroke="none" 
	d="
M2049.175049,508.089844 
	C2068.883789,487.973785 2088.816406,467.973175 2108.781982,448.005432 
	C2109.379150,447.408173 2110.320068,447.154907 2111.562500,447.355164 
	C2091.254150,467.830017 2070.945801,488.304871 2050.326172,508.903412 
	C2049.811279,508.754791 2049.607422,508.482452 2049.175049,508.089844 
z"/>
<path fill="#E1E1E1" opacity="1.000000" stroke="none" 
	d="
M2269.951172,816.955078 
	C2287.950928,808.201904 2306.192139,799.568909 2324.445801,790.961731 
	C2329.147217,788.744873 2333.886963,786.609497 2338.609131,784.436707 
	C2338.876465,785.014709 2339.143555,785.592712 2339.410889,786.170776 
	C2316.832275,796.710388 2294.253662,807.250061 2271.317139,817.829956 
	C2270.705322,817.608398 2270.451172,817.346619 2269.951172,816.955078 
z"/>
<path fill="#E1E1E1" opacity="1.000000" stroke="none" 
	d="
M279.186218,816.647888 
	C256.822815,806.579346 234.606689,796.286560 212.383041,786.009949 
	C211.775696,785.729065 211.087204,785.623779 210.436554,785.436646 
	C210.889618,784.802429 211.342682,784.168213 211.795746,783.533997 
	C234.466522,794.121765 257.137268,804.709534 280.019836,815.580078 
	C279.931885,816.050537 279.632172,816.238220 279.186218,816.647888 
z"/>
<path fill="#E1E1E1" opacity="1.000000" stroke="none" 
	d="
M191.264633,1186.776123 
	C165.492264,1184.751587 139.978180,1182.505005 114.464096,1180.258545 
	C114.508080,1179.700928 114.552063,1179.143311 114.596054,1178.585693 
	C123.202179,1179.231567 131.812714,1179.823975 140.413513,1180.534546 
	C157.267365,1181.926758 174.115799,1183.384521 191.374847,1184.693848 
	C191.696442,1185.233154 191.609680,1185.893555 191.264633,1186.776123 
z"/>
<path fill="#DFDFDF" opacity="1.000000" stroke="none" 
	d="
M2337.962402,995.504883 
	C2360.176758,989.181519 2382.389160,983.133301 2404.601807,977.085144 
	C2404.784424,977.749451 2404.967041,978.413757 2405.149902,979.078064 
	C2383.023193,985.029968 2360.896484,990.981873 2338.373047,996.907043 
	C2337.971191,996.513550 2337.965820,996.146851 2337.962402,995.504883 
z"/>
<path fill="#E1E1E1" opacity="1.000000" stroke="none" 
	d="
M2363.946777,1184.577026 
	C2387.790283,1182.051270 2411.628662,1179.783813 2435.467041,1177.516357 
	C2435.531738,1178.196289 2435.596436,1178.876343 2435.661377,1179.556274 
	C2412.065674,1181.702637 2388.470215,1183.848999 2364.426270,1185.931396 
	C2363.965820,1185.523315 2363.953857,1185.179443 2363.946777,1184.577026 
z"/>
<path fill="#DFDFDF" opacity="1.000000" stroke="none" 
	d="
M221.404663,998.031494 
	C221.307037,997.984253 221.631195,997.769592 221.825394,997.760620 
	C221.913010,997.959351 221.740585,998.068359 221.404663,998.031494 
z"/>
<path fill="#FCFCFC" opacity="1.000000" stroke="none" 
	d="
M325.593750,1409.491211 
	C320.618073,1416.472046 313.672058,1419.442627 305.969116,1420.864502 
	C294.297852,1423.018921 282.600220,1422.383057 270.606812,1421.185547 
	C270.606812,1415.030640 270.606812,1409.390137 270.606812,1403.749634 
	C270.606842,1379.772949 270.664948,1355.796021 270.539948,1331.819946 
	C270.522522,1328.484741 271.350677,1326.933960 274.905762,1326.975220 
	C285.814148,1327.101440 296.865753,1325.956055 307.598328,1327.343140 
	C320.879425,1329.059570 327.400177,1338.281494 327.000732,1351.448120 
	C326.783936,1358.594727 322.779816,1363.486938 317.280792,1367.401611 
	C315.677277,1368.542969 313.864166,1369.389893 312.073181,1370.414062 
	C327.064911,1375.867065 336.354370,1390.649048 325.593750,1409.491211 
M283.004059,1378.707275 
	C283.004059,1389.754150 283.004059,1400.800903 283.004059,1412.033691 
	C288.651459,1412.033691 293.646301,1412.395630 298.570648,1411.960083 
	C309.594452,1410.984985 316.070038,1404.838135 316.888000,1395.146973 
	C317.586182,1386.874756 312.115509,1379.540649 302.610077,1377.495850 
	C296.842712,1376.255005 290.767365,1376.407593 284.821930,1376.094238 
	C284.249695,1376.063965 283.617554,1377.169800 283.004059,1378.707275 
M283.001404,1346.535889 
	C283.001404,1353.127319 283.001404,1359.718872 283.001404,1366.270142 
	C287.778229,1366.270142 292.013947,1366.858765 296.001404,1366.115479 
	C300.596375,1365.258911 305.645294,1364.157349 309.304169,1361.512207 
	C317.147034,1355.842407 316.100586,1343.142944 307.832855,1338.682007 
	C299.969971,1334.439819 291.563263,1335.598999 283.001404,1336.394287 
	C283.001404,1339.903564 283.001404,1342.728027 283.001404,1346.535889 
z"/>
<path fill="#FAFAFA" opacity="1.000000" stroke="none" 
	d="
M2054.051025,826.057373 
	C2057.336914,824.960632 2060.566650,823.632874 2063.920166,822.813110 
	C2072.003662,820.837219 2079.060059,823.452942 2082.707031,829.502441 
	C2086.523926,835.833923 2085.752441,842.798645 2079.808838,849.116455 
	C2073.506836,855.815247 2065.644043,860.164856 2056.529053,861.709778 
	C2049.776367,862.854309 2043.895264,860.886719 2040.097412,854.824402 
	C2036.307495,848.774597 2037.214966,842.809204 2041.126343,837.116150 
	C2041.768188,836.181824 2042.466797,835.286438 2043.628906,833.708008 
	C2041.608154,833.798279 2040.264771,833.824646 2038.926514,833.923523 
	C2031.495239,834.472046 2025.883789,831.489136 2022.578735,824.866638 
	C2019.197632,818.092102 2020.169189,811.539124 2025.106567,805.849182 
	C2035.915894,793.392273 2060.984375,788.814514 2071.901855,811.989990 
	C2069.402100,813.461731 2066.870850,814.951904 2064.018311,816.631348 
	C2060.762695,811.676819 2057.727051,806.647522 2050.541748,805.847290 
	C2055.180420,811.983765 2056.972900,818.050232 2053.371094,825.344177 
	C2053.186768,826.156067 2053.285889,826.423950 2053.384766,826.691895 
	C2053.606934,826.480408 2053.829102,826.268860 2054.051025,826.057373 
M2054.913818,838.338135 
	C2052.886719,840.276855 2050.520264,841.980896 2048.958740,844.241333 
	C2048.007324,845.618408 2047.447266,848.499329 2048.240234,849.541382 
	C2049.277100,850.904541 2051.996582,852.004822 2053.692383,851.674744 
	C2061.369141,850.180969 2068.002686,846.394897 2073.168457,840.505859 
	C2074.365479,839.141357 2075.307129,835.943848 2074.550049,834.866882 
	C2073.517578,833.398315 2070.453125,832.115967 2068.771240,832.585449 
	C2064.214600,833.857300 2059.927734,836.095703 2054.913818,838.338135 
M2040.931274,810.119080 
	C2039.786987,810.015320 2038.151123,809.376648 2037.582397,809.899231 
	C2034.941650,812.325623 2032.011353,814.783264 2030.478149,817.871826 
	C2029.974487,818.886597 2033.722168,823.754761 2034.908081,823.534485 
	C2038.310181,822.902588 2042.227295,821.269653 2044.384033,818.715027 
	C2046.762695,815.897339 2044.953247,812.482849 2040.931274,810.119080 
z"/>
<path fill="#FAFAFA" opacity="1.000000" stroke="none" 
	d="
M2171.449951,1270.860962 
	C2169.831299,1269.834961 2167.866699,1269.035889 2165.930908,1268.171509 
	C2155.426025,1263.480225 2150.161133,1253.369873 2152.178467,1241.483643 
	C2155.043213,1241.483643 2157.947510,1241.483643 2160.839600,1241.483643 
	C2161.297852,1251.451782 2162.708740,1254.479980 2168.008057,1257.100098 
	C2168.315918,1244.329102 2172.552979,1238.572388 2182.292236,1237.692993 
	C2190.891602,1236.916504 2198.907227,1242.371704 2200.848633,1250.321899 
	C2203.289551,1260.317505 2198.876465,1266.387329 2185.502197,1271.319092 
	C2188.445068,1272.624023 2191.485840,1273.612915 2194.145508,1275.228638 
	C2199.255127,1278.332642 2201.589844,1283.178711 2201.357422,1289.106079 
	C2201.121582,1295.121582 2198.207520,1299.618652 2192.675293,1302.026855 
	C2182.417480,1306.492065 2171.915283,1306.260986 2161.604492,1302.426880 
	C2155.083496,1300.001953 2151.648682,1294.855225 2151.620605,1287.764526 
	C2151.591797,1280.512695 2155.602539,1275.953979 2161.984863,1273.401733 
	C2164.878662,1272.244751 2168.063965,1271.816528 2171.449951,1270.860962 
M2188.621094,1283.691772 
	C2180.952148,1280.500977 2173.123047,1280.523438 2165.423096,1283.209473 
	C2163.602295,1283.844727 2161.309814,1286.226685 2161.238281,1287.891357 
	C2161.169434,1289.496948 2163.369141,1292.078857 2165.128662,1292.731323 
	C2172.633057,1295.514160 2180.430664,1295.451416 2187.971436,1292.865967 
	C2193.017090,1291.135986 2193.332031,1287.865845 2188.621094,1283.691772 
M2181.881348,1260.616577 
	C2184.273682,1260.090820 2186.843018,1259.951660 2189.018799,1258.953613 
	C2192.787842,1257.224731 2193.173828,1252.676270 2190.076172,1250.022461 
	C2186.960938,1247.353638 2181.196045,1247.495972 2178.737305,1250.302368 
	C2176.269287,1253.119385 2177.242432,1257.197021 2181.881348,1260.616577 
z"/>
<path fill="#FBFBFB" opacity="1.000000" stroke="none" 
	d="
M369.036682,1267.911255 
	C366.070007,1266.895752 362.946503,1266.192993 360.169525,1264.799438 
	C354.483948,1261.946167 351.511902,1257.133545 351.639069,1250.710938 
	C351.767914,1244.203979 355.139465,1239.562988 361.050629,1237.282471 
	C371.022644,1233.435059 381.266754,1233.534912 391.243164,1237.200684 
	C398.145630,1239.737061 401.668457,1245.482788 401.380615,1252.260498 
	C401.082611,1259.277344 397.059448,1263.628174 390.799561,1265.887939 
	C387.178650,1267.194946 383.284882,1267.745972 378.201904,1268.947266 
	C388.041321,1271.009277 395.936615,1274.719116 399.138733,1283.836548 
	C400.731964,1288.373291 401.064850,1293.352661 402.046539,1298.547974 
	C398.061005,1298.547974 395.297272,1298.547974 392.124298,1298.547974 
	C391.963440,1292.568115 391.557831,1286.592896 385.595398,1282.381348 
	C384.999573,1282.449219 384.920471,1282.799316 384.841370,1283.149414 
	C385.160248,1297.798340 376.050079,1305.609253 363.480774,1301.464111 
	C355.520142,1298.838745 350.850098,1291.645874 351.750397,1283.396973 
	C352.649719,1275.156982 358.361053,1270.127075 368.797363,1268.958496 
	C369.830505,1268.526245 370.175049,1268.125977 370.519653,1267.725708 
	C370.025330,1267.787476 369.531006,1267.849365 369.036682,1267.911255 
M374.713013,1257.998779 
	C379.420441,1257.229614 384.191498,1256.709961 388.795593,1255.535400 
	C390.133392,1255.194092 391.794312,1253.009155 391.846375,1251.614746 
	C391.898163,1250.225952 390.422516,1247.999390 389.087311,1247.466797 
	C380.775299,1244.150513 372.224548,1243.805786 363.926453,1247.389526 
	C359.755432,1249.190918 359.718719,1253.171631 363.862793,1255.198975 
	C366.907776,1256.688599 370.483002,1257.094238 374.713013,1257.998779 
M375.022003,1282.571289 
	C371.872131,1278.419678 365.246338,1278.242065 362.110748,1282.278076 
	C360.031372,1284.954712 360.209076,1288.301392 362.859833,1289.635864 
	C365.615204,1291.022705 369.478851,1291.506592 372.468384,1290.780762 
	C375.747162,1289.984863 376.163971,1286.529419 375.022003,1282.571289 
z"/>
<path fill="#FAFAFA" opacity="1.000000" stroke="none" 
	d="
M1859.363770,566.758911 
	C1862.525513,568.953308 1860.174316,570.386841 1859.047363,571.758911 
	C1854.307617,577.529907 1849.479858,583.228760 1844.483276,589.194153 
	C1845.805176,590.303284 1846.874023,591.200073 1847.544067,591.762329 
	C1852.126953,588.122803 1856.089111,584.257141 1860.706177,581.479614 
	C1867.447632,577.424133 1874.440796,578.367737 1879.649414,583.073120 
	C1884.752808,587.683411 1886.058838,594.594788 1882.828247,601.821167 
	C1879.287964,609.740479 1873.904541,616.225891 1866.505615,620.851868 
	C1859.693237,625.110962 1852.981567,624.968140 1847.414551,620.696167 
	C1842.037842,616.570374 1840.494019,610.676270 1842.701904,602.720459 
	C1842.878418,602.084839 1843.027344,601.441589 1843.236206,600.615417 
	C1841.707764,599.388977 1840.171387,598.156189 1838.296997,596.652100 
	C1835.778564,599.557556 1833.319092,602.394958 1830.654541,605.468994 
	C1827.987183,603.249512 1825.592041,601.256470 1822.828735,598.957153 
	C1825.220459,595.958191 1827.547852,593.039978 1830.129028,589.803345 
	C1825.095337,585.522522 1820.208496,581.366577 1814.103516,576.174683 
	C1817.856201,573.945190 1820.820679,571.411133 1824.246094,570.305908 
	C1831.968384,567.814392 1840.033081,566.375549 1847.734009,563.829468 
	C1852.438721,562.273987 1855.979492,562.753113 1859.363770,566.758911 
M1873.920898,595.884033 
	C1873.469360,593.747314 1873.599243,590.294434 1872.431641,589.778564 
	C1870.622070,588.979004 1867.089478,589.349426 1865.759033,590.687134 
	C1861.030151,595.442383 1856.611450,600.599182 1852.783203,606.096924 
	C1851.717773,607.627136 1853.097900,610.860352 1853.356201,613.312317 
	C1855.669434,613.049622 1858.868042,613.659119 1860.138550,612.369324 
	C1864.975098,607.459412 1869.189087,601.936340 1873.920898,595.884033 
M1834.534912,580.984497 
	C1839.569092,583.004944 1838.806885,577.882324 1841.197388,576.644836 
	C1840.984863,576.288879 1840.772339,575.932922 1840.559937,575.576965 
	C1837.673218,576.338257 1834.786621,577.099548 1830.632324,578.195190 
	C1832.358276,579.411377 1833.151001,579.969910 1834.534912,580.984497 
z"/>
<path fill="#FAFAFA" opacity="1.000000" stroke="none" 
	d="
M680.723633,612.593079 
	C679.445801,613.659180 678.411377,614.484741 677.194397,615.455933 
	C673.737610,612.946472 672.044495,609.912903 671.888000,605.483093 
	C671.618286,597.847778 671.330505,590.100281 669.803406,582.655579 
	C668.407776,575.852295 670.820129,571.914612 677.136414,568.645142 
	C682.639954,575.172913 688.355530,581.952332 694.176697,588.856873 
	C695.563293,587.644226 696.664001,586.681580 697.004272,586.383972 
	C694.094788,580.558594 690.844360,575.308777 688.801514,569.624939 
	C686.517334,563.269897 688.503784,557.405090 693.764648,553.047363 
	C698.776367,548.896057 704.553650,548.643799 710.130859,551.473572 
	C719.948242,556.454651 726.501282,564.578979 729.760559,574.967163 
	C731.730347,581.245544 730.256165,587.269592 724.841614,591.653015 
	C719.620483,595.879822 713.903809,595.933044 707.996155,593.139526 
	C707.114014,592.722473 706.217957,592.334656 705.194885,591.873108 
	C703.678162,593.267883 702.237183,594.593079 700.430969,596.254150 
	C702.825317,599.150208 705.110168,601.913818 707.775513,605.137634 
	C705.195251,607.333008 702.745605,609.417297 699.950867,611.795166 
	C697.391602,608.846497 695.029907,606.125305 692.305054,602.985779 
	C688.535339,606.100098 684.751160,609.226318 680.723633,612.593079 
M703.650879,575.781311 
	C706.723206,578.524109 709.587158,581.574280 712.966187,583.864563 
	C714.398804,584.835571 717.524170,585.017883 718.759705,584.080994 
	C719.950562,583.177979 720.498840,580.099792 719.940979,578.445496 
	C717.363953,570.803772 712.191162,564.987305 705.384460,560.833191 
	C703.906860,559.931458 700.780334,559.902039 699.582947,560.889404 
	C698.404480,561.861084 697.963440,564.887878 698.529968,566.562622 
	C699.565857,569.625000 701.583130,572.355408 703.650879,575.781311 
M680.286987,595.191895 
	C680.542908,596.515808 680.798828,597.839661 681.181335,599.818115 
	C683.208740,598.120911 684.651123,596.913391 686.166321,595.644958 
	C685.039368,594.224487 684.043274,593.133728 683.244263,591.914001 
	C682.482483,590.751160 681.926086,589.453674 681.279419,588.215332 
	C680.806396,588.641357 680.333435,589.067383 679.860413,589.493347 
	C679.983521,591.113708 680.106628,592.734070 680.286987,595.191895 
z"/>
<path fill="#FFFFFF" opacity="1.000000" stroke="none" 
	d="
M2219.652832,1363.000000 
	C2219.652832,1355.854492 2219.652832,1349.208984 2219.652832,1342.000000 
	C2228.380127,1342.000000 2236.831299,1342.000000 2245.282715,1342.000000 
	C2253.599121,1342.000000 2261.915283,1342.000000 2270.564941,1342.000000 
	C2270.564941,1345.449707 2270.564941,1348.653931 2270.564941,1352.302490 
	C2257.782959,1352.302490 2245.186035,1352.302490 2232.298584,1352.302490 
	C2232.298584,1362.635742 2232.298584,1372.536865 2232.298584,1382.960938 
	C2244.019287,1382.960938 2255.745117,1382.960938 2267.681152,1382.960938 
	C2267.681152,1386.412231 2267.681152,1389.352051 2267.681152,1392.813965 
	C2255.979980,1392.813965 2244.250977,1392.813965 2232.072754,1392.813965 
	C2232.072754,1407.391968 2232.072754,1421.460938 2232.072754,1435.761230 
	C2227.864014,1435.761230 2224.106445,1435.761230 2219.653076,1435.761230 
	C2219.653076,1411.649780 2219.653076,1387.574829 2219.652832,1363.000000 
z"/>
<path fill="#FAFAFA" opacity="1.000000" stroke="none" 
	d="
M2149.565674,1130.023560 
	C2148.707764,1129.845581 2147.823975,1129.433838 2146.996338,1129.526123 
	C2139.367676,1130.377686 2133.635254,1127.262939 2130.395996,1120.403442 
	C2127.142090,1113.512939 2128.229248,1104.441772 2132.862305,1099.825317 
	C2138.032227,1094.673828 2144.820068,1094.668213 2152.277588,1099.808960 
	C2159.166748,1093.129272 2166.041016,1092.076782 2171.982910,1096.792114 
	C2178.011230,1101.576172 2179.937012,1112.205566 2175.925781,1118.553955 
	C2172.082031,1124.637207 2165.592041,1125.811401 2157.458252,1122.174561 
	C2154.533936,1124.615845 2151.788086,1126.907959 2149.198730,1129.626221 
	C2149.355469,1130.052246 2149.565674,1130.023560 2149.565674,1130.023560 
M2137.831543,1111.659668 
	C2139.158447,1114.081787 2140.099854,1116.913452 2142.011719,1118.714600 
	C2142.728027,1119.389526 2146.491699,1118.233765 2147.453125,1116.896606 
	C2148.721436,1115.131958 2149.360352,1112.166992 2148.815674,1110.101685 
	C2148.434326,1108.656982 2145.449219,1106.783569 2143.929688,1107.022949 
	C2141.784424,1107.361084 2139.918945,1109.473511 2137.831543,1111.659668 
M2166.025635,1113.783691 
	C2168.760986,1112.312744 2170.086670,1110.086060 2168.295166,1107.317627 
	C2167.362061,1105.875732 2164.709717,1103.874756 2164.034668,1104.255493 
	C2162.137939,1105.324829 2159.863770,1107.341064 2159.558838,1109.271606 
	C2158.966309,1113.021240 2161.891113,1114.147217 2166.025635,1113.783691 
z"/>
<path fill="#FAFAFA" opacity="1.000000" stroke="none" 
	d="
M405.976776,1150.781616 
	C402.327728,1161.960083 387.526398,1166.076294 379.458496,1153.183594 
	C371.654022,1157.365967 364.689636,1156.216431 360.600830,1150.070923 
	C356.180725,1143.427490 357.674957,1132.600098 363.673065,1127.809204 
	C369.429047,1123.211670 376.398865,1124.320923 381.803650,1130.028809 
	C386.766846,1129.072876 391.313629,1127.027100 395.477081,1127.629639 
	C405.281738,1129.048950 409.485077,1138.892334 405.976776,1150.781616 
M398.210449,1143.538574 
	C398.122162,1140.233887 396.277679,1137.618530 393.205139,1138.189819 
	C390.742371,1138.647461 387.972687,1140.863892 386.719940,1143.080078 
	C386.023560,1144.312134 387.585876,1147.808838 389.123566,1149.117920 
	C392.754181,1152.208618 396.644226,1149.967163 398.210449,1143.538574 
M373.096802,1135.849121 
	C369.611084,1134.907715 367.350647,1136.626831 367.224792,1139.794556 
	C367.155304,1141.543823 369.328339,1144.958984 370.168976,1144.861206 
	C372.368286,1144.605225 374.936005,1143.234253 376.237549,1141.478271 
	C376.826111,1140.684204 374.756744,1137.920166 373.096802,1135.849121 
z"/>
<path fill="#FAFAFA" opacity="1.000000" stroke="none" 
	d="
M500.922211,832.997986 
	C506.545258,838.878540 509.919739,845.368652 506.377655,853.652893 
	C503.333557,860.772400 496.426147,864.988892 488.685303,863.797791 
	C470.984375,861.074097 454.542572,841.262207 469.180573,819.975220 
	C471.695496,821.400085 474.242676,822.843262 476.917145,824.358521 
	C475.768951,827.251831 474.275635,829.879944 473.737213,832.690979 
	C473.199951,835.496094 473.619415,838.484375 474.036835,841.569153 
	C477.930542,833.075928 483.576202,827.953064 494.077637,829.406982 
	C496.468903,829.917114 498.205658,830.798340 499.868652,832.044312 
	C500.210144,832.627869 500.625397,832.846497 501.012482,833.045837 
	C500.984283,833.026550 500.922211,832.997986 500.922211,832.997986 
M485.164734,841.648438 
	C482.659912,844.202759 481.585236,847.610352 484.074188,850.057373 
	C486.177002,852.124756 489.703796,853.517090 492.697449,853.711365 
	C496.527313,853.960022 499.107483,849.234497 497.734772,845.803345 
	C496.029785,841.541809 490.323242,839.322266 485.164734,841.648438 
z"/>
<path fill="#FAFAFA" opacity="1.000000" stroke="none" 
	d="
M584.829346,665.423706 
	C597.264648,667.540527 605.538635,674.906250 611.652893,684.855103 
	C615.450867,691.034851 614.619141,697.817200 610.341736,702.993652 
	C605.700623,708.610291 599.653442,709.465942 593.203003,707.364502 
	C584.041992,704.379944 576.796936,698.647461 571.957092,690.278076 
	C565.026550,678.293457 570.648010,667.238342 584.829346,665.423706 
M585.868591,690.639282 
	C589.915649,693.112305 593.727539,696.190552 598.078613,697.881287 
	C602.100037,699.443970 604.820923,696.582336 603.963013,692.731812 
	C602.672241,686.938660 589.642883,676.014343 583.765747,675.797729 
	C579.786743,675.651062 577.574829,678.247009 579.301514,681.782532 
	C580.788635,684.827515 583.291443,687.376526 585.868591,690.639282 
z"/>
<path fill="#FAFAFA" opacity="1.000000" stroke="none" 
	d="
M1736.904419,499.916595 
	C1740.356323,496.596008 1743.281128,493.071167 1746.944214,490.674805 
	C1752.453613,487.070740 1758.444580,487.625336 1763.739258,491.444824 
	C1769.134766,495.336884 1770.705566,500.982147 1769.503296,507.364441 
	C1767.918701,515.775818 1763.730103,522.897278 1757.905884,529.019104 
	C1751.557129,535.692017 1743.578857,537.072021 1736.746338,533.002808 
	C1730.478882,529.270142 1727.890381,521.791504 1730.633179,513.234009 
	C1732.082886,508.710815 1734.646851,504.544739 1736.904419,499.916595 
M1755.505493,497.930573 
	C1748.181274,500.513885 1739.653320,512.672791 1739.997681,520.458435 
	C1740.067749,522.043091 1740.984009,524.440247 1742.142456,524.912903 
	C1743.612305,525.512573 1746.226074,525.144592 1747.480713,524.126770 
	C1753.870972,518.941956 1757.909302,512.089294 1759.220825,503.997955 
	C1759.510864,502.208618 1757.317261,500.016724 1755.505493,497.930573 
z"/>
<path fill="#FBFBFB" opacity="1.000000" stroke="none" 
	d="
M2149.127686,1130.097900 
	C2149.565674,1130.023560 2149.355469,1130.052246 2149.329102,1130.076660 
	C2156.000732,1129.412964 2162.723145,1128.002563 2169.389893,1128.230225 
	C2176.787109,1128.482666 2182.363770,1134.088379 2183.752197,1140.740723 
	C2185.156006,1147.467285 2182.028564,1153.992065 2175.037598,1157.644409 
	C2166.906006,1161.892456 2158.185059,1163.587280 2149.017090,1162.086304 
	C2140.991943,1160.772461 2136.159668,1156.337036 2134.959473,1149.343872 
	C2133.712158,1142.077026 2136.919922,1136.077271 2144.160156,1132.247314 
	C2145.625732,1131.472046 2147.177734,1130.859741 2149.127686,1130.097900 
M2144.989990,1144.659790 
	C2143.582764,1148.896118 2144.677979,1151.072144 2149.420166,1151.755981 
	C2157.000244,1152.849243 2164.338867,1151.430054 2171.026855,1147.737915 
	C2172.584717,1146.877808 2174.300293,1144.340088 2174.101074,1142.814575 
	C2173.904053,1141.301025 2171.562500,1139.253174 2169.852051,1138.887329 
	C2161.041260,1137.002808 2152.771484,1138.525635 2144.989990,1144.659790 
z"/>
<path fill="#F9F9F9" opacity="1.000000" stroke="none" 
	d="
M2106.744141,981.745605 
	C2114.656982,975.382935 2123.330566,972.008118 2133.157471,972.128906 
	C2140.642578,972.220825 2146.467773,976.340149 2148.641113,982.595154 
	C2150.855469,988.968750 2149.240723,995.051758 2143.275146,999.920349 
	C2134.679443,1006.935608 2124.656250,1010.179688 2113.586182,1008.804199 
	C2107.758057,1008.080078 2103.670654,1004.426147 2101.762939,998.671753 
	C2099.565918,992.045044 2101.748535,986.651611 2106.744141,981.745605 
M2130.980469,982.709412 
	C2124.143066,983.721680 2117.681396,985.746582 2112.591309,990.649109 
	C2109.108643,994.003418 2110.137451,997.708679 2114.580322,998.823425 
	C2120.309570,1000.260925 2135.740234,994.409546 2138.929688,989.590088 
	C2140.858643,986.675171 2140.023193,983.996094 2136.658936,983.019714 
	C2135.113281,982.571228 2133.398926,982.705322 2130.980469,982.709412 
z"/>
<path fill="#F9F9F9" opacity="1.000000" stroke="none" 
	d="
M1002.033875,428.748169 
	C1001.710449,435.823639 998.548523,440.535309 992.377502,442.967682 
	C986.393066,445.326508 980.798828,444.217346 976.320496,439.689667 
	C968.204895,431.484619 964.458496,421.373047 965.314514,409.911835 
	C965.806641,403.322021 969.437256,398.311584 975.989990,396.245941 
	C982.509644,394.190735 988.172913,396.085022 992.526733,401.267761 
	C999.064575,409.050171 1002.278076,418.088745 1002.033875,428.748169 
M976.078186,407.817596 
	C974.490112,417.158813 977.723389,425.125763 983.505005,432.128723 
	C984.584839,433.436676 987.423279,434.297913 989.029358,433.851562 
	C990.339355,433.487427 991.865234,430.849243 991.839722,429.242584 
	C991.707092,420.902069 989.108093,413.278656 983.535461,406.938904 
	C981.335266,404.435760 978.715759,404.070099 976.078186,407.817596 
z"/>
<path fill="#FBFBFB" opacity="1.000000" stroke="none" 
	d="
M1126.284790,407.843384 
	C1115.868652,398.118713 1114.203003,386.118805 1116.639893,373.323486 
	C1117.925049,366.575897 1122.643921,362.293213 1129.587524,361.164398 
	C1136.166504,360.094849 1142.069702,363.200378 1145.559692,369.824005 
	C1150.089600,378.421417 1151.841675,387.648407 1149.883423,397.275330 
	C1147.576660,408.614502 1136.787476,413.500244 1126.284790,407.843384 
M1131.036499,398.443176 
	C1135.545410,402.317169 1139.702881,401.222412 1139.596680,395.371002 
	C1139.468140,388.271759 1137.568481,381.141846 1135.806641,374.184326 
	C1135.421753,372.663727 1132.352783,370.900726 1130.573975,370.957031 
	C1129.234741,370.999420 1127.257812,373.590240 1126.815186,375.359528 
	C1124.826660,383.308624 1126.899658,390.745728 1131.036499,398.443176 
z"/>
<path fill="#FAFAFA" opacity="1.000000" stroke="none" 
	d="
M1962.713623,709.741333 
	C1968.173340,703.983276 1973.949097,699.350769 1981.547119,697.583984 
	C1988.111084,696.057495 1993.791992,697.603638 1998.068481,702.908203 
	C2002.136108,707.953491 2002.318848,713.699524 1999.464600,719.252197 
	C1994.446411,729.015137 1986.354004,735.545166 1975.982544,738.771606 
	C1969.713745,740.721802 1963.713501,739.260925 1959.348145,733.848022 
	C1954.998779,728.454895 1954.973755,722.563843 1958.088989,716.620972 
	C1959.310547,714.290771 1961.000488,712.206116 1962.713623,709.741333 
M1965.961792,726.227539 
	C1967.722412,727.289734 1969.797119,729.573547 1971.192627,729.214966 
	C1979.967041,726.960388 1986.358032,721.192627 1990.701294,713.462341 
	C1992.817383,709.696228 1989.944946,706.385925 1985.744995,706.994446 
	C1978.479492,708.047058 1967.641113,718.138489 1965.961792,726.227539 
z"/>
<path fill="#FAFAFA" opacity="1.000000" stroke="none" 
	d="
M1456.681152,415.126404 
	C1444.853149,418.051819 1436.906616,412.987427 1435.343384,401.227020 
	C1434.136230,392.145416 1435.718994,383.316559 1440.618408,375.389069 
	C1444.828247,368.577332 1451.707886,365.688385 1458.399780,367.587921 
	C1465.638794,369.642761 1470.367188,375.398132 1469.828125,383.624329 
	C1469.348755,390.937469 1468.112915,398.413574 1465.728638,405.304932 
	C1464.422485,409.080719 1460.048706,411.795288 1456.681152,415.126404 
M1454.350098,404.835388 
	C1458.784424,397.835999 1460.186035,390.114868 1459.122681,382.048218 
	C1458.871704,380.145111 1457.072632,377.371887 1455.523071,377.016632 
	C1453.977661,376.662292 1451.123779,378.380829 1450.106201,379.989319 
	C1445.759766,386.860779 1444.919678,394.633789 1446.181641,402.493744 
	C1446.875854,406.818481 1449.739624,407.641418 1454.350098,404.835388 
z"/>
<path fill="#FAFAFA" opacity="1.000000" stroke="none" 
	d="
M827.027100,503.267883 
	C824.205566,497.312714 820.728271,491.567749 818.734192,485.347290 
	C816.422241,478.135193 819.585632,470.988678 825.264404,467.432617 
	C831.341248,463.627289 838.001465,464.042206 844.108459,469.400330 
	C851.995605,476.320312 856.928955,485.076691 857.862427,495.675049 
	C858.441467,502.249115 855.639526,507.389465 849.766418,510.507202 
	C843.848267,513.648865 838.157166,512.529358 832.948730,508.720123 
	C830.951721,507.259583 829.280518,505.353455 827.177063,503.436157 
	C826.893250,503.221954 827.027100,503.267883 827.027100,503.267883 
M837.048523,498.467072 
	C837.642334,499.047119 838.144226,499.947052 838.846619,500.148743 
	C841.187988,500.821014 843.601196,501.242828 845.986877,501.760651 
	C846.422424,499.343170 847.953308,496.401825 847.093445,494.603882 
	C844.208862,488.572632 840.742126,482.757721 836.878723,477.298370 
	C835.853271,475.849304 832.280945,475.056091 830.490967,475.690674 
	C829.263062,476.126007 828.021545,479.971710 828.646423,481.562073 
	C830.855957,487.185425 833.866028,492.494293 837.048523,498.467072 
z"/>
<path fill="#FAFAFA" opacity="1.000000" stroke="none" 
	d="
M382.492920,1124.631714 
	C377.973419,1122.471191 373.425690,1120.999512 369.817719,1118.280640 
	C364.659943,1114.394043 362.879120,1108.767578 364.697205,1102.297485 
	C366.592621,1095.552246 371.452179,1092.029419 377.984741,1091.224609 
	C386.497070,1090.175781 394.876892,1091.245239 402.707336,1095.085449 
	C411.066345,1099.184814 414.575073,1105.809937 412.846008,1114.054932 
	C411.495148,1120.496582 405.099548,1125.438599 396.732300,1125.766724 
	C392.136505,1125.946777 387.501678,1125.130493 382.492920,1124.631714 
M378.651184,1112.057373 
	C385.123413,1113.075928 391.571625,1114.437866 398.083252,1114.892700 
	C399.910217,1115.020386 403.151367,1112.739136 403.499176,1111.089600 
	C403.833679,1109.503174 401.621185,1106.102417 399.903778,1105.589600 
	C393.649902,1103.722900 387.177826,1102.314941 380.693848,1101.644409 
	C378.531158,1101.420532 376.085876,1103.928589 373.769745,1105.187866 
	C375.160156,1107.366333 376.550568,1109.544678 378.651184,1112.057373 
z"/>
<path fill="#FAFAFA" opacity="1.000000" stroke="none" 
	d="
M499.942444,831.679504 
	C498.205658,830.798340 496.468903,829.917114 494.522278,829.022583 
	C487.700806,826.151001 482.353333,821.849182 479.130615,815.288208 
	C476.407257,809.743835 476.846039,804.245667 480.423584,799.270203 
	C484.058685,794.214722 489.344360,792.344482 495.361725,793.327332 
	C504.688812,794.850708 512.563110,799.392517 519.025269,806.195618 
	C524.646118,812.112915 525.746521,819.186523 522.455872,825.386536 
	C519.135132,831.643250 513.725037,834.011230 505.084503,832.970093 
	C503.931152,832.831055 502.787109,832.614990 501.280457,832.716309 
	C500.922211,832.997986 500.984283,833.026550 501.138062,832.688721 
	C500.842010,832.127136 500.392212,831.903320 499.942444,831.679504 
M487.007019,806.749939 
	C488.310944,813.485352 498.929688,822.004700 507.751129,822.915894 
	C509.761841,823.123596 513.189392,822.304016 513.722717,821.023438 
	C514.445007,819.289062 513.713135,816.015442 512.365051,814.519409 
	C507.388977,808.996887 501.130127,805.116394 493.713501,803.903931 
	C491.727661,803.579285 489.414215,805.258423 487.007019,806.749939 
z"/>
<path fill="#FAFAFA" opacity="1.000000" stroke="none" 
	d="
M1290.032959,356.019073 
	C1296.973389,367.673492 1296.580200,379.490845 1291.953613,391.298584 
	C1289.539185,397.460419 1284.337158,400.367584 1277.723267,400.373779 
	C1270.971436,400.380127 1266.312988,396.944427 1263.820312,390.849518 
	C1259.743042,380.880341 1259.500610,370.668060 1263.718872,360.751129 
	C1268.558716,349.373047 1280.815674,347.182587 1290.032959,356.019073 
M1284.021606,383.143402 
	C1283.698120,376.889313 1283.689087,370.592285 1282.843994,364.409515 
	C1282.615112,362.735565 1280.004639,360.510162 1278.210693,360.214142 
	C1276.858521,359.991028 1274.260864,362.120087 1273.604492,363.757965 
	C1270.464355,371.592804 1270.356934,379.669037 1273.648560,387.501892 
	C1274.289673,389.027405 1276.468262,390.791534 1277.969238,390.820831 
	C1279.454834,390.849762 1281.178101,389.003143 1282.419434,387.636261 
	C1283.250000,386.721710 1283.421021,385.208191 1284.021606,383.143402 
z"/>
<path fill="#FAFAFA" opacity="1.000000" stroke="none" 
	d="
M1623.035889,441.940674 
	C1620.901855,446.297913 1619.254517,450.541382 1616.734985,454.181091 
	C1612.121704,460.845795 1604.892578,463.164581 1597.997192,460.861908 
	C1591.427612,458.668060 1587.930908,453.196930 1588.010254,444.802032 
	C1588.108643,434.402374 1591.494507,425.177887 1599.057983,417.934875 
	C1603.996216,413.205750 1609.988159,411.834595 1616.491089,414.879395 
	C1622.610718,417.744812 1625.370605,422.756653 1624.944458,429.338196 
	C1624.679443,433.432343 1623.756714,437.483917 1623.035889,441.940674 
M1601.324707,433.006958 
	C1600.219482,437.317474 1598.692871,441.581421 1598.208740,445.960602 
	C1598.004150,447.811920 1599.549438,450.891174 1601.116577,451.596527 
	C1602.525269,452.230438 1605.752197,450.965637 1606.964233,449.520935 
	C1612.002930,443.514862 1614.430908,436.251984 1614.811768,428.492432 
	C1614.896729,426.761780 1613.292358,423.993774 1611.800903,423.414032 
	C1610.367432,422.856781 1607.578369,424.020721 1606.271362,425.320007 
	C1604.333496,427.246460 1603.177368,429.959442 1601.324707,433.006958 
z"/>
<path fill="#FAFAFA" opacity="1.000000" stroke="none" 
	d="
M443.147675,947.795044 
	C451.523163,953.742798 454.204163,959.845215 451.984985,967.373901 
	C450.191772,973.457458 445.943451,977.123474 439.886871,977.775635 
	C428.424011,979.009949 418.119141,975.712341 409.690735,967.724365 
	C404.576935,962.877747 402.750427,956.864685 405.642639,950.035767 
	C408.458618,943.386719 413.744476,940.980713 420.748657,940.918335 
	C428.886108,940.845947 435.992798,943.676575 443.147675,947.795044 
M442.187531,960.669983 
	C436.302246,954.331848 428.472809,952.187622 420.363220,951.197144 
	C418.431244,950.961121 415.388824,952.658997 414.400940,954.362610 
	C413.740997,955.500793 415.278015,958.828369 416.754547,960.127502 
	C422.406067,965.100403 429.395172,967.339722 436.777557,967.907715 
	C441.529541,968.273315 443.213043,966.017456 442.187531,960.669983 
z"/>
<path fill="#FAFAFA" opacity="1.000000" stroke="none" 
	d="
M561.379761,709.489807 
	C568.507812,702.656250 575.371277,700.972595 581.881775,704.303101 
	C587.999207,707.432495 591.860596,714.403503 590.803284,721.320496 
	C589.544556,729.555115 584.458069,735.072571 577.084595,738.424255 
	C576.055115,738.892212 573.845520,737.914246 572.810730,736.938782 
	C571.417847,735.625854 570.635376,733.665283 569.595154,731.989441 
	C572.513916,730.050232 575.474609,728.545166 577.854675,726.396851 
	C581.718567,722.909241 581.922241,718.418945 578.845154,715.437622 
	C575.855408,712.541077 571.929016,712.834778 568.238098,716.391846 
	C566.932678,717.649963 565.865234,719.164490 564.753723,720.611450 
	C563.666626,722.026611 562.661621,723.504883 561.384949,725.283875 
	C555.452698,718.781860 549.761902,712.544434 543.823486,706.035645 
	C549.236206,699.594788 554.540161,693.283386 560.084778,686.685669 
	C562.605164,688.813538 564.846619,690.705811 567.486267,692.934326 
	C563.941956,697.275269 560.523560,701.462158 556.717712,706.123413 
	C558.256042,707.387024 559.674622,708.552246 561.379761,709.489807 
z"/>
<path fill="#F9F9F9" opacity="1.000000" stroke="none" 
	d="
M1968.457520,669.083130 
	C1973.786377,675.284180 1978.809082,681.260254 1984.074951,687.525635 
	C1981.512085,689.681274 1979.148926,691.668945 1976.615234,693.799988 
	C1972.923096,689.473083 1969.484375,685.443176 1965.783081,681.105347 
	C1964.191528,682.004395 1962.685425,682.855164 1960.836670,683.899414 
	C1966.200928,691.597351 1968.702515,699.335510 1961.920288,707.162231 
	C1957.423584,712.351562 1949.867310,713.871521 1943.210815,711.255859 
	C1935.677124,708.295532 1930.043213,700.095947 1930.252686,692.153137 
	C1932.748535,691.148621 1935.330688,690.109375 1937.719482,689.147888 
	C1939.366211,692.572510 1940.550537,696.001892 1942.521973,698.894836 
	C1945.074341,702.639832 1949.473022,703.333069 1952.533447,700.998535 
	C1956.171021,698.224060 1956.055664,694.617432 1953.840820,691.266174 
	C1951.757446,688.113770 1948.992920,685.411438 1945.903198,681.775696 
	C1953.270996,677.497864 1960.711182,673.178040 1968.457520,669.083130 
z"/>
<path fill="#F9F9F9" opacity="1.000000" stroke="none" 
	d="
M826.714478,503.688538 
	C827.027100,503.267883 826.893250,503.221954 826.900452,503.183594 
	C826.881775,504.223114 826.502258,505.450653 826.885193,506.355438 
	C830.410034,514.682373 828.683716,521.556091 821.415283,526.920166 
	C816.467712,530.571472 811.018127,532.700134 804.314209,531.758606 
	C803.790527,528.910278 803.265747,526.055725 802.765076,523.332214 
	C806.497009,522.432434 809.974976,522.009094 813.109192,520.738220 
	C817.508179,518.954468 819.093811,515.296082 817.505005,512.114075 
	C815.841309,508.782288 812.351135,507.950775 808.017761,509.963318 
	C805.936401,510.929993 803.938049,512.075378 801.599365,513.298096 
	C800.089905,510.684814 798.698303,508.275574 797.222900,505.721130 
	C799.607056,503.998779 802.345398,502.745331 803.940674,500.629913 
	C805.133484,499.048279 804.852051,496.354889 805.227051,494.156525 
	C802.987549,494.197449 800.180359,493.410828 798.638489,494.468597 
	C796.177185,496.157104 794.556946,499.071686 792.434387,501.645874 
	C792.506592,501.654510 792.128601,501.725159 791.927795,501.568542 
	C784.611023,495.861542 784.301697,493.069336 792.035339,487.535126 
	C795.832825,484.817596 801.045593,482.636932 805.577576,482.709991 
	C813.180908,482.832581 816.514221,488.914886 816.056702,498.699615 
	C819.530212,500.515961 822.966003,502.312561 826.714478,503.688538 
z"/>
<path fill="#F9F9F9" opacity="1.000000" stroke="none" 
	d="
M1734.110229,474.885406 
	C1742.270386,484.261658 1739.984131,492.989258 1728.439941,497.569611 
	C1731.272827,503.729340 1730.095825,509.297791 1725.329590,513.878784 
	C1720.514160,518.507080 1714.653442,519.010803 1708.647461,516.590027 
	C1705.919556,515.490601 1703.244873,513.967163 1700.954102,512.127991 
	C1693.010986,505.750671 1693.165161,503.980377 1701.211182,498.458618 
	C1704.273560,501.309967 1707.045288,504.350189 1710.284180,506.763489 
	C1712.964111,508.760437 1716.024658,508.556915 1718.115234,505.478790 
	C1720.255127,502.327972 1719.468628,499.385529 1716.700195,497.106232 
	C1714.546875,495.333344 1712.085205,493.934998 1709.426147,492.144958 
	C1710.845215,489.639923 1712.209839,487.230927 1713.729614,484.548248 
	C1716.331543,485.805450 1718.604736,487.628204 1721.030396,487.860413 
	C1723.206055,488.068695 1725.549316,486.527405 1727.818604,485.757874 
	C1726.628784,483.867340 1725.858765,481.117981 1724.152466,480.283905 
	C1721.471924,478.973724 1718.160400,478.954529 1714.957764,478.359192 
	C1715.007080,478.448029 1714.867920,478.316162 1714.873901,478.191345 
	C1715.312500,469.132660 1717.201416,467.737823 1725.897583,470.628967 
	C1728.678345,471.553467 1731.188232,473.292542 1734.110229,474.885406 
z"/>
<path fill="#F9F9F9" opacity="1.000000" stroke="none" 
	d="
M1576.510376,423.530304 
	C1579.503052,420.542511 1582.756714,417.593018 1580.160889,413.479614 
	C1577.592041,409.409149 1573.343262,409.291077 1569.042236,410.854034 
	C1568.132324,411.184692 1567.181885,411.403442 1565.576538,411.869110 
	C1565.336792,408.801544 1565.112305,405.930573 1564.899780,403.210541 
	C1570.855347,398.304535 1584.737061,401.006622 1589.218872,407.629364 
	C1593.782593,414.372833 1592.231689,423.908417 1584.736328,429.775208 
	C1580.238403,433.295776 1575.038330,435.919342 1569.645874,439.260742 
	C1574.270630,441.028107 1578.639526,442.697662 1583.437988,444.531372 
	C1582.381714,447.500702 1581.407104,450.240387 1580.236450,453.531006 
	C1570.021362,449.834778 1560.132446,446.256592 1550.151245,442.644989 
	C1550.437134,437.995392 1552.552612,435.429779 1556.731201,433.623077 
	C1563.403564,430.738159 1569.747925,427.094604 1576.510376,423.530304 
z"/>
<path fill="#FAFAFA" opacity="1.000000" stroke="none" 
	d="
M961.841064,453.814026 
	C955.881226,455.914825 950.299072,457.912140 944.781250,459.886414 
	C941.954590,455.961243 942.120300,452.435577 944.279480,448.268921 
	C947.392822,442.261292 949.815125,435.880951 952.279846,429.561188 
	C952.971558,427.787628 953.158997,425.620422 952.918030,423.717316 
	C952.221619,418.218109 947.702637,416.040588 943.141968,419.197205 
	C940.645447,420.925171 938.797363,423.590088 936.892639,425.585449 
	C934.835815,423.636780 932.708313,421.621094 930.087280,419.137817 
	C932.324097,416.711548 934.298340,414.030426 936.789673,411.976257 
	C942.560913,407.217682 950.569458,406.212708 955.841309,409.550995 
	C962.190186,413.571289 964.328979,419.807739 963.031982,426.839111 
	C961.962341,432.637970 959.794617,438.234314 957.920044,444.574707 
	C962.445740,443.053558 966.854004,441.571899 971.581299,439.983002 
	C972.646362,442.933838 973.640503,445.688171 974.784607,448.857941 
	C970.480713,450.519989 966.349792,452.115234 961.841064,453.814026 
z"/>
<path fill="#F8F8F8" opacity="1.000000" stroke="none" 
	d="
M2111.488037,955.755737 
	C2117.214844,956.332397 2122.496094,956.817749 2128.792969,957.396362 
	C2126.546143,950.953308 2124.531006,945.175293 2122.373047,938.987549 
	C2125.438965,937.868164 2128.178223,936.868103 2131.392334,935.694580 
	C2135.062500,945.736572 2138.626465,955.488464 2142.541748,966.201050 
	C2139.215820,966.821228 2136.198242,968.041870 2133.295166,967.812866 
	C2119.710205,966.741455 2106.152832,965.309387 2092.600586,963.863831 
	C2091.592773,963.756409 2090.289551,962.725220 2089.841064,961.782288 
	C2088.645264,959.266968 2087.841064,956.565491 2086.550781,953.033325 
	C2095.144043,953.956482 2103.093262,954.810425 2111.488037,955.755737 
z"/>
<path fill="#F9F9F9" opacity="1.000000" stroke="none" 
	d="
M419.298645,982.702209 
	C424.888214,988.437561 429.988251,994.188538 435.661835,999.303223 
	C438.789795,1002.123169 438.833038,1004.570312 437.160736,1007.864563 
	C436.361481,1009.439087 435.914307,1011.192200 435.427002,1012.535461 
	C425.133026,1003.056519 414.929688,993.661072 404.911316,984.435974 
	C403.079041,989.346741 400.899811,995.187317 398.606506,1001.333679 
	C395.491882,1000.228027 392.743439,999.252441 389.527588,998.110901 
	C393.224457,987.939514 396.773376,978.175049 400.394318,968.212585 
	C409.574432,969.449341 412.977264,977.715088 419.298645,982.702209 
z"/>
<path fill="#F8F8F8" opacity="1.000000" stroke="none" 
	d="
M1095.661621,388.543579 
	C1095.123413,385.880798 1094.724121,383.617401 1094.216187,380.737701 
	C1092.073364,382.243958 1090.381592,383.433228 1088.206787,384.961945 
	C1086.885010,382.170166 1085.599487,379.454773 1084.357544,376.831390 
	C1092.370605,368.882080 1095.297974,367.359009 1102.528320,367.402496 
	C1103.917969,374.990997 1105.354004,382.620667 1106.703979,390.265625 
	C1108.057861,397.932983 1109.325562,405.615509 1110.753906,414.014252 
	C1107.524780,414.694092 1104.257812,415.381866 1100.500854,416.172791 
	C1098.888550,406.831909 1097.344604,397.887421 1095.661621,388.543579 
z"/>
<path fill="#F9F9F9" opacity="1.000000" stroke="none" 
	d="
M1428.604492,368.697327 
	C1426.040283,382.987213 1423.581177,396.856201 1421.020752,411.297211 
	C1417.620972,410.767944 1414.461914,410.276154 1410.745850,409.697662 
	C1412.743164,398.007141 1414.681519,386.661682 1416.718994,374.736511 
	C1414.184082,375.196014 1412.180054,375.559265 1409.600952,376.026764 
	C1409.372925,372.889008 1409.163574,370.009521 1408.961670,367.232361 
	C1421.550659,362.273071 1422.294678,362.019867 1428.971069,364.514771 
	C1428.888550,365.702545 1428.799072,366.989532 1428.604492,368.697327 
z"/>
<path fill="#FAFAFA" opacity="1.000000" stroke="none" 
	d="
M369.038727,1268.179565 
	C369.531006,1267.849365 370.025330,1267.787476 370.519653,1267.725708 
	C370.175049,1268.125977 369.830505,1268.526245 369.199463,1268.947998 
	C368.955566,1268.795532 368.998169,1268.621704 369.038727,1268.179565 
z"/>
<path fill="#3F3F3F" opacity="1.000000" stroke="none" 
	d="
M385.020020,1282.954346 
	C384.920471,1282.799316 384.999573,1282.449219 385.293152,1282.214355 
	C385.404633,1282.472900 385.301666,1282.615967 385.020020,1282.954346 
z"/>

<path fill="#3F3F3F" opacity="1.000000" stroke="none" 
	d="
M499.868652,832.044312 
	C500.392212,831.903320 500.842010,832.127136 501.166260,832.708008 
	C500.625397,832.846497 500.210144,832.627869 499.868652,832.044312 
z"/>
</svg>