<svg version="1.1" id="Layer_1" xmlns="http://www.w3.org/2000/svg" xmlns:xlink="http://www.w3.org/1999/xlink" x="0px" y="0px"
	 width="100%" viewBox="0 0 2546 1581" xml:space="preserve">

<path fill="#29516A" opacity="1.000000" stroke="none" 
	d="
M1292.063232,1235.014404 
	C1292.042236,1254.988403 1292.049316,1274.962646 1291.969849,1294.936401 
	C1291.957886,1297.949951 1292.342285,1299.669434 1296.142090,1300.116821 
	C1314.726562,1302.304688 1332.187866,1308.324463 1348.201294,1317.873169 
	C1372.147339,1332.152222 1390.926880,1351.517334 1403.363281,1376.711670 
	C1403.575439,1377.141357 1404.018066,1377.457153 1404.674438,1378.378906 
	C1408.866699,1392.050049 1413.642334,1404.983398 1416.371704,1418.335205 
	C1419.533447,1433.801636 1419.298340,1449.682373 1416.004517,1465.214111 
	C1413.885376,1475.206909 1410.678101,1484.968994 1407.958374,1494.834473 
	C1402.401611,1504.355957 1397.369629,1514.235107 1391.174805,1523.321655 
	C1379.664917,1540.204956 1364.256226,1552.935669 1346.635254,1563.215576 
	C1334.247314,1570.442749 1320.953369,1575.015503 1307.156494,1578.416138 
	C1303.108643,1579.413940 1299.025391,1580.267944 1294.979248,1581.593872 
	C1283.312378,1582.000000 1271.624878,1582.000000 1259.468628,1582.000000 
	C1258.286743,1581.339478 1257.642334,1580.201660 1256.850220,1580.087280 
	C1229.176147,1576.092041 1204.942749,1564.924316 1183.816406,1546.474609 
	C1167.439575,1532.172852 1155.187256,1515.130615 1146.260986,1494.711914 
	C1138.629272,1474.207397 1133.814575,1453.837402 1136.073608,1432.442749 
	C1137.112305,1422.604858 1138.379395,1412.713379 1140.646362,1403.106445 
	C1142.650879,1394.611816 1146.186523,1386.478394 1149.046143,1378.185425 
	C1152.328857,1372.888184 1155.454956,1367.485962 1158.920776,1362.311279 
	C1176.885010,1335.490479 1201.059814,1316.507202 1231.629517,1306.130371 
	C1240.275146,1303.195557 1249.460938,1301.727661 1258.493652,1300.117065 
	C1262.210327,1299.454224 1262.002441,1297.352295 1262.001587,1294.815674 
	C1261.994385,1275.193115 1261.992065,1255.570435 1262.438354,1235.477539 
	C1272.613403,1235.009644 1282.338257,1235.011963 1292.063232,1235.014404 
z"/>

<path fill="#29516A" opacity="1.000000" stroke="none" 
	d="
M1213.650269,1214.893677 
	C1215.145386,1195.347046 1216.540039,1175.792236 1218.158691,1156.255859 
	C1220.654053,1126.135010 1223.372070,1096.032715 1225.861328,1065.911377 
	C1227.407349,1047.203003 1228.600830,1028.465820 1230.139771,1009.756897 
	C1232.290771,983.605774 1234.681274,957.474487 1236.845215,931.324402 
	C1238.365845,912.947998 1239.598999,894.547791 1241.107178,876.170288 
	C1242.927246,853.992188 1244.943115,831.830261 1246.795044,809.654663 
	C1247.942505,795.915344 1248.894897,782.159851 1250.020996,768.418701 
	C1251.567383,749.548096 1253.216553,730.685974 1254.781250,711.816833 
	C1255.879272,698.573364 1256.887939,685.322571 1257.975708,672.078186 
	C1259.579712,652.546997 1261.259033,633.021851 1262.829346,613.487976 
	C1263.974243,599.247253 1264.920898,584.990356 1266.089722,570.751709 
	C1267.597656,552.381042 1269.317993,534.027588 1270.798706,515.654846 
	C1272.053589,500.086639 1273.097412,484.501373 1274.476929,468.144531 
	C1274.932617,464.606476 1275.145996,461.847565 1275.359375,459.088623 
	C1275.575195,459.096283 1275.790894,459.103912 1276.006714,459.111542 
	C1276.006714,461.928162 1276.006714,464.744751 1276.006714,467.561371 
	C1276.006714,714.367065 1276.006470,961.172729 1276.011108,1207.978394 
	C1276.011108,1210.310547 1276.076050,1212.642578 1275.635254,1214.981689 
	C1254.656494,1214.956909 1234.153442,1214.925293 1213.650269,1214.893677 
z"/>
<path fill="#254254" opacity="1.000000" stroke="none" 
	d="
M1148.577637,1378.118164 
	C1146.186523,1386.478394 1142.650879,1394.611816 1140.646362,1403.106445 
	C1138.379395,1412.713379 1137.112305,1422.604858 1136.073608,1432.442749 
	C1133.814575,1453.837402 1138.629272,1474.207397 1145.972168,1494.496094 
	C1127.250854,1494.857300 1108.470093,1494.857300 1089.346436,1494.857300 
	C1089.346436,1455.930298 1089.346436,1417.374268 1089.346436,1378.051025 
	C1108.956421,1378.051025 1128.532715,1378.051025 1148.577637,1378.118164 
z"/>
<path fill="#254254" opacity="1.000000" stroke="none" 
	d="
M1213.214355,1214.897827 
	C1234.153442,1214.925293 1254.656494,1214.956909 1275.977783,1214.971924 
	C1277.254761,1214.946899 1277.713501,1214.938477 1278.629150,1214.889648 
	C1299.432617,1214.893799 1319.779175,1214.938354 1340.125854,1214.982910 
	C1344.554565,1214.982910 1348.983276,1214.982910 1353.696533,1214.982910 
	C1353.696533,1221.815552 1353.696533,1228.035889 1353.696533,1235.003906 
	C1333.357666,1235.003906 1313.173340,1235.003906 1292.526123,1235.009155 
	C1282.338257,1235.011963 1272.613403,1235.009644 1262.414307,1235.010376 
	C1240.500488,1235.013428 1219.060669,1235.013428 1197.312988,1235.013428 
	C1197.312988,1228.185425 1197.312988,1221.950439 1197.312988,1214.901978 
	C1202.579346,1214.901978 1207.678833,1214.901978 1213.214355,1214.897827 
z"/>
<path fill="#0C1215" opacity="1.000000" stroke="none" 
	d="
M1278.172363,1214.929932 
	C1277.713501,1214.938477 1277.254761,1214.946899 1276.453369,1214.965088 
	C1276.076050,1212.642578 1276.011108,1210.310547 1276.011108,1207.978394 
	C1276.006470,961.172729 1276.006714,714.367065 1276.006714,467.561371 
	C1276.006714,464.744751 1276.006714,461.928162 1276.006714,459.111542 
	C1275.790894,459.103912 1275.575195,459.096283 1275.359375,459.088623 
	C1275.145996,461.847565 1274.932617,464.606476 1274.491699,467.682434 
	C1274.066650,468.003143 1273.869141,468.006897 1273.375854,468.020111 
	C1274.180908,454.901581 1275.281616,441.773621 1276.382324,428.645660 
	C1278.391724,438.788574 1280.465454,448.889252 1278.585205,459.839172 
	C1278.094849,461.905426 1278.005249,463.401093 1278.005127,464.896759 
	C1277.999023,713.245239 1277.998779,961.593689 1278.006226,1209.942139 
	C1278.006226,1211.604736 1278.114624,1213.267334 1278.172363,1214.929932 
z"/>
<path fill="#FEFEFE" opacity="1.000000" stroke="none" 
	d="
M1278.629150,1214.889648 
	C1278.114624,1213.267334 1278.006226,1211.604736 1278.006226,1209.942139 
	C1277.998779,961.593689 1277.999023,713.245239 1278.005127,464.896759 
	C1278.005249,463.401093 1278.094849,461.905426 1278.555420,460.273071 
	C1279.567017,467.805725 1280.165771,475.475037 1280.907227,483.581390 
	C1282.499023,502.715668 1283.903076,521.416626 1285.407104,540.109436 
	C1288.248901,575.428650 1291.132812,610.744385 1294.028198,646.059204 
	C1296.882568,680.875061 1299.786865,715.686890 1302.643066,750.502625 
	C1305.445068,784.657104 1308.208374,818.814819 1310.999146,852.970215 
	C1313.870972,888.119141 1316.765991,923.266174 1319.631226,958.415649 
	C1322.104492,988.755920 1324.533691,1019.099792 1327.011719,1049.439575 
	C1329.855713,1084.256836 1332.753174,1119.069458 1335.587036,1153.887451 
	C1337.219849,1173.948975 1338.773315,1194.016968 1340.244141,1214.532471 
	C1319.779175,1214.938354 1299.432617,1214.893799 1278.629150,1214.889648 
z"/>
<path fill="#254254" opacity="1.000000" stroke="none" 
	d="
M1408.427490,1494.894531 
	C1410.678101,1484.968994 1413.885376,1475.206909 1416.004517,1465.214111 
	C1419.298340,1449.682373 1419.533447,1433.801636 1416.371704,1418.335205 
	C1413.642334,1404.983398 1408.866699,1392.050049 1404.972900,1378.566895 
	C1425.064941,1378.202026 1445.179565,1378.202026 1465.645996,1378.202026 
	C1465.645996,1417.056763 1465.645996,1455.614990 1465.645996,1494.954468 
	C1446.718018,1494.954468 1427.807373,1494.954468 1408.427490,1494.894531 
z"/>
</svg>